<svg version="1.1" id="Layer_1" xmlns="http://www.w3.org/2000/svg" xmlns:xlink="http://www.w3.org/1999/xlink" x="0px" y="0px"
	 width="100%" viewBox="0 0 1024 1024" enable-background="new 0 0 1024 1024" xml:space="preserve">
<path fill="#FFFFFF" opacity="1.000000" stroke="none" 
	d="
M672.000000,1025.000000 
	C448.000000,1025.000000 224.500000,1025.000000 1.000000,1025.000000 
	C1.000000,683.666687 1.000000,342.333344 1.000000,1.000000 
	C342.333344,1.000000 683.666687,1.000000 1025.000000,1.000000 
	C1025.000000,342.333344 1025.000000,683.666687 1025.000000,1025.000000 
	C907.500000,1025.000000 790.000000,1025.000000 672.000000,1025.000000 
M790.011658,459.394745 
	C789.692993,459.196289 789.374268,458.997864 789.039612,458.953217 
	C789.039612,458.953217 789.194214,458.950043 789.003174,458.403473 
	C788.685852,458.192383 788.368469,457.981323 787.984985,457.348816 
	C787.847107,457.054871 787.616028,456.915863 787.012634,456.432434 
	C786.680542,456.260162 786.348511,456.087891 786.017761,455.987823 
	C786.017761,455.987823 786.085327,455.962402 785.764771,455.440247 
	C785.246155,455.164398 784.727600,454.888580 784.119385,454.776123 
	C784.119385,454.776123 784.303589,454.804260 784.204956,454.201477 
	C783.832886,454.047943 783.460876,453.894379 783.087891,453.885895 
	C783.087891,453.885895 783.226196,453.842072 782.923157,453.288025 
	C782.360718,453.051605 781.798279,452.815216 781.338440,452.686493 
	C781.338440,452.686493 781.384644,452.545135 781.126465,452.019928 
	C780.442566,451.630188 779.758667,451.240417 779.055603,450.935059 
	C779.055603,450.935059 779.141052,450.921356 778.831665,450.367462 
	C778.233398,450.174835 777.635132,449.982208 777.051086,449.928345 
	C777.051086,449.928345 777.184265,449.887146 776.879211,449.325409 
	C776.283020,449.115631 775.686768,448.905823 775.091370,448.854950 
	C775.091370,448.854950 775.240845,448.801117 774.886414,448.217529 
	C773.623962,447.712311 772.361572,447.207092 771.073364,446.853638 
	C771.073364,446.853638 771.225586,446.830780 770.889465,446.281586 
	C770.264587,446.146881 769.639709,446.012177 769.023071,445.966644 
	C769.023071,445.966644 769.110107,445.945892 768.625488,445.379333 
	C766.425232,444.856720 764.224915,444.334106 762.021423,443.933533 
	C762.021423,443.933533 762.142273,443.916626 761.607422,443.324097 
	C750.753418,442.925232 739.899353,442.526367 728.505859,441.901459 
	C728.290161,441.586365 728.074463,441.271271 727.983582,440.031708 
	C727.990234,435.382202 727.997986,430.732666 728.003296,426.083160 
	C728.047668,387.062531 728.091614,348.041870 728.795227,308.818024 
	C738.126953,303.769379 747.477112,298.754333 756.783203,293.658844 
	C761.922852,290.844635 765.400269,286.810577 765.016663,280.572662 
	C764.635681,274.376587 761.258484,270.465454 755.646545,267.724121 
	C724.960510,252.734604 694.388733,237.511475 663.760925,222.402542 
	C637.176208,209.288162 610.569336,196.218948 583.468628,182.898300 
	C583.130249,182.762833 582.791870,182.627350 582.338806,182.501083 
	C582.338806,182.501083 582.252991,182.577789 581.835938,182.062485 
	C578.594421,180.618973 575.352844,179.175476 572.090698,177.859009 
	C572.090698,177.859009 572.215515,177.827759 571.892273,177.282333 
	C571.288818,177.102936 570.685364,176.923553 570.078430,176.879547 
	C570.078430,176.879547 570.207458,176.838409 569.886597,176.294083 
	C569.289062,176.103821 568.691528,175.913574 568.087463,175.863632 
	C568.087463,175.863632 568.220947,175.819839 567.892456,175.276947 
	C567.287415,175.102463 566.682434,174.927963 566.073486,174.884720 
	C566.073486,174.884720 566.199036,174.846207 565.859863,174.314041 
	C565.259766,174.138077 564.659729,173.962112 564.061584,173.908752 
	C564.061584,173.908752 564.178772,173.872665 563.835693,173.349884 
	C563.245483,173.158936 562.655334,172.967987 562.066040,172.902176 
	C562.066040,172.902176 562.185425,172.864594 561.861145,172.324982 
	C561.268738,172.130173 560.676331,171.935364 560.078796,171.876389 
	C560.078796,171.876389 560.208618,171.835938 559.871460,171.303421 
	C559.272949,171.119888 558.674438,170.936371 558.074524,170.886810 
	C558.074524,170.886810 558.202148,170.846100 557.872925,170.304932 
	C557.273071,170.122375 556.673279,169.939835 556.069275,169.888626 
	C556.069275,169.888626 556.195496,169.852066 555.840210,169.335907 
	C555.242188,169.162766 554.644165,168.989624 554.051453,168.927551 
	C554.051453,168.927551 554.157715,168.894714 553.833069,168.358505 
	C553.245422,168.160873 552.657715,167.963242 552.069824,167.895355 
	C552.069824,167.895355 552.193665,167.856598 551.863098,167.324783 
	C551.274719,167.123306 550.686340,166.921844 550.091980,166.860336 
	C550.091980,166.860336 550.224304,166.814407 549.897034,166.271606 
	C549.293884,166.091476 548.690674,165.911346 548.078064,165.866470 
	C548.078064,165.866470 548.208130,165.828201 547.858093,165.283203 
	C547.086365,164.996735 546.314636,164.710281 545.419617,164.348007 
	C545.419617,164.348007 545.334106,164.231323 544.940857,163.797882 
	C543.999756,163.439209 543.058716,163.080536 542.095520,162.850433 
	C542.095520,162.850433 542.221802,162.817581 541.896606,162.264938 
	C541.277222,162.119965 540.657837,161.974991 540.040161,161.935410 
	C540.040161,161.935410 540.142517,161.910019 539.860840,161.316635 
	C539.270203,161.039886 538.679626,160.763138 537.814514,160.159698 
	C537.553833,160.010498 537.277649,159.971466 536.468933,159.593231 
	C534.355652,158.631851 532.242371,157.670471 530.103333,156.840027 
	C530.103333,156.840027 530.232605,156.806854 529.921692,156.257996 
	C529.331238,156.053253 528.740845,155.848511 528.114624,155.786072 
	C528.114624,155.786072 528.256470,155.748505 527.846313,155.176117 
	C526.311096,154.628510 524.775879,154.080917 523.137634,153.614243 
	C523.137634,153.614243 523.252930,153.676468 522.787109,153.104889 
	C519.864746,152.602524 516.955017,151.768661 514.017700,151.656235 
	C502.441864,151.213104 493.340332,157.661880 483.928436,162.890213 
	C483.928436,162.890213 483.924072,162.761765 483.297180,162.865768 
	C482.792816,163.186920 482.288452,163.508072 481.914886,163.868210 
	C481.914886,163.868210 481.905060,163.732086 481.285156,163.847443 
	C480.794342,164.186859 480.303558,164.526291 479.913391,164.883118 
	C479.913391,164.883118 479.885986,164.784714 479.430511,164.882095 
	C479.430511,164.882095 479.017059,165.096588 478.315643,165.160797 
	C424.300995,191.745285 370.270905,218.298569 316.281036,244.933319 
	C300.064667,252.933334 283.932770,261.106354 267.820465,269.314606 
	C262.693726,271.926361 260.549255,276.426117 260.974609,282.110199 
	C261.511810,289.288452 266.516754,292.381958 272.387024,295.124908 
	C325.538361,319.960358 378.665894,344.847565 431.718506,369.893127 
	C455.554596,381.145874 479.217255,392.766571 502.931824,404.275604 
	C510.280884,407.842163 517.309692,407.874420 524.798279,404.175568 
	C560.613403,386.485199 596.555908,369.052948 632.426270,351.474060 
	C633.786011,350.807739 634.868591,349.575836 636.080322,348.607483 
	C634.937073,347.596100 633.953430,346.234894 632.625244,345.628876 
	C622.377380,340.952942 612.042542,336.468384 601.772766,331.839905 
	C569.747498,317.406616 537.729309,302.957550 505.735809,288.454071 
	C501.474213,286.522186 498.891754,281.124634 499.416870,276.044983 
	C500.008392,270.322357 503.024841,266.434998 507.711060,264.942627 
	C513.673706,263.043793 519.217957,264.611877 524.609680,266.896881 
	C556.762695,280.523346 588.882751,294.227386 621.429016,308.122986 
	C621.429016,308.122986 621.888428,308.215546 621.915527,308.118927 
	C621.915527,308.118927 621.816711,308.136383 622.203735,308.719574 
	C623.722107,309.288025 625.240479,309.856476 626.940430,310.338623 
	C626.940430,310.338623 626.740845,310.362823 627.175171,310.897247 
	C629.381104,311.733246 631.586975,312.569214 633.845642,313.282318 
	C633.845642,313.282318 633.723206,313.336121 634.124451,313.872803 
	C635.392883,314.317139 636.661255,314.761475 637.939514,315.095123 
	C637.939514,315.095123 637.831238,315.120178 638.228333,315.710815 
	C642.041748,317.298157 645.855225,318.885468 649.714478,320.448517 
	C649.714478,320.448517 649.752625,320.413422 650.164856,320.932373 
	C652.758423,322.010345 655.351990,323.088318 657.949219,324.071289 
	C657.949219,324.071289 657.857178,324.094971 658.265747,324.671570 
	C661.151794,325.852386 664.037842,327.033203 666.936340,328.102295 
	C666.936340,328.102295 666.826721,328.127106 667.212036,328.672852 
	C668.052673,328.934570 668.893372,329.196289 669.862915,329.443787 
	C669.862915,329.443787 669.742798,329.394836 670.171082,329.919983 
	C674.420471,331.688080 678.669861,333.456177 682.934143,335.108826 
	C682.934143,335.108826 682.820251,335.133118 683.228943,335.712952 
	C686.142639,336.843048 689.056396,337.973114 691.971191,339.025238 
	C691.971191,339.025238 691.899475,339.055786 692.270142,339.539734 
	C692.826599,339.779053 693.382996,340.018372 693.933105,340.664337 
	C693.933105,340.664337 694.108337,341.031433 694.011475,341.960846 
	C694.049622,374.957550 694.087708,407.954224 693.966980,441.371613 
	C693.966980,441.371613 693.965210,441.821289 693.043945,441.977966 
	C684.710144,442.025330 676.376282,442.072693 667.526245,441.881622 
	C667.311523,441.576691 667.096863,441.271759 666.989014,440.038788 
	C666.948792,418.709656 666.908508,397.380493 667.030212,375.176483 
	C666.978821,373.105743 666.927429,371.034973 666.965881,368.252197 
	C665.861328,365.450165 664.167358,365.390625 661.405884,367.351471 
	C654.333252,371.126953 647.260620,374.902466 639.527588,378.870667 
	C638.974915,379.221191 638.422241,379.571686 637.951355,379.945190 
	C637.951355,379.945190 637.951599,379.860321 637.404480,379.944885 
	C637.156860,380.177948 636.909302,380.411041 636.776428,380.564270 
	C636.776428,380.564270 636.654236,380.496399 636.021790,380.611969 
	C635.307556,381.049286 634.593323,381.486603 633.960327,381.949524 
	C633.960327,381.949524 633.966187,381.864471 633.345825,381.951111 
	C632.850342,382.270569 632.354797,382.590027 631.952881,382.937286 
	C631.952881,382.937286 631.956360,382.839722 631.333984,382.939606 
	C630.819580,383.237885 630.305176,383.536163 629.920410,383.869659 
	C629.920410,383.869659 629.908325,383.735901 629.289124,383.834198 
	C628.800049,384.180847 628.311035,384.527496 627.937256,384.906921 
	C627.937256,384.906921 627.935059,384.787140 627.305359,384.881989 
	C626.805481,385.206360 626.305664,385.530762 625.922974,385.883728 
	C625.922974,385.883728 625.908264,385.764099 625.240295,385.898315 
	C624.091492,386.544708 622.942627,387.191132 621.920532,387.876129 
	C621.920532,387.876129 621.913391,387.743927 621.289856,387.851715 
	C620.784180,388.172363 620.278442,388.492981 619.907593,388.853027 
	C619.907593,388.853027 619.893127,388.713196 619.275635,388.826630 
	C618.782593,389.166077 618.289551,389.505524 617.922424,389.881683 
	C617.922424,389.881683 617.915100,389.750793 617.301453,389.860413 
	C616.813782,390.204010 616.326172,390.547577 615.942322,390.922821 
	C615.942322,390.922821 615.944214,390.814331 615.327820,390.911652 
	C614.826538,391.233521 614.325256,391.555359 613.938171,391.909882 
	C613.938171,391.909882 613.936768,391.791077 613.313660,391.875946 
	C612.820190,392.212952 612.326721,392.549957 611.941589,392.919128 
	C611.941589,392.919128 611.942627,392.806152 611.336792,392.918793 
	C610.852051,393.256104 610.367249,393.593414 609.962036,393.955444 
	C609.962036,393.955444 609.968811,393.872406 609.342163,393.946381 
	C608.835449,394.255249 608.328796,394.564087 607.937622,394.905792 
	C607.937622,394.905792 607.935242,394.785736 607.309814,394.883209 
	C606.810913,395.210602 606.312073,395.537964 605.932678,395.900543 
	C605.932678,395.900543 605.930664,395.776031 605.310120,395.887665 
	C604.804993,396.205963 604.299866,396.524261 603.921387,396.878845 
	C603.921387,396.878845 603.912781,396.747406 603.299011,396.855835 
	C602.820496,397.208832 602.341980,397.561829 601.947876,397.939758 
	C601.947876,397.939758 601.948181,397.851715 601.411316,397.958527 
	C601.165100,398.182434 600.918823,398.406342 600.746277,398.505554 
	C600.746277,398.505554 600.611084,398.453644 599.976013,398.546661 
	C599.259949,398.989258 598.543884,399.431824 597.940308,399.906372 
	C597.940308,399.906372 597.937683,399.789459 597.309082,399.876099 
	C596.798035,400.188507 596.286987,400.500916 595.907532,400.852875 
	C595.907532,400.852875 595.893066,400.716217 595.274475,400.831238 
	C594.778442,401.164795 594.282349,401.498352 593.910217,401.859711 
	C593.910217,401.859711 593.886658,401.734833 593.187073,401.859070 
	C591.372131,402.773102 589.557190,403.687134 587.739990,404.528076 
	C587.739990,404.528076 587.670227,404.506134 586.967102,404.623047 
	C584.892700,405.623505 582.818298,406.623962 580.759155,407.551331 
	C580.759155,407.551331 580.687744,407.529510 580.119751,407.660309 
	C579.653809,407.974091 579.187805,408.287842 578.714539,408.531799 
	C578.714539,408.531799 578.646912,408.512878 577.986816,408.660522 
	C576.607422,409.405975 575.228088,410.151459 573.944885,410.921600 
	C573.944885,410.921600 573.939697,410.822388 573.269897,410.945831 
	C572.120239,411.587250 570.970581,412.228699 569.930969,412.895721 
	C569.930969,412.895721 569.917786,412.783447 569.191467,412.895966 
	C566.700195,414.141724 564.208923,415.387451 561.884460,416.677368 
	C561.884460,416.677368 561.757385,416.560699 561.109558,416.667755 
	C560.374329,417.093262 559.639099,417.518768 558.974304,417.978210 
	C558.974304,417.978210 558.969055,417.900177 558.337158,417.993500 
	C557.463074,418.524414 556.588928,419.055359 555.662537,419.596436 
	C555.662537,419.596436 555.655945,419.543549 555.029968,419.715576 
	C553.927368,420.369995 552.824707,421.024414 551.852539,421.692932 
	C551.852539,421.692932 551.779541,421.583923 551.195374,421.692413 
	C550.708130,421.978638 550.220886,422.264893 549.659058,422.543945 
	C549.659058,422.543945 549.588074,422.519745 548.979797,422.707520 
	C547.893250,423.349670 546.806702,423.991821 545.804810,424.572784 
	C545.804810,424.572784 545.701843,424.555267 545.062195,424.707489 
	C543.947815,425.358154 542.833496,426.008820 541.865906,426.642822 
	C541.865906,426.642822 541.732666,426.579010 541.058594,426.742493 
	C539.276306,427.718414 537.494080,428.694336 535.705994,429.584473 
	C535.705994,429.584473 535.621094,429.570679 534.903931,429.749847 
	C525.026855,433.760315 514.984619,436.804199 504.205383,433.962738 
	C499.476349,432.716187 494.850708,431.077271 490.140350,429.753052 
	C490.140350,429.753052 490.273254,429.703949 489.862122,429.149109 
	C487.033936,427.941010 484.205750,426.732910 481.308868,425.528442 
	C481.308868,425.528442 481.335632,425.591827 481.100067,425.105865 
	C480.751312,425.016663 480.402588,424.927460 480.053528,424.931580 
	C480.053528,424.931580 480.142975,424.904816 479.727142,424.351349 
	C478.258087,423.750061 476.789062,423.148773 475.277557,422.567535 
	C475.277557,422.567535 475.262604,422.612030 474.843170,422.087219 
	C470.697205,420.225128 466.551208,418.363007 462.330536,416.531799 
	C462.330536,416.531799 462.259369,416.493439 461.936890,416.053558 
	C461.429047,415.861176 460.921204,415.668793 460.317444,415.495544 
	C460.317444,415.495544 460.241608,415.557343 459.859039,415.016663 
	C455.276855,412.878357 450.694672,410.740021 445.638214,408.114502 
	C418.750916,395.446411 391.863617,382.778290 364.404602,369.814728 
	C363.628021,369.479736 362.851410,369.144775 362.063477,368.908020 
	C362.063477,368.908020 362.159546,368.884613 361.741943,368.278107 
	C356.597778,366.143188 355.127045,367.034912 355.100037,372.524750 
	C354.986145,395.677521 354.919373,418.830505 354.976105,442.011200 
	C354.976105,442.011200 355.002655,441.870209 354.067169,441.986908 
	C329.613159,441.990021 305.157684,441.847473 280.706207,442.097076 
	C274.476074,442.160645 268.258667,443.468140 261.465057,444.129639 
	C261.321594,444.256744 261.178101,444.383820 260.423279,444.726807 
	C259.731628,445.105011 259.039978,445.483215 257.647766,445.726318 
	C236.608002,452.504425 220.631775,474.828094 220.028427,498.978973 
	C220.070160,522.966492 220.111893,546.953979 220.024979,571.778259 
	C221.526794,586.000610 227.946014,597.579224 238.899994,606.672607 
	C250.855347,616.597290 265.618011,617.171570 280.839081,619.081970 
	C339.073761,626.523560 396.883118,637.422180 455.016754,640.864136 
	C456.103302,631.025635 457.151489,621.534546 458.079285,612.045837 
	C458.079285,612.045837 458.109985,612.162231 458.675751,611.872620 
	C458.868744,611.275452 459.061737,610.678345 459.118683,610.079163 
	C459.118683,610.079163 459.160950,610.208496 459.715027,609.888428 
	C460.196014,608.942383 460.677002,607.996277 461.754517,606.754944 
	C466.926361,599.580811 473.894379,595.279358 482.701538,593.764038 
	C482.701538,593.764038 482.823120,593.778259 483.245667,593.951111 
	C483.553528,593.666870 483.861359,593.382629 485.084320,593.053894 
	C494.353546,593.041443 503.623291,592.962891 512.891907,593.032288 
	C526.345154,593.133057 539.962402,591.817383 552.706238,597.265442 
	C552.706238,597.265442 552.669800,597.409546 552.983521,597.953369 
	C554.634460,599.013550 556.285339,600.073792 557.963501,601.038635 
	C557.963501,601.038635 557.864990,601.027344 558.070007,601.540161 
	C558.372803,601.733643 558.675598,601.927124 559.167847,602.640381 
	C559.719666,603.106812 560.271423,603.573303 561.036316,604.561707 
	C561.346252,604.760559 561.656128,604.959473 561.967773,605.028809 
	C561.967773,605.028809 561.838806,605.040771 562.038635,605.569092 
	C562.346008,605.768982 562.653381,605.968872 562.964539,606.030823 
	C562.964539,606.030823 562.826965,606.041565 563.008301,606.594604 
	C563.312805,606.806458 563.617371,607.018250 563.913513,607.053833 
	C563.913513,607.053833 563.741150,607.091736 563.886292,607.685791 
	C564.198792,607.891907 564.511230,608.098022 564.784729,608.097961 
	C564.784729,608.097961 564.596924,608.191589 564.644897,608.822388 
	C565.008362,609.302002 565.371887,609.781555 565.749939,610.111511 
	C565.749939,610.111511 565.611694,610.170715 565.671387,610.806763 
	C566.047729,611.289062 566.424011,611.771301 566.851990,612.097534 
	C566.851990,612.097534 566.687683,612.100952 566.776733,612.793640 
	C567.195374,613.860291 567.614075,614.927002 567.972351,616.595642 
	C568.256897,617.076477 568.541382,617.557312 568.922119,618.680969 
	C568.991455,619.107910 569.060730,619.534851 568.993958,620.557922 
	C569.260803,621.052124 569.527588,621.546387 569.881165,622.968872 
	C569.881165,628.980896 569.881165,634.992920 569.881165,641.348083 
	C575.460815,640.796326 580.202698,640.327454 585.789734,639.961914 
	C600.760132,638.393311 615.751831,637.001587 630.695374,635.209595 
	C647.762329,633.163025 664.809875,630.921875 681.823853,628.473694 
	C707.214355,624.820374 732.485046,620.168701 757.960876,617.320984 
	C783.549194,614.460693 800.969421,599.566895 805.963135,573.112976 
	C806.125244,571.131531 806.424622,569.150330 806.428650,567.168518 
	C806.475403,544.049683 806.552734,520.930420 806.418701,497.812378 
	C806.395935,493.887329 805.414795,489.967834 804.941772,485.285400 
	C801.736938,478.831177 798.532166,472.376953 795.070984,465.353577 
	C794.749451,465.154297 794.427979,464.955017 794.185120,464.950897 
	C794.185120,464.950897 794.365540,464.842590 794.300842,464.200684 
	C793.884094,463.736115 793.467346,463.271576 792.964844,462.368835 
	C792.802246,462.078033 792.554443,461.937531 791.985168,461.421051 
	C791.672668,461.216309 791.360229,461.011566 791.050720,460.961212 
	C791.050720,460.961212 791.203491,460.938843 791.011169,460.394470 
	C790.692566,460.196259 790.373962,459.998047 790.048279,459.954041 
	C790.048279,459.954041 790.202026,459.940216 790.011658,459.394745 
M461.106537,703.936035 
	C461.106537,703.936035 461.284790,703.900696 461.159668,703.257568 
	C460.800720,702.754211 460.441742,702.250916 460.057190,701.201477 
	C459.756866,700.786743 459.456543,700.372070 459.050934,699.416077 
	C458.828461,699.176880 458.605957,698.937683 458.430634,698.647339 
	C458.430634,698.647339 458.445374,698.579407 458.268341,697.832886 
	C457.165070,687.740784 456.061768,677.648621 454.913300,667.143005 
	C441.990906,666.484009 428.510895,665.796570 414.607300,664.965454 
	C414.607300,664.965454 414.160339,664.950439 413.694977,664.275696 
	C407.799957,663.812378 401.904907,663.348999 396.022888,662.966431 
	C396.022888,662.966431 396.100647,662.941040 395.624756,662.286926 
	C381.084808,660.229309 366.544830,658.171692 351.346436,655.976929 
	C350.898895,655.991821 350.451324,656.006714 349.300171,655.683533 
	C329.209930,652.796936 309.131805,649.822632 289.025604,647.051880 
	C273.189117,644.869568 257.021484,644.447632 242.063858,637.908203 
	C242.063858,637.908203 242.171082,637.880493 241.839432,637.346375 
	C241.242767,637.167236 240.646103,636.988098 240.053452,636.922791 
	C240.053452,636.922791 240.162430,636.889648 239.844894,636.348816 
	C239.257172,636.147888 238.669449,635.947021 238.080673,635.880859 
	C238.080673,635.880859 238.208130,635.837280 237.887650,635.286621 
	C236.941391,634.825745 235.995132,634.364807 235.025375,633.984741 
	C235.025375,633.984741 235.099106,633.944214 234.776627,633.435974 
	C234.251312,633.163147 233.725983,632.890259 233.148865,632.793396 
	C233.148865,632.793396 233.330521,632.767639 233.111755,632.241394 
	C232.766174,632.093323 232.420578,631.945312 232.075180,631.906799 
	C232.075180,631.906799 232.178268,631.869690 231.823410,631.278259 
	C230.661987,630.599182 229.500549,629.920044 227.945358,629.010742 
	C228.037766,630.748718 228.098022,631.881958 228.022903,633.937988 
	C228.058350,638.942322 228.093811,643.946655 227.967651,649.715820 
	C228.021561,650.491699 228.075470,651.267578 228.020935,652.856445 
	C228.057159,654.220947 228.093369,655.585510 227.966766,657.788208 
	C228.020447,659.205933 228.074127,660.623596 228.019592,662.765076 
	C228.055862,663.494202 228.092117,664.223267 227.966278,665.716797 
	C228.020325,666.492310 228.074387,667.267822 228.019470,668.969299 
	C228.056778,681.961731 228.094086,694.954224 227.968155,708.806702 
	C228.021545,710.552490 228.074936,712.298218 228.018723,714.902100 
	C228.055481,716.917908 228.092239,718.933655 227.966766,721.837097 
	C228.020905,724.239319 228.075058,726.641479 228.019379,729.969604 
	C228.063431,753.627258 228.107483,777.284851 227.992355,801.631836 
	C228.134857,802.773254 228.277344,803.914734 228.624863,805.826416 
	C229.033798,807.278687 229.442719,808.731018 229.818878,810.035034 
	C229.818878,810.035034 229.681992,810.100708 229.750870,810.820496 
	C229.898438,811.524292 230.045990,812.228088 230.243286,813.662781 
	C235.541946,829.945007 245.230865,842.482910 261.720612,850.136963 
	C269.566132,851.762695 277.409058,854.792175 285.257599,854.806641 
	C436.674713,855.085144 588.092529,855.057129 739.509888,854.842529 
	C745.714844,854.833740 751.916443,852.386536 758.037476,851.058289 
	C758.037476,851.058289 758.042114,851.141968 758.684937,851.050537 
	C759.108948,850.983093 759.532959,850.915710 760.663452,850.792725 
	C778.860901,842.751404 790.838379,829.360657 796.013672,809.120300 
	C796.343445,806.176819 796.957703,803.233643 796.960754,800.289795 
	C797.018005,744.707336 797.004700,689.124756 796.993530,633.542236 
	C796.993286,632.155884 796.850098,630.769531 796.697937,628.012756 
	C795.175171,629.920776 794.453857,630.824585 793.872375,631.716797 
	C793.872375,631.716797 793.791260,631.602417 793.179749,631.722778 
	C792.732361,632.111938 792.284973,632.501099 791.934937,632.919128 
	C791.934937,632.919128 791.931458,632.817566 791.398438,632.972717 
	C791.153564,633.212341 790.908752,633.452026 790.790649,633.618652 
	C790.790649,633.618652 790.667786,633.539246 790.099915,633.699219 
	C789.681702,634.099609 789.263489,634.500000 788.947693,634.930542 
	C788.947693,634.930542 788.950806,634.823853 788.343567,634.932861 
	C787.858276,635.266785 787.372925,635.600647 786.963013,635.963928 
	C786.963013,635.963928 786.961487,635.883057 786.412170,635.986938 
	C786.163452,636.230835 785.914734,636.474792 785.810303,636.667542 
	C785.810303,636.667542 785.694641,636.567200 784.996338,636.766235 
	C778.953613,638.864929 773.059265,641.843567 766.839539,642.892822 
	C749.976990,645.737610 732.976440,647.763916 715.186157,650.065125 
	C701.531555,652.241455 687.899170,654.571228 674.216492,656.553772 
	C658.592896,658.817444 642.954041,661.037048 627.267334,662.787415 
	C611.198059,664.580566 595.062744,665.782837 578.097473,667.182617 
	C575.399292,667.465210 572.701111,667.747803 569.311157,668.102844 
	C569.311157,676.058655 569.311157,683.510742 568.963379,691.541443 
	C566.995728,699.191284 563.240723,705.737488 556.469299,711.004578 
	C555.662354,711.676025 554.855408,712.347473 554.015930,712.990295 
	C554.015930,712.990295 554.012939,713.033508 553.283813,713.169250 
	C546.765503,714.621094 540.298218,716.949219 533.717651,717.332275 
	C521.994873,718.014771 510.192841,717.826416 498.444763,717.411987 
	C490.615509,717.135803 482.822357,715.835999 474.589600,714.501221 
	C473.416138,713.957947 472.242676,713.414612 471.041016,712.959961 
	C471.041016,712.959961 471.125793,712.921570 470.800995,712.387512 
	C469.920563,711.846436 469.040131,711.305298 468.099152,710.884094 
	C468.099152,710.884094 468.232208,710.902039 468.026276,710.360291 
	C467.709320,710.148499 467.392334,709.936768 466.864563,709.225342 
	C466.295502,708.800598 465.726471,708.375854 464.888916,707.400940 
	C464.278503,706.872803 463.668060,706.344666 462.952911,705.385376 
	C462.795868,705.098633 462.554016,704.948547 461.998444,704.411255 
	C461.701569,704.192261 461.404724,703.973267 461.106537,703.936035 
M484.057709,688.861755 
	C485.348907,689.225769 486.635529,689.884399 487.932037,689.904419 
	C494.748138,690.009277 501.566742,689.952332 508.384460,689.952148 
	C519.473328,689.951904 530.562134,689.952087 541.741089,689.952087 
	C541.741089,666.798828 541.741089,644.125366 541.741089,621.112854 
	C523.014954,621.112854 504.588013,621.092896 486.161804,621.192383 
	C485.487152,621.195984 484.818848,622.370361 484.020020,623.928711 
	C484.061127,645.286194 484.102234,666.643616 484.057709,688.861755 
z"/>
<path fill="#F5701A" opacity="1.000000" stroke="none" 
	d="
M560.823181,604.039795 
	C560.271423,603.573303 559.719666,603.106812 558.960754,602.133057 
	C558.457458,601.426208 558.161194,601.226807 557.864990,601.027344 
	C557.864990,601.027344 557.963501,601.038635 557.931030,600.730957 
	C556.155640,599.418701 554.412720,598.414124 552.669800,597.409546 
	C552.669800,597.409546 552.706238,597.265442 552.664917,596.951355 
	C547.472900,595.093933 542.362305,592.400757 537.164124,592.219543 
	C520.581604,591.641479 503.966187,591.949219 487.364563,592.067322 
	C485.767090,592.078674 484.177185,593.151001 482.583771,593.730835 
	C473.894379,595.279358 466.926361,599.580811 461.083435,606.932129 
	C459.995239,608.142395 459.578094,609.175476 459.160950,610.208496 
	C459.160950,610.208496 459.118683,610.079163 458.877808,610.206055 
	C458.461304,610.942688 458.285645,611.552490 458.109985,612.162231 
	C458.109985,612.162231 458.079285,612.045837 457.806671,612.215454 
	C452.641571,620.852173 454.442230,630.367737 453.824646,640.136292 
	C448.581726,639.032532 444.016663,637.705750 439.361206,637.180786 
	C433.041412,636.468201 426.618591,636.667664 420.299500,635.950928 
	C401.526642,633.821777 382.760529,631.602173 364.037109,629.081116 
	C354.423462,627.786743 344.943024,625.518127 335.336914,624.149109 
	C321.783813,622.217590 308.185333,620.570923 294.574036,619.100525 
	C289.773285,618.581909 284.877899,618.939392 280.025726,618.896790 
	C265.618011,617.171570 250.855347,616.597290 238.899994,606.672607 
	C227.946014,597.579224 221.526794,586.000610 220.360779,571.052124 
	C220.796448,569.677002 220.983139,569.028015 220.983627,568.378967 
	C221.000092,546.190369 221.011948,524.001770 220.965744,501.813232 
	C220.963135,500.562378 220.461990,499.312561 220.192856,498.062256 
	C220.631775,474.828094 236.608002,452.504425 258.403015,445.831360 
	C260.103699,445.621155 261.049164,445.305939 262.418091,444.990723 
	C272.568756,444.332214 282.289368,443.257172 292.024506,443.103638 
	C311.150269,442.801941 330.284271,443.044098 349.414459,442.961609 
	C351.278748,442.953552 353.139984,442.250610 355.002655,441.870209 
	C355.002655,441.870209 354.976105,442.011200 355.242554,441.739197 
	C356.007477,433.473267 356.806427,425.484283 356.938477,417.484344 
	C357.173676,403.233398 356.997498,388.975800 357.016388,374.720978 
	C357.018738,372.956970 357.161621,371.193146 357.244476,369.313232 
	C359.219482,369.141022 360.689514,369.012817 362.159546,368.884644 
	C362.159546,368.884613 362.063477,368.908020 362.148926,369.158752 
	C363.148346,369.643066 364.062317,369.876617 364.976318,370.110168 
	C391.863617,382.778290 418.750916,395.446411 445.877014,408.734863 
	C450.506653,412.146271 454.425262,416.012970 460.241608,415.557343 
	C460.241608,415.557343 460.317444,415.495544 460.358521,415.847961 
	C461.019501,416.298096 461.639435,416.395752 462.259369,416.493408 
	C462.259369,416.493439 462.330536,416.531799 462.363098,416.885193 
	C466.684662,419.029724 470.973633,420.820862 475.262604,422.612030 
	C475.262604,422.612030 475.277557,422.567535 475.312317,422.953705 
	C476.945709,423.861511 478.544342,424.383179 480.142975,424.904846 
	C480.142975,424.904816 480.053528,424.931580 480.169189,425.147736 
	C480.635101,425.439880 480.985352,425.515869 481.335632,425.591858 
	C481.335632,425.591827 481.308868,425.528442 481.353027,425.895721 
	C484.355896,427.409973 487.314575,428.556946 490.273254,429.703949 
	C490.273254,429.703949 490.140350,429.753052 490.253479,430.042450 
	C504.814148,438.658936 519.616760,437.337891 534.524414,431.849487 
	C535.092590,431.640289 535.264526,430.354706 535.621094,429.570679 
	C535.621094,429.570679 535.705994,429.584473 536.088867,429.711578 
	C538.225403,428.752106 539.979004,427.665558 541.732666,426.578979 
	C541.732666,426.579010 541.865906,426.642822 542.173096,426.762268 
	C543.554077,426.106201 544.627991,425.330719 545.701843,424.555267 
	C545.701843,424.555267 545.804810,424.572784 546.141968,424.723267 
	C547.515442,424.089050 548.551758,423.304382 549.588074,422.519745 
	C549.588074,422.519745 549.659058,422.543945 550.031128,422.674774 
	C550.862000,422.398376 551.320801,421.991150 551.779541,421.583923 
	C551.779541,421.583923 551.852539,421.692932 552.168945,421.791382 
	C553.542236,421.107727 554.599060,420.325623 555.655945,419.543518 
	C555.655945,419.543549 555.662537,419.596436 556.028442,419.710632 
	C557.252502,419.183289 558.110779,418.541718 558.969055,417.900146 
	C558.969055,417.900177 558.974304,417.978210 559.306946,417.973083 
	C560.345520,417.498901 561.051453,417.029816 561.757385,416.560699 
	C561.757385,416.560699 561.884460,416.677368 562.186523,416.774353 
	C564.964905,415.508728 567.441345,414.146057 569.917786,412.783447 
	C569.917786,412.783447 569.930969,412.895721 570.247070,412.923584 
	C571.688721,412.241760 572.814209,411.532074 573.939697,410.822388 
	C573.939697,410.822388 573.944885,410.921600 574.292480,410.942566 
	C575.975708,410.146637 577.311340,409.329742 578.646912,408.512878 
	C578.646912,408.512878 578.714539,408.531799 579.061890,408.673218 
	C579.835388,408.386261 580.261597,407.957886 580.687744,407.529510 
	C580.687744,407.529510 580.759155,407.551331 581.132446,407.709961 
	C583.560547,406.747772 585.615356,405.626953 587.670227,404.506104 
	C587.670227,404.506134 587.739990,404.528076 588.114746,404.693726 
	C590.288513,403.817841 592.087585,402.776337 593.886658,401.734833 
	C593.886658,401.734833 593.910217,401.859711 594.188721,401.877472 
	C594.942505,401.502258 595.417786,401.109253 595.893066,400.716248 
	C595.893066,400.716217 595.907532,400.852875 596.178833,400.873962 
	C596.946045,400.526489 597.441833,400.157959 597.937683,399.789459 
	C597.937683,399.789459 597.940308,399.906372 598.263184,399.926697 
	C599.261047,399.449219 599.936096,398.951447 600.611084,398.453644 
	C600.611084,398.453644 600.746277,398.505554 600.995361,398.596985 
	C601.479004,398.409515 601.713623,398.130615 601.948181,397.851715 
	C601.948181,397.851715 601.947876,397.939758 602.236389,397.929047 
	C602.987549,397.528046 603.450195,397.137726 603.912781,396.747437 
	C603.912781,396.747406 603.921387,396.878845 604.194458,396.888062 
	C604.955261,396.523560 605.442932,396.149780 605.930664,395.776001 
	C605.930664,395.776031 605.932678,395.900543 606.207275,395.904175 
	C606.966309,395.533783 607.450745,395.159760 607.935242,394.785736 
	C607.935242,394.785736 607.937622,394.905792 608.208008,394.908752 
	C608.975220,394.565247 609.471985,394.218811 609.968811,393.872406 
	C609.968811,393.872406 609.962036,393.955444 610.247131,393.937317 
	C611.002319,393.548157 611.472473,393.177155 611.942627,392.806152 
	C611.942627,392.806152 611.941589,392.919128 612.219238,392.915222 
	C612.976807,392.537933 613.456787,392.164490 613.936768,391.791077 
	C613.936768,391.791077 613.938171,391.909882 614.212280,391.906860 
	C614.972290,391.540710 615.458252,391.177521 615.944214,390.814331 
	C615.944214,390.814331 615.942322,390.922821 616.223816,390.915070 
	C616.975220,390.521790 617.445129,390.136292 617.915100,389.750793 
	C617.915100,389.750793 617.922424,389.881683 618.199097,389.889038 
	C618.948181,389.501953 619.420654,389.107574 619.893127,388.713196 
	C619.893127,388.713196 619.907593,388.853027 620.180176,388.870850 
	C620.939697,388.507080 621.426514,388.125488 621.913330,387.743896 
	C621.913391,387.743927 621.920532,387.876129 622.232178,387.907654 
	C623.665344,387.214172 624.786804,386.489136 625.908264,385.764099 
	C625.908264,385.764099 625.922974,385.883728 626.199463,385.896667 
	C626.962280,385.535461 627.448669,385.161285 627.935059,384.787109 
	C627.935059,384.787140 627.937256,384.906921 628.215698,384.907166 
	C628.965515,384.516876 629.436951,384.126404 629.908325,383.735901 
	C629.908325,383.735901 629.920410,383.869659 630.188354,383.882568 
	C630.956360,383.543549 631.456360,383.191650 631.956360,382.839722 
	C631.956360,382.839722 631.952881,382.937286 632.229980,382.928711 
	C632.993408,382.568237 633.479797,382.216339 633.966187,381.864441 
	C633.966187,381.864471 633.960327,381.949524 634.291748,381.955841 
	C635.300171,381.473572 635.977173,380.984985 636.654236,380.496399 
	C636.654236,380.496399 636.776428,380.564270 637.006958,380.628906 
	C637.475464,380.415802 637.713562,380.138062 637.951599,379.860321 
	C637.951599,379.860321 637.951355,379.945190 638.263916,379.923676 
	C639.113647,379.494110 639.650818,379.086029 640.187988,378.677948 
	C647.260620,374.902466 654.333252,371.126953 661.965576,367.507385 
	C663.975525,368.096924 665.425781,368.530579 666.875977,368.964233 
	C666.927429,371.034973 666.978821,373.105743 666.671936,375.918030 
	C666.219910,397.520721 666.119263,418.381836 666.068298,439.243073 
	C666.066895,439.816986 666.598877,440.392212 666.882202,440.966858 
	C667.096863,441.271759 667.311523,441.576691 668.087891,442.280212 
	C675.416321,442.789368 682.183533,442.981750 688.949707,442.952301 
	C690.623169,442.945007 692.293457,442.217651 693.965210,441.821289 
	C693.965210,441.821289 693.966980,441.371613 694.324402,440.857666 
	C694.785950,439.693970 694.980713,439.044281 694.981079,438.394470 
	C694.997803,407.179199 695.007996,375.963898 694.961975,344.748688 
	C694.960144,343.509186 694.405396,342.270508 694.108337,341.031433 
	C694.108337,341.031433 693.933105,340.664337 693.807373,340.162872 
	C693.087585,339.459534 692.493530,339.257660 691.899475,339.055786 
	C691.899475,339.055786 691.971191,339.025238 691.839661,338.733459 
	C688.745483,337.338837 685.782898,336.235962 682.820251,335.133118 
	C682.820251,335.133118 682.934143,335.108826 682.824951,334.817200 
	C678.391418,332.815308 674.067139,331.105072 669.742798,329.394836 
	C669.742798,329.394836 669.862915,329.443787 669.727539,329.082825 
	C668.670349,328.523651 667.748535,328.325378 666.826721,328.127106 
	C666.826721,328.127106 666.936340,328.102295 666.827576,327.809937 
	C663.764954,326.376709 660.811035,325.235840 657.857178,324.094971 
	C657.857178,324.094971 657.949219,324.071289 657.835205,323.774414 
	C655.064941,322.456177 652.408813,321.434784 649.752625,320.413391 
	C649.752625,320.413422 649.714478,320.448517 649.664917,320.091797 
	C645.687256,318.196777 641.759277,316.658478 637.831238,315.120178 
	C637.831238,315.120178 637.939514,315.095123 637.821167,314.794434 
	C636.376343,314.107880 635.049744,313.722015 633.723206,313.336121 
	C633.723206,313.336121 633.845642,313.282318 633.736572,312.981659 
	C631.331970,311.908264 629.036377,311.135529 626.740845,310.362823 
	C626.740845,310.362823 626.940430,310.338623 626.775757,310.011963 
	C625.013000,309.168976 623.414856,308.652679 621.816711,308.136383 
	C621.816711,308.136383 621.915527,308.118927 621.875732,307.971069 
	C621.561951,307.850586 621.287903,307.877991 621.013916,307.905396 
	C588.882751,294.227386 556.762695,280.523346 524.609680,266.896881 
	C519.217957,264.611877 513.673706,263.043793 507.711060,264.942627 
	C503.024841,266.434998 500.008392,270.322357 499.416870,276.044983 
	C498.891754,281.124634 501.474213,286.522186 505.735809,288.454071 
	C537.729309,302.957550 569.747498,317.406616 601.772766,331.839905 
	C612.042542,336.468384 622.377380,340.952942 632.625244,345.628876 
	C633.953430,346.234894 634.937073,347.596100 636.080322,348.607483 
	C634.868591,349.575836 633.786011,350.807739 632.426270,351.474060 
	C596.555908,369.052948 560.613403,386.485199 524.798279,404.175568 
	C517.309692,407.874420 510.280884,407.842163 502.931824,404.275604 
	C479.217255,392.766571 455.554596,381.145874 431.718506,369.893127 
	C378.665894,344.847565 325.538361,319.960358 272.387024,295.124908 
	C266.516754,292.381958 261.511810,289.288452 260.974609,282.110199 
	C260.549255,276.426117 262.693726,271.926361 267.820465,269.314606 
	C283.932770,261.106354 300.064667,252.933334 316.281036,244.933319 
	C370.270905,218.298569 424.300995,191.745285 478.780029,165.285156 
	C479.458282,165.201248 479.672119,164.992981 479.885986,164.784714 
	C479.885986,164.784714 479.913391,164.883118 480.200256,164.894318 
	C480.959747,164.514359 481.432404,164.123215 481.905060,163.732086 
	C481.905060,163.732086 481.914886,163.868210 482.187622,163.882996 
	C482.948242,163.519119 483.436157,163.140442 483.924072,162.761765 
	C483.924072,162.761765 483.928436,162.890213 484.259399,162.916412 
	C488.969757,161.003998 493.420380,159.209747 497.710968,157.091309 
	C503.479401,154.243164 509.397644,152.363861 515.921326,153.011368 
	C518.363098,153.253754 520.808960,153.455948 523.252930,153.676453 
	C523.252930,153.676468 523.137634,153.614243 523.259033,153.951599 
	C525.005798,154.775482 526.631104,155.261993 528.256470,155.748505 
	C528.256470,155.748505 528.114624,155.786072 528.232239,156.047607 
	C528.977417,156.475052 529.605042,156.640961 530.232605,156.806854 
	C530.232605,156.806854 530.103333,156.840027 530.189575,157.122696 
	C532.512451,158.284439 534.749207,159.163528 536.985901,160.042603 
	C537.277649,159.971466 537.553833,160.010498 538.052795,160.662064 
	C538.908203,161.412964 539.525391,161.661484 540.142517,161.910019 
	C540.142517,161.910019 540.040161,161.935410 540.194153,162.178680 
	C540.972717,162.553848 541.597229,162.685715 542.221802,162.817581 
	C542.221802,162.817581 542.095520,162.850433 542.195312,163.147583 
	C543.308044,163.706924 544.321106,163.969116 545.334106,164.231323 
	C545.334106,164.231323 545.419617,164.348007 545.436890,164.768402 
	C546.372131,165.401917 547.290161,165.615051 548.208130,165.828201 
	C548.208130,165.828201 548.078064,165.866470 548.210815,166.114471 
	C548.970520,166.513107 549.597412,166.663757 550.224304,166.814392 
	C550.224304,166.814407 550.091980,166.860336 550.215088,167.105896 
	C550.956726,167.519836 551.575195,167.688217 552.193665,167.856598 
	C552.193665,167.856598 552.069824,167.895355 552.200073,168.135101 
	C552.939453,168.548126 553.548584,168.721420 554.157715,168.894714 
	C554.157715,168.894714 554.051453,168.927551 554.195984,169.168228 
	C554.958862,169.556625 555.577148,169.704346 556.195496,169.852066 
	C556.195496,169.852066 556.069275,169.888626 556.203491,170.132263 
	C556.959167,170.532639 557.580627,170.689362 558.202148,170.846100 
	C558.202148,170.846100 558.074524,170.886810 558.207520,171.129883 
	C558.963196,171.527283 559.585938,171.681610 560.208618,171.835938 
	C560.208618,171.835938 560.078796,171.876389 560.206909,172.119812 
	C560.951843,172.530350 561.568665,172.697464 562.185425,172.864594 
	C562.185425,172.864594 562.066040,172.902176 562.199341,173.143982 
	C562.947998,173.548080 563.563354,173.710373 564.178772,173.872650 
	C564.178772,173.872665 564.061584,173.908752 564.199768,174.150986 
	C564.958313,174.544220 565.578674,174.695221 566.199036,174.846207 
	C566.199036,174.846207 566.073486,174.884720 566.207520,175.131042 
	C566.968018,175.524841 567.594482,175.672348 568.220947,175.819839 
	C568.220947,175.819839 568.087463,175.863632 568.213013,176.110321 
	C568.961548,176.517471 569.584534,176.677948 570.207458,176.838409 
	C570.207458,176.838409 570.078430,176.879547 570.211426,177.123993 
	C570.968140,177.521545 571.591858,177.674652 572.215515,177.827759 
	C572.215515,177.827759 572.090698,177.859009 572.186401,178.147369 
	C575.605774,179.816406 578.929382,181.197098 582.252991,182.577789 
	C582.252991,182.577789 582.338806,182.501083 582.326721,182.785110 
	C582.867188,183.089340 583.419678,183.109543 583.972229,183.129761 
	C610.569336,196.218948 637.176208,209.288162 663.760925,222.402542 
	C694.388733,237.511475 724.960510,252.734604 755.646545,267.724121 
	C761.258484,270.465454 764.635681,274.376587 765.016663,280.572662 
	C765.400269,286.810577 761.922852,290.844635 756.783203,293.658844 
	C747.477112,298.754333 738.126953,303.769379 728.131958,309.177917 
	C727.310608,310.673401 727.015198,311.808929 727.014526,312.944641 
	C726.990906,354.202515 726.986023,395.460358 727.030945,436.718201 
	C727.032471,438.131165 727.570679,439.543518 727.858704,440.956177 
	C728.074463,441.271271 728.290161,441.586365 729.079651,442.292847 
	C740.483032,443.095001 751.312683,443.505798 762.142273,443.916626 
	C762.142273,443.916626 762.021423,443.933533 762.203125,444.207336 
	C764.626587,444.969391 766.868347,445.457672 769.110107,445.945923 
	C769.110107,445.945892 769.023071,445.966644 769.179810,446.211548 
	C769.966248,446.581268 770.595947,446.706024 771.225586,446.830780 
	C771.225586,446.830780 771.073364,446.853638 771.183472,447.142883 
	C772.609375,447.888428 773.925110,448.344788 775.240845,448.801117 
	C775.240845,448.801117 775.091370,448.854950 775.209961,449.094910 
	C775.947144,449.518982 776.565674,449.703064 777.184265,449.887146 
	C777.184265,449.887146 777.051086,449.928345 777.186157,450.156677 
	C777.927856,450.563782 778.534424,450.742554 779.141052,450.921356 
	C779.141052,450.921356 779.055603,450.935059 779.085083,451.256592 
	C779.871277,451.900452 780.627930,452.222778 781.384644,452.545135 
	C781.384644,452.545135 781.338440,452.686493 781.346802,452.976929 
	C781.978821,453.458954 782.602539,453.650513 783.226196,453.842072 
	C783.226196,453.842072 783.087891,453.885895 783.181091,454.098328 
	C783.617371,454.475281 783.960510,454.639771 784.303589,454.804260 
	C784.303589,454.804260 784.119385,454.776123 784.224365,455.021912 
	C784.914673,455.499268 785.500000,455.730835 786.085327,455.962402 
	C786.085327,455.962402 786.017761,455.987823 786.150513,456.205200 
	C786.619446,456.592285 786.955566,456.762054 787.291748,456.931793 
	C787.616028,456.915863 787.847107,457.054871 788.121094,457.830322 
	C788.569519,458.524567 788.881897,458.737305 789.194214,458.950043 
	C789.194214,458.950043 789.039612,458.953217 789.147339,459.146545 
	C789.570740,459.540009 789.886414,459.740112 790.202026,459.940216 
	C790.202026,459.940216 790.048279,459.954041 790.151611,460.147339 
	C790.571106,460.540039 790.887329,460.739441 791.203491,460.938843 
	C791.203491,460.938843 791.050720,460.961212 791.156494,461.153748 
	C791.581970,461.546631 791.901733,461.746948 792.221436,461.947296 
	C792.554443,461.937531 792.802246,462.078033 793.014893,462.931000 
	C793.498535,463.942963 793.932007,464.392792 794.365540,464.842590 
	C794.365540,464.842590 794.185120,464.950897 794.244141,465.140503 
	C794.644531,465.527679 794.985901,465.725189 795.327332,465.922729 
	C798.532166,472.376953 801.736938,478.831177 804.639771,485.932068 
	C804.564514,491.338074 804.972900,496.096832 804.987305,500.856812 
	C805.055603,523.464111 804.998840,546.071838 805.050415,568.679260 
	C805.054382,570.432068 805.550781,572.183777 805.818298,573.935974 
	C800.969421,599.566895 783.549194,614.460693 757.960876,617.320984 
	C732.485046,620.168701 707.214355,624.820374 681.823853,628.473694 
	C664.809875,630.921875 647.762329,633.163025 630.695374,635.209595 
	C615.751831,637.001587 600.760132,638.393311 585.069641,639.636536 
	C580.104187,639.311157 575.858826,639.311157 571.003540,639.311157 
	C571.003540,636.641663 571.160217,633.844299 570.961243,631.072449 
	C570.744202,628.049500 570.197449,625.050171 569.794434,622.040588 
	C569.527588,621.546387 569.260803,621.052124 569.277588,620.096802 
	C569.316101,619.103149 569.070984,618.570679 568.825867,618.038208 
	C568.541382,617.557312 568.256897,617.076477 568.251282,616.111816 
	C567.916077,614.452271 567.301880,613.276611 566.687683,612.100952 
	C566.687683,612.100952 566.851990,612.097534 566.865723,611.824829 
	C566.456848,611.091675 566.034302,610.631165 565.611694,610.170715 
	C565.611694,610.170715 565.749939,610.111511 565.807129,609.837158 
	C565.441895,609.105713 565.019409,608.648621 564.596924,608.191589 
	C564.596924,608.191589 564.784729,608.097961 564.751343,607.905151 
	C564.392395,607.505493 564.066772,607.298645 563.741150,607.091797 
	C563.741150,607.091736 563.913513,607.053833 563.827515,606.869019 
	C563.436646,606.469971 563.131836,606.255737 562.826965,606.041565 
	C562.826965,606.041565 562.964539,606.030823 562.858643,605.838623 
	C562.448059,605.444458 562.143433,605.242615 561.838806,605.040771 
	C561.838806,605.040771 561.967773,605.028809 561.859375,604.832520 
	C561.441772,604.437378 561.132446,604.238586 560.823181,604.039795 
z"/>
<path fill="#F5701A" opacity="1.000000" stroke="none" 
	d="
M414.160339,664.950439 
	C414.160339,664.950439 414.607300,664.965454 415.110168,665.310730 
	C428.251465,666.770142 440.889893,667.884277 454.003174,669.040344 
	C454.003174,674.845947 453.427124,680.057861 454.172272,685.073425 
	C454.857422,689.685242 456.964630,694.085815 458.445374,698.579407 
	C458.445374,698.579407 458.430634,698.647339 458.375793,698.955383 
	C458.599396,699.494690 458.877808,699.726013 459.156189,699.957336 
	C459.456543,700.372070 459.756866,700.786743 460.064392,701.819519 
	C460.476013,702.925293 460.880402,703.412964 461.284790,703.900696 
	C461.284790,703.900696 461.106537,703.936035 461.191254,704.126160 
	C461.593109,704.522583 461.910217,704.728821 462.227356,704.935120 
	C462.554016,704.948547 462.795868,705.098633 463.023560,705.952637 
	C463.781952,706.996948 464.469696,707.473999 465.157471,707.951050 
	C465.726471,708.375854 466.295502,708.800598 467.061462,709.756897 
	C467.582977,710.492981 467.907593,710.697510 468.232208,710.902039 
	C468.232208,710.902039 468.099152,710.884094 468.117950,711.199341 
	C469.133087,711.983643 470.129456,712.452576 471.125793,712.921509 
	C471.125793,712.921570 471.041016,712.959961 471.077148,713.280396 
	C472.119537,714.082275 473.125763,714.563721 474.320160,715.339966 
	C478.445496,716.753357 482.364685,718.757019 486.322998,718.837524 
	C503.717743,719.191162 521.132263,719.293701 538.520752,718.809448 
	C543.978149,718.657532 550.018799,718.056702 554.012939,713.033508 
	C554.012939,713.033508 554.015930,712.990295 554.394897,712.967651 
	C555.540833,712.228394 556.307800,711.511719 557.074707,710.795044 
	C563.240723,705.737488 566.995728,699.191284 569.547302,691.071899 
	C570.579224,683.606506 571.027222,676.610718 571.446716,670.060242 
	C574.135559,669.051819 576.545959,668.147766 578.956360,667.243774 
	C595.062744,665.782837 611.198059,664.580566 627.267334,662.787415 
	C642.954041,661.037048 658.592896,658.817444 674.216492,656.553772 
	C687.899170,654.571228 701.531555,652.241455 715.891541,650.364014 
	C718.712219,650.614746 720.845947,650.728577 722.939575,650.490112 
	C731.405457,649.525757 739.920227,648.802429 748.301758,647.333130 
	C759.130310,645.434814 769.881653,643.047729 780.584045,640.522888 
	C782.492432,640.072571 784.001282,637.928955 785.694641,636.567200 
	C785.694641,636.567200 785.810303,636.667542 786.026123,636.690308 
	C786.481812,636.436340 786.721680,636.159729 786.961487,635.883057 
	C786.961487,635.883057 786.963013,635.963928 787.248840,635.943237 
	C788.006714,635.556274 788.478760,635.190063 788.950806,634.823853 
	C788.950806,634.823853 788.947693,634.930542 789.237793,634.916504 
	C789.907837,634.448120 790.287781,633.993652 790.667725,633.539185 
	C790.667786,633.539246 790.790649,633.618652 791.019714,633.658020 
	C791.476379,633.404114 791.703918,633.110840 791.931458,632.817566 
	C791.931458,632.817566 791.934937,632.919128 792.227295,632.918457 
	C792.943542,632.479370 793.367432,632.040894 793.791260,631.602417 
	C793.791260,631.602417 793.872375,631.716797 794.215942,631.877686 
	C795.036804,633.830200 795.919861,635.619690 795.929016,637.413635 
	C796.028442,656.900269 795.990662,676.387634 795.990601,695.874756 
	C795.990601,730.018921 795.996826,764.163025 795.982422,798.307190 
	C795.980774,802.183716 795.863953,806.060181 795.800537,809.936707 
	C790.838379,829.360657 778.860901,842.751404 760.146301,850.610229 
	C759.100098,850.665771 758.571106,850.903870 758.042114,851.141968 
	C758.042114,851.141968 758.037476,851.058289 757.668579,851.041382 
	C752.391907,851.683350 747.484497,852.914673 742.576294,852.917908 
	C589.148376,853.019226 435.720428,853.004028 282.292450,852.970581 
	C279.994598,852.970093 277.681091,852.616089 275.402313,852.254211 
	C270.610016,851.493225 265.835938,850.617432 261.054382,849.788696 
	C245.230865,842.482910 235.541946,829.945007 230.445221,813.085876 
	C230.325424,811.706238 230.003708,810.903442 229.681976,810.100708 
	C229.681992,810.100708 229.818878,810.035034 229.884674,809.680054 
	C229.440262,807.902039 228.930054,806.479126 228.419830,805.056152 
	C228.277344,803.914734 228.134857,802.773254 228.343719,800.979309 
	C228.797272,799.678284 228.988266,799.029907 228.988800,798.381348 
	C229.006699,776.507812 229.020798,754.634216 228.971298,732.760803 
	C228.968491,731.521179 228.422424,730.282715 228.129196,729.043701 
	C228.075058,726.641479 228.020905,724.239319 228.309357,721.131714 
	C228.477417,718.298889 228.302872,716.171448 228.128326,714.044006 
	C228.074936,712.298218 228.021545,710.552490 228.325989,708.072144 
	C228.789536,694.977905 228.910477,682.618286 228.962784,670.258362 
	C228.965912,669.521240 228.419266,668.781738 228.128448,668.043335 
	C228.074387,667.267822 228.020325,666.492310 228.280167,665.155151 
	C228.438644,663.742798 228.283234,662.892029 228.127808,662.041321 
	C228.074127,660.623596 228.020447,659.205933 228.298859,657.137817 
	C228.463760,655.006165 228.296570,653.524780 228.129395,652.043457 
	C228.075470,651.267578 228.021561,650.491699 228.325119,649.029907 
	C228.780228,643.233398 228.877884,638.122803 229.200439,632.739807 
	C230.342987,632.268188 231.260620,632.068970 232.178268,631.869690 
	C232.178268,631.869690 232.075180,631.906799 232.179230,632.127014 
	C232.632355,632.487366 232.981445,632.627502 233.330536,632.767639 
	C233.330521,632.767639 233.148865,632.793396 233.243164,633.032471 
	C233.924667,633.495728 234.511887,633.719971 235.099106,633.944214 
	C235.099106,633.944214 235.025375,633.984741 235.070312,634.312073 
	C236.146210,635.038696 237.177170,635.437988 238.208130,635.837280 
	C238.208130,635.837280 238.080673,635.880859 238.205841,636.122681 
	C238.941498,636.539612 239.551956,636.714600 240.162430,636.889648 
	C240.162430,636.889648 240.053452,636.922791 240.194748,637.162476 
	C240.947723,637.561584 241.559402,637.721008 242.171082,637.880493 
	C242.171082,637.880493 242.063858,637.908203 242.175140,638.201782 
	C243.839081,639.370850 245.295685,640.679565 246.960587,641.048584 
	C255.308929,642.898987 263.669434,644.762695 272.104401,646.139465 
	C288.840118,648.871155 305.622131,651.322327 322.395691,653.817749 
	C330.790253,655.066711 339.203339,656.197388 347.624420,657.250916 
	C348.354828,657.342285 349.207764,656.454529 350.003784,656.021606 
	C350.451324,656.006714 350.898895,655.991821 351.759369,656.414551 
	C354.311981,657.352539 356.427185,658.044922 358.595459,658.321594 
	C371.090240,659.915833 383.597565,661.411804 396.100647,662.941040 
	C396.100647,662.941040 396.022888,662.966431 396.265564,663.245972 
	C402.392273,664.000488 408.276306,664.475464 414.160339,664.950439 
z"/>
<path fill="#F65F07" opacity="1.000000" stroke="none" 
	d="
M261.387512,849.962830 
	C265.835938,850.617432 270.610016,851.493225 275.402313,852.254211 
	C277.681091,852.616089 279.994598,852.970093 282.292450,852.970581 
	C435.720428,853.004028 589.148376,853.019226 742.576294,852.917908 
	C747.484497,852.914673 752.391907,851.683350 757.709595,851.049927 
	C751.916443,852.386536 745.714844,854.833740 739.509888,854.842529 
	C588.092529,855.057129 436.674713,855.085144 285.257599,854.806641 
	C277.409058,854.792175 269.566132,851.762695 261.387512,849.962830 
z"/>
<path fill="#F5701A" opacity="1.000000" stroke="none" 
	d="
M280.432404,618.989380 
	C284.877899,618.939392 289.773285,618.581909 294.574036,619.100525 
	C308.185333,620.570923 321.783813,622.217590 335.336914,624.149109 
	C344.943024,625.518127 354.423462,627.786743 364.037109,629.081116 
	C382.760529,631.602173 401.526642,633.821777 420.299500,635.950928 
	C426.618591,636.667664 433.041412,636.468201 439.361206,637.180786 
	C444.016663,637.705750 448.581726,639.032532 453.824646,640.136292 
	C454.442230,630.367737 452.641571,620.852173 457.866882,612.214233 
	C457.151489,621.534546 456.103302,631.025635 455.016754,640.864136 
	C396.883118,637.422180 339.073761,626.523560 280.432404,618.989380 
z"/>
<path fill="#F5701A" opacity="1.000000" stroke="none" 
	d="
M484.147583,622.999084 
	C484.818848,622.370361 485.487152,621.195984 486.161804,621.192383 
	C504.588013,621.092896 523.014954,621.112854 541.741089,621.112854 
	C541.741089,644.125366 541.741089,666.798828 541.741089,689.952087 
	C530.562134,689.952087 519.473328,689.951904 508.384460,689.952148 
	C501.566742,689.952332 494.748138,690.009277 487.932037,689.904419 
	C486.635529,689.884399 485.348907,689.225769 484.379639,688.407898 
	C485.134827,687.645020 485.568024,687.335938 486.384277,687.191895 
	C487.072937,687.488098 487.377899,687.732422 487.684204,687.734192 
	C504.498840,687.831238 521.314087,687.966919 538.127075,687.832947 
	C539.087402,687.825317 540.848694,685.603760 540.858948,684.400879 
	C541.029968,664.312073 540.980957,644.221375 540.980957,623.300293 
	C537.395386,623.537659 534.055359,623.926514 530.712830,623.949585 
	C519.220093,624.028931 507.726410,623.981201 496.233124,623.979858 
	C492.822906,623.979431 489.412659,623.972290 485.849792,623.735962 
	C485.180603,623.335510 484.664093,623.167297 484.147583,622.999084 
z"/>
<path fill="#F74D01" opacity="1.000000" stroke="none" 
	d="
M795.907104,809.528503 
	C795.863953,806.060181 795.980774,802.183716 795.982422,798.307190 
	C795.996826,764.163025 795.990601,730.018921 795.990601,695.874756 
	C795.990662,676.387634 796.028442,656.900269 795.929016,637.413635 
	C795.919861,635.619690 795.036804,633.830200 794.146057,631.883545 
	C794.453857,630.824585 795.175171,629.920776 796.697937,628.012756 
	C796.850098,630.769531 796.993286,632.155884 796.993530,633.542236 
	C797.004700,689.124756 797.018005,744.707336 796.960754,800.289795 
	C796.957703,803.233643 796.343445,806.176819 795.907104,809.528503 
z"/>
<path fill="#F5701A" opacity="1.000000" stroke="none" 
	d="
M349.651978,655.852539 
	C349.207764,656.454529 348.354828,657.342285 347.624420,657.250916 
	C339.203339,656.197388 330.790253,655.066711 322.395691,653.817749 
	C305.622131,651.322327 288.840118,648.871155 272.104401,646.139465 
	C263.669434,644.762695 255.308929,642.898987 246.960587,641.048584 
	C245.295685,640.679565 243.839081,639.370850 242.178711,638.146545 
	C257.021484,644.447632 273.189117,644.869568 289.025604,647.051880 
	C309.131805,649.822632 329.209930,652.796936 349.651978,655.852539 
z"/>
<path fill="#F54500" opacity="1.000000" stroke="none" 
	d="
M805.890747,573.524475 
	C805.550781,572.183777 805.054382,570.432068 805.050415,568.679260 
	C804.998840,546.071838 805.055603,523.464111 804.987305,500.856812 
	C804.972900,496.096832 804.564514,491.338074 804.607056,486.312256 
	C805.414795,489.967834 806.395935,493.887329 806.418701,497.812378 
	C806.552734,520.930420 806.475403,544.049683 806.428650,567.168518 
	C806.424622,569.150330 806.125244,571.131531 805.890747,573.524475 
z"/>
<path fill="#F74D01" opacity="1.000000" stroke="none" 
	d="
M553.648376,713.101379 
	C550.018799,718.056702 543.978149,718.657532 538.520752,718.809448 
	C521.132263,719.293701 503.717743,719.191162 486.322998,718.837524 
	C482.364685,718.757019 478.445496,716.753357 474.540131,715.336853 
	C474.571960,715.038879 475.013062,714.994324 475.013062,714.994324 
	C482.822357,715.835999 490.615509,717.135803 498.444763,717.411987 
	C510.192841,717.826416 521.994873,718.014771 533.717651,717.332275 
	C540.298218,716.949219 546.765503,714.621094 553.648376,713.101379 
z"/>
<path fill="#F5650F" opacity="1.000000" stroke="none" 
	d="
M361.950745,368.581360 
	C360.689514,369.012817 359.219482,369.141022 357.244476,369.313232 
	C357.161621,371.193146 357.018738,372.956970 357.016388,374.720978 
	C356.997498,388.975800 357.173676,403.233398 356.938477,417.484344 
	C356.806427,425.484283 356.007477,433.473267 355.172180,441.725281 
	C354.919373,418.830505 354.986145,395.677521 355.100037,372.524750 
	C355.127045,367.034912 356.597778,366.143188 361.950745,368.581360 
z"/>
<path fill="#F74D01" opacity="1.000000" stroke="none" 
	d="
M727.921143,440.493958 
	C727.570679,439.543518 727.032471,438.131165 727.030945,436.718201 
	C726.986023,395.460358 726.990906,354.202515 727.014526,312.944641 
	C727.015198,311.808929 727.310608,310.673401 727.802124,309.279510 
	C728.091614,348.041870 728.047668,387.062531 728.003296,426.083160 
	C727.997986,430.732666 727.990234,435.382202 727.921143,440.493958 
z"/>
<path fill="#F5650F" opacity="1.000000" stroke="none" 
	d="
M486.001221,687.026855 
	C485.568024,687.335938 485.134827,687.645020 484.422455,687.977539 
	C484.102234,666.643616 484.061127,645.286194 484.083801,623.463867 
	C484.664093,623.167297 485.180603,623.335510 485.849487,624.208252 
	C486.001617,645.617493 486.001404,666.322205 486.001221,687.026855 
z"/>
<path fill="#F5701A" opacity="1.000000" stroke="none" 
	d="
M785.345459,636.666748 
	C784.001282,637.928955 782.492432,640.072571 780.584045,640.522888 
	C769.881653,643.047729 759.130310,645.434814 748.301758,647.333130 
	C739.920227,648.802429 731.405457,649.525757 722.939575,650.490112 
	C720.845947,650.728577 718.712219,650.614746 716.313721,650.388794 
	C732.976440,647.763916 749.976990,645.737610 766.839539,642.892822 
	C773.059265,641.843567 778.953613,638.864929 785.345459,636.666748 
z"/>
<path fill="#F5701A" opacity="1.000000" stroke="none" 
	d="
M458.356873,698.206177 
	C456.964630,694.085815 454.857422,689.685242 454.172272,685.073425 
	C453.427124,680.057861 454.003174,674.845947 454.003174,669.040344 
	C440.889893,667.884277 428.251465,666.770142 415.321960,665.382568 
	C428.510895,665.796570 441.990906,666.484009 454.913300,667.143005 
	C456.061768,677.648621 457.165070,687.740784 458.356873,698.206177 
z"/>
<path fill="#F54500" opacity="1.000000" stroke="none" 
	d="
M694.059937,341.496155 
	C694.405396,342.270508 694.960144,343.509186 694.961975,344.748688 
	C695.007996,375.963898 694.997803,407.179199 694.981079,438.394470 
	C694.980713,439.044281 694.785950,439.693970 694.403809,440.647339 
	C694.087708,407.954224 694.049622,374.957550 694.059937,341.496155 
z"/>
<path fill="#F74D01" opacity="1.000000" stroke="none" 
	d="
M354.534912,441.928558 
	C353.139984,442.250610 351.278748,442.953552 349.414459,442.961609 
	C330.284271,443.044098 311.150269,442.801941 292.024506,443.103638 
	C282.289368,443.257172 272.568756,444.332214 262.421143,444.995697 
	C262.000732,445.000702 262.007568,445.008606 262.015594,444.807526 
	C262.023621,444.606445 262.035400,444.204132 262.035400,444.204102 
	C268.258667,443.468140 274.476074,442.160645 280.706207,442.097076 
	C305.157684,441.847473 329.613159,441.990021 354.534912,441.928558 
z"/>
<path fill="#F74D01" opacity="1.000000" stroke="none" 
	d="
M482.642639,593.747437 
	C484.177185,593.151001 485.767090,592.078674 487.364563,592.067322 
	C503.966187,591.949219 520.581604,591.641479 537.164124,592.219543 
	C542.362305,592.400757 547.472900,595.093933 552.729248,596.988525 
	C539.962402,591.817383 526.345154,593.133057 512.891907,593.032288 
	C503.623291,592.962891 494.353546,593.041443 484.260162,593.186401 
	C483.231689,593.472046 483.027405,593.625183 482.823120,593.778259 
	C482.823120,593.778259 482.701538,593.764038 482.642639,593.747437 
z"/>
<path fill="#F5701A" opacity="1.000000" stroke="none" 
	d="
M395.862701,662.613953 
	C383.597565,661.411804 371.090240,659.915833 358.595459,658.321594 
	C356.427185,658.044922 354.311981,657.352539 352.088593,656.483032 
	C366.544830,658.171692 381.084808,660.229309 395.862701,662.613953 
z"/>
<path fill="#F5701A" opacity="1.000000" stroke="none" 
	d="
M535.262512,429.660278 
	C535.264526,430.354706 535.092590,431.640289 534.524414,431.849487 
	C519.616760,437.337891 504.814148,438.658936 490.272369,429.974182 
	C494.850708,431.077271 499.476349,432.716187 504.205383,433.962738 
	C514.984619,436.804199 525.026855,433.760315 535.262512,429.660278 
z"/>
<path fill="#F54500" opacity="1.000000" stroke="none" 
	d="
M220.110641,498.520630 
	C220.461990,499.312561 220.963135,500.562378 220.965744,501.813232 
	C221.011948,524.001770 221.000092,546.190369 220.983627,568.378967 
	C220.983139,569.028015 220.796448,569.677002 220.425110,570.633789 
	C220.111893,546.953979 220.070160,522.966492 220.110641,498.520630 
z"/>
<path fill="#F74D01" opacity="1.000000" stroke="none" 
	d="
M228.074280,729.506653 
	C228.422424,730.282715 228.968491,731.521179 228.971298,732.760803 
	C229.020798,754.634216 229.006699,776.507812 228.988800,798.381348 
	C228.988266,799.029907 228.797272,799.678284 228.423309,800.634644 
	C228.107483,777.284851 228.063431,753.627258 228.074280,729.506653 
z"/>
<path fill="#F5701A" opacity="1.000000" stroke="none" 
	d="
M523.020020,153.390671 
	C520.808960,153.455948 518.363098,153.253754 515.921326,153.011368 
	C509.397644,152.363861 503.479401,154.243164 497.710968,157.091309 
	C493.420380,159.209747 488.969757,161.003998 484.197754,162.898224 
	C493.340332,157.661880 502.441864,151.213104 514.017700,151.656235 
	C516.955017,151.768661 519.864746,152.602524 523.020020,153.390671 
z"/>
<path fill="#F74D01" opacity="1.000000" stroke="none" 
	d="
M666.935608,440.502808 
	C666.598877,440.392212 666.066895,439.816986 666.068298,439.243073 
	C666.119263,418.381836 666.219910,397.520721 666.590942,376.355469 
	C666.908508,397.380493 666.948792,418.709656 666.935608,440.502808 
z"/>
<path fill="#F74D01" opacity="1.000000" stroke="none" 
	d="
M228.073959,668.506348 
	C228.419266,668.781738 228.965912,669.521240 228.962784,670.258362 
	C228.910477,682.618286 228.789536,694.977905 228.407623,707.642090 
	C228.094086,694.954224 228.056778,681.961731 228.073959,668.506348 
z"/>
<path fill="#F74D01" opacity="1.000000" stroke="none" 
	d="
M569.837769,622.504761 
	C570.197449,625.050171 570.744202,628.049500 570.961243,631.072449 
	C571.160217,633.844299 571.003540,636.641663 571.003540,639.311157 
	C575.858826,639.311157 580.104187,639.311157 584.647095,639.584839 
	C580.202698,640.327454 575.460815,640.796326 569.881165,641.348083 
	C569.881165,634.992920 569.881165,628.980896 569.837769,622.504761 
z"/>
<path fill="#F74D01" opacity="1.000000" stroke="none" 
	d="
M761.874878,443.620361 
	C751.312683,443.505798 740.483032,443.095001 729.349365,442.405853 
	C739.899353,442.526367 750.753418,442.925232 761.874878,443.620361 
z"/>
<path fill="#F54500" opacity="1.000000" stroke="none" 
	d="
M578.526917,667.213196 
	C576.545959,668.147766 574.135559,669.051819 571.446716,670.060242 
	C571.027222,676.610718 570.579224,683.606506 569.721191,690.782593 
	C569.311157,683.510742 569.311157,676.058655 569.311157,668.102844 
	C572.701111,667.747803 575.399292,667.465210 578.526917,667.213196 
z"/>
<path fill="#F5701A" opacity="1.000000" stroke="none" 
	d="
M460.050323,415.286987 
	C454.425262,416.012970 450.506653,412.146271 446.114136,408.978455 
	C450.694672,410.740021 455.276855,412.878357 460.050323,415.286987 
z"/>
<path fill="#F5701A" opacity="1.000000" stroke="none" 
	d="
M413.927673,664.613037 
	C408.276306,664.475464 402.392273,664.000488 396.259064,663.205566 
	C401.904907,663.348999 407.799957,663.812378 413.927673,664.613037 
z"/>
<path fill="#F74D01" opacity="1.000000" stroke="none" 
	d="
M693.504578,441.899597 
	C692.293457,442.217651 690.623169,442.945007 688.949707,442.952301 
	C682.183533,442.981750 675.416321,442.789368 668.346008,442.399445 
	C676.376282,442.072693 684.710144,442.025330 693.504578,441.899597 
z"/>
<path fill="#F5701A" opacity="1.000000" stroke="none" 
	d="
M475.052887,422.349609 
	C470.973633,420.820862 466.684662,419.029724 462.400452,416.869751 
	C466.551208,418.363007 470.697205,420.225128 475.052887,422.349609 
z"/>
<path fill="#F5701A" opacity="1.000000" stroke="none" 
	d="
M669.956909,329.657410 
	C674.067139,331.105072 678.391418,332.815308 682.817505,334.874908 
	C678.669861,333.456177 674.420471,331.688080 669.956909,329.657410 
z"/>
<path fill="#F5701A" opacity="1.000000" stroke="none" 
	d="
M638.029785,315.415497 
	C641.759277,316.658478 645.687256,318.196777 649.641968,320.103943 
	C645.855225,318.885468 642.041748,317.298157 638.029785,315.415497 
z"/>
<path fill="#F5701A" opacity="1.000000" stroke="none" 
	d="
M582.044434,182.320129 
	C578.929382,181.197098 575.605774,179.816406 572.196777,178.083847 
	C575.352844,179.175476 578.594421,180.618973 582.044434,182.320129 
z"/>
<path fill="#F74D01" opacity="1.000000" stroke="none" 
	d="
M228.975525,633.012146 
	C228.877884,638.122803 228.780228,643.233398 228.405930,648.647522 
	C228.093811,643.946655 228.058350,638.942322 228.294891,633.473633 
	C228.566879,633.009338 228.975525,633.012146 228.975525,633.012146 
z"/>
<path fill="#F5701A" opacity="1.000000" stroke="none" 
	d="
M649.958740,320.672882 
	C652.408813,321.434784 655.064941,322.456177 657.833374,323.821930 
	C655.351990,323.088318 652.758423,322.010345 649.958740,320.672882 
z"/>
<path fill="#F5701A" opacity="1.000000" stroke="none" 
	d="
M658.061462,324.383270 
	C660.811035,325.235840 663.764954,326.376709 666.821350,327.865784 
	C664.037842,327.033203 661.151794,325.852386 658.061462,324.383270 
z"/>
<path fill="#F5701A" opacity="1.000000" stroke="none" 
	d="
M683.024597,335.423035 
	C685.782898,336.235962 688.745483,337.338837 691.839111,338.772430 
	C689.056396,337.973114 686.142639,336.843048 683.024597,335.423035 
z"/>
<path fill="#F5701A" opacity="1.000000" stroke="none" 
	d="
M490.067688,429.426514 
	C487.314575,428.556946 484.355896,427.409973 481.387390,425.893921 
	C484.205750,426.732910 487.033936,427.941010 490.067688,429.426514 
z"/>
<path fill="#F5701A" opacity="1.000000" stroke="none" 
	d="
M569.554626,412.839691 
	C567.441345,414.146057 564.964905,415.508728 562.103149,416.752289 
	C564.208923,415.387451 566.700195,414.141724 569.554626,412.839691 
z"/>
<path fill="#F5701A" opacity="1.000000" stroke="none" 
	d="
M536.727417,159.817932 
	C534.749207,159.163528 532.512451,158.284439 530.202393,157.057220 
	C532.242371,157.670471 534.355652,158.631851 536.727417,159.817932 
z"/>
<path fill="#F5701A" opacity="1.000000" stroke="none" 
	d="
M587.318665,404.564575 
	C585.615356,405.626953 583.560547,406.747772 581.124817,407.746521 
	C582.818298,406.623962 584.892700,405.623505 587.318665,404.564575 
z"/>
<path fill="#F5701A" opacity="1.000000" stroke="none" 
	d="
M593.536865,401.796936 
	C592.087585,402.776337 590.288513,403.817841 588.115845,404.730286 
	C589.557190,403.687134 591.372131,402.773102 593.536865,401.796936 
z"/>
<path fill="#F74D01" opacity="1.000000" stroke="none" 
	d="
M552.826660,597.681458 
	C554.412720,598.414124 556.155640,599.418701 557.917419,600.778625 
	C556.285339,600.073792 554.634460,599.013550 552.826660,597.681458 
z"/>
<path fill="#F5701A" opacity="1.000000" stroke="none" 
	d="
M626.958008,310.630035 
	C629.036377,311.135529 631.331970,311.908264 633.710205,313.043091 
	C631.586975,312.569214 629.381104,311.733246 626.958008,310.630035 
z"/>
<path fill="#F74D01" opacity="1.000000" stroke="none" 
	d="
M768.867798,445.662628 
	C766.868347,445.457672 764.626587,444.969391 762.204712,444.146301 
	C764.224915,444.334106 766.425232,444.856720 768.867798,445.662628 
z"/>
<path fill="#F5701A" opacity="1.000000" stroke="none" 
	d="
M541.395630,426.660736 
	C539.979004,427.665558 538.225403,428.752106 536.091797,429.754486 
	C537.494080,428.694336 539.276306,427.718414 541.395630,426.660736 
z"/>
<path fill="#F5701A" opacity="1.000000" stroke="none" 
	d="
M229.200439,632.739807 
	C228.975525,633.012146 228.566879,633.009338 228.362579,633.012268 
	C228.098022,631.881958 228.037766,630.748718 227.945358,629.010742 
	C229.500549,629.920044 230.661987,630.599182 232.000839,631.573975 
	C231.260620,632.068970 230.342987,632.268188 229.200439,632.739807 
z"/>
<path fill="#F74D01" opacity="1.000000" stroke="none" 
	d="
M666.920898,368.608215 
	C665.425781,368.530579 663.975525,368.096924 662.298462,367.431763 
	C664.167358,365.390625 665.861328,365.450165 666.920898,368.608215 
z"/>
<path fill="#F5701A" opacity="1.000000" stroke="none" 
	d="
M479.935059,424.628113 
	C478.544342,424.383179 476.945709,423.861511 475.333557,422.943695 
	C476.789062,423.148773 478.258087,423.750061 479.935059,424.628113 
z"/>
<path fill="#F5701A" opacity="1.000000" stroke="none" 
	d="
M578.316895,408.586700 
	C577.311340,409.329742 575.975708,410.146637 574.244385,410.930237 
	C575.228088,410.151459 576.607422,409.405975 578.316895,408.586700 
z"/>
<path fill="#F74D01" opacity="1.000000" stroke="none" 
	d="
M228.073517,714.473022 
	C228.302872,716.171448 228.477417,718.298889 228.390472,720.687866 
	C228.092239,718.933655 228.055481,716.917908 228.073517,714.473022 
z"/>
<path fill="#F5701A" opacity="1.000000" stroke="none" 
	d="
M528.051392,155.462311 
	C526.631104,155.261993 525.005798,154.775482 523.310547,153.911133 
	C524.775879,154.080917 526.311096,154.628510 528.051392,155.462311 
z"/>
<path fill="#F5701A" opacity="1.000000" stroke="none" 
	d="
M622.010254,308.427979 
	C623.414856,308.652679 625.013000,309.168976 626.684998,310.055115 
	C625.240479,309.856476 623.722107,309.288025 622.010254,308.427979 
z"/>
<path fill="#F5701A" opacity="1.000000" stroke="none" 
	d="
M474.801331,714.747803 
	C475.013062,714.994324 474.571960,715.038879 474.351990,715.041992 
	C473.125763,714.563721 472.119537,714.082275 471.091248,713.236084 
	C472.242676,713.414612 473.416138,713.957947 474.801331,714.747803 
z"/>
<path fill="#F74D01" opacity="1.000000" stroke="none" 
	d="
M566.732178,612.447266 
	C567.301880,613.276611 567.916077,614.452271 568.281494,615.810791 
	C567.614075,614.927002 567.195374,613.860291 566.732178,612.447266 
z"/>
<path fill="#F5701A" opacity="1.000000" stroke="none" 
	d="
M633.923828,313.604462 
	C635.049744,313.722015 636.376343,314.107880 637.816284,314.849792 
	C636.661255,314.761475 635.392883,314.317139 633.923828,313.604462 
z"/>
<path fill="#F5701A" opacity="1.000000" stroke="none" 
	d="
M625.574280,385.831238 
	C624.786804,386.489136 623.665344,387.214172 622.168823,387.888367 
	C622.942627,387.191132 624.091492,386.544708 625.574280,385.831238 
z"/>
<path fill="#F5701A" opacity="1.000000" stroke="none" 
	d="
M573.604797,410.884094 
	C572.814209,411.532074 571.688721,412.241760 570.192017,412.910767 
	C570.970581,412.228699 572.120239,411.587250 573.604797,410.884094 
z"/>
<path fill="#F5701A" opacity="1.000000" stroke="none" 
	d="
M555.342957,419.629547 
	C554.599060,420.325623 553.542236,421.107727 552.103760,421.784332 
	C552.824707,421.024414 553.927368,420.369995 555.342957,419.629547 
z"/>
<path fill="#F5701A" opacity="1.000000" stroke="none" 
	d="
M549.283936,422.613647 
	C548.551758,423.304382 547.515442,424.089050 546.099609,424.753845 
	C546.806702,423.991821 547.893250,423.349670 549.283936,422.613647 
z"/>
<path fill="#F5701A" opacity="1.000000" stroke="none" 
	d="
M545.382019,424.631378 
	C544.627991,425.330719 543.554077,426.106201 542.099670,426.770569 
	C542.833496,426.008820 543.947815,425.358154 545.382019,424.631378 
z"/>
<path fill="#F74D01" opacity="1.000000" stroke="none" 
	d="
M775.063599,448.509338 
	C773.925110,448.344788 772.609375,447.888428 771.196411,447.066986 
	C772.361572,447.207092 773.623962,447.712311 775.063599,448.509338 
z"/>
<path fill="#F74D01" opacity="1.000000" stroke="none" 
	d="
M228.075165,652.449951 
	C228.296570,653.524780 228.463760,655.006165 228.380249,656.718750 
	C228.093369,655.585510 228.057159,654.220947 228.075165,652.449951 
z"/>
<path fill="#F5701A" opacity="1.000000" stroke="none" 
	d="
M470.963409,712.654541 
	C470.129456,712.452576 469.133087,711.983643 468.148254,711.139404 
	C469.040131,711.305298 469.920563,711.846436 470.963409,712.654541 
z"/>
<path fill="#F5701A" opacity="1.000000" stroke="none" 
	d="
M545.137451,164.014587 
	C544.321106,163.969116 543.308044,163.706924 542.206299,163.083282 
	C543.058716,163.080536 543.999756,163.439209 545.137451,164.014587 
z"/>
<path fill="#F74D01" opacity="1.000000" stroke="none" 
	d="
M228.522354,805.441284 
	C228.930054,806.479126 229.440262,807.902039 229.901062,809.754150 
	C229.442719,808.731018 229.033798,807.278687 228.522354,805.441284 
z"/>
<path fill="#F5701A" opacity="1.000000" stroke="none" 
	d="
M238.047882,635.561951 
	C237.177170,635.437988 236.146210,635.038696 235.082062,634.271667 
	C235.995132,634.364807 236.941391,634.825745 238.047882,635.561951 
z"/>
<path fill="#F5701A" opacity="1.000000" stroke="none" 
	d="
M459.437988,610.048462 
	C459.578094,609.175476 459.995239,608.142395 460.785187,607.079834 
	C460.677002,607.996277 460.196014,608.942383 459.437988,610.048462 
z"/>
<path fill="#F5701A" opacity="1.000000" stroke="none" 
	d="
M558.653076,417.946838 
	C558.110779,418.541718 557.252502,419.183289 556.054565,419.705566 
	C556.588928,419.055359 557.463074,418.524414 558.653076,417.946838 
z"/>
<path fill="#F74D01" opacity="1.000000" stroke="none" 
	d="
M261.997681,444.995728 
	C261.049164,445.305939 260.103699,445.621155 258.753265,445.898895 
	C259.039978,445.483215 259.731628,445.105011 260.851929,444.763489 
	C261.505402,444.930725 261.747742,445.000214 262.007568,445.008606 
	C262.007568,445.008606 262.000732,445.000702 261.997681,444.995728 
z"/>
<path fill="#F74D01" opacity="1.000000" stroke="none" 
	d="
M781.255554,452.282532 
	C780.627930,452.222778 779.871277,451.900452 779.094666,451.214386 
	C779.758667,451.240417 780.442566,451.630188 781.255554,452.282532 
z"/>
<path fill="#F5650F" opacity="1.000000" stroke="none" 
	d="
M364.690460,369.962463 
	C364.062317,369.876617 363.148346,369.643066 362.154602,369.109619 
	C362.851410,369.144775 363.628021,369.479736 364.690460,369.962463 
z"/>
<path fill="#F74D01" opacity="1.000000" stroke="none" 
	d="
M556.772034,710.899780 
	C556.307800,711.511719 555.540833,712.228394 554.411194,712.981995 
	C554.855408,712.347473 555.662354,711.676025 556.772034,710.899780 
z"/>
<path fill="#F5701A" opacity="1.000000" stroke="none" 
	d="
M667.019409,328.399963 
	C667.748535,328.325378 668.670349,328.523651 669.663086,329.089966 
	C668.893372,329.196289 668.052673,328.934570 667.019409,328.399963 
z"/>
<path fill="#F74D01" opacity="1.000000" stroke="none" 
	d="
M228.073700,662.403198 
	C228.283234,662.892029 228.438644,663.742798 228.361221,664.772949 
	C228.092117,664.223267 228.055862,663.494202 228.073700,662.403198 
z"/>
<path fill="#F74D01" opacity="1.000000" stroke="none" 
	d="
M229.716431,810.460571 
	C230.003708,810.903442 230.325424,811.706238 230.420349,812.720459 
	C230.045990,812.228088 229.898438,811.524292 229.716431,810.460571 
z"/>
<path fill="#F5701A" opacity="1.000000" stroke="none" 
	d="
M465.023193,707.676025 
	C464.469696,707.473999 463.781952,706.996948 463.075928,706.168213 
	C463.668060,706.344666 464.278503,706.872803 465.023193,707.676025 
z"/>
<path fill="#F5701A" opacity="1.000000" stroke="none" 
	d="
M548.033081,165.555695 
	C547.290161,165.615051 546.372131,165.401917 545.498535,164.806305 
	C546.314636,164.710281 547.086365,164.996735 548.033081,165.555695 
z"/>
<path fill="#F5701A" opacity="1.000000" stroke="none" 
	d="
M561.433472,416.614227 
	C561.051453,417.029816 560.345520,417.498901 559.271729,417.956146 
	C559.639099,417.518768 560.374329,417.093262 561.433472,416.614227 
z"/>
<path fill="#F5701A" opacity="1.000000" stroke="none" 
	d="
M636.338013,380.554169 
	C635.977173,380.984985 635.300171,381.473572 634.251099,381.943054 
	C634.593323,381.486603 635.307556,381.049286 636.338013,380.554169 
z"/>
<path fill="#F5701A" opacity="1.000000" stroke="none" 
	d="
M600.293579,398.500153 
	C599.936096,398.951447 599.261047,399.449219 598.206909,399.910706 
	C598.543884,399.431824 599.259949,398.989258 600.293579,398.500153 
z"/>
<path fill="#F5701A" opacity="1.000000" stroke="none" 
	d="
M552.028381,167.590698 
	C551.575195,167.688217 550.956726,167.519836 550.218140,167.035919 
	C550.686340,166.921844 551.274719,167.123306 552.028381,167.590698 
z"/>
<path fill="#F5701A" opacity="1.000000" stroke="none" 
	d="
M570.046997,176.566254 
	C569.584534,176.677948 568.961548,176.517471 568.216309,176.040161 
	C568.691528,175.913574 569.289062,176.103821 570.046997,176.566254 
z"/>
<path fill="#F74D01" opacity="1.000000" stroke="none" 
	d="
M564.620911,608.506958 
	C565.019409,608.648621 565.441895,609.105713 565.799927,609.911987 
	C565.371887,609.781555 565.008362,609.302002 564.620911,608.506958 
z"/>
<path fill="#F5701A" opacity="1.000000" stroke="none" 
	d="
M793.485535,631.662598 
	C793.367432,632.040894 792.943542,632.479370 792.178589,632.904053 
	C792.284973,632.501099 792.732361,632.111938 793.485535,631.662598 
z"/>
<path fill="#F5701A" opacity="1.000000" stroke="none" 
	d="
M568.056702,175.548401 
	C567.594482,175.672348 566.968018,175.524841 566.209473,175.065414 
	C566.682434,174.927963 567.287415,175.102463 568.056702,175.548401 
z"/>
<path fill="#F5701A" opacity="1.000000" stroke="none" 
	d="
M550.060669,166.542999 
	C549.597412,166.663757 548.970520,166.513107 548.215576,166.046844 
	C548.690674,165.911346 549.293884,166.091476 550.060669,166.542999 
z"/>
<path fill="#F5701A" opacity="1.000000" stroke="none" 
	d="
M458.392883,612.017456 
	C458.285645,611.552490 458.461304,610.942688 458.945862,610.207031 
	C459.061737,610.678345 458.868744,611.275452 458.392883,612.017456 
z"/>
<path fill="#F5701A" opacity="1.000000" stroke="none" 
	d="
M553.995361,168.626617 
	C553.548584,168.721420 552.939453,168.548126 552.200195,168.070221 
	C552.657715,167.963242 553.245422,168.160873 553.995361,168.626617 
z"/>
<path fill="#F74D01" opacity="1.000000" stroke="none" 
	d="
M568.874023,618.359619 
	C569.070984,618.570679 569.316101,619.103149 569.345642,619.798706 
	C569.060730,619.534851 568.991455,619.107910 568.874023,618.359619 
z"/>
<path fill="#F74D01" opacity="1.000000" stroke="none" 
	d="
M565.641541,610.488770 
	C566.034302,610.631165 566.456848,611.091675 566.839844,611.902893 
	C566.424011,611.771301 566.047729,611.289062 565.641541,610.488770 
z"/>
<path fill="#F5701A" opacity="1.000000" stroke="none" 
	d="
M556.017822,169.593994 
	C555.577148,169.704346 554.958862,169.556625 554.193359,169.112701 
	C554.644165,168.989624 555.242188,169.162766 556.017822,169.593994 
z"/>
<path fill="#F5701A" opacity="1.000000" stroke="none" 
	d="
M692.084839,339.297760 
	C692.493530,339.257660 693.087585,339.459534 693.810547,339.959534 
	C693.382996,340.018372 692.826599,339.779053 692.084839,339.297760 
z"/>
<path fill="#F5701A" opacity="1.000000" stroke="none" 
	d="
M234.937866,633.690063 
	C234.511887,633.719971 233.924667,633.495728 233.269058,632.944458 
	C233.725983,632.890259 234.251312,633.163147 234.937866,633.690063 
z"/>
<path fill="#F5701A" opacity="1.000000" stroke="none" 
	d="
M790.383789,633.619202 
	C790.287781,633.993652 789.907837,634.448120 789.186523,634.901428 
	C789.263489,634.500000 789.681702,634.099609 790.383789,633.619202 
z"/>
<path fill="#F5701A" opacity="1.000000" stroke="none" 
	d="
M788.647217,634.878357 
	C788.478760,635.190063 788.006714,635.556274 787.211121,635.928467 
	C787.372925,635.600647 787.858276,635.266785 788.647217,634.878357 
z"/>
<path fill="#F5701A" opacity="1.000000" stroke="none" 
	d="
M240.003662,636.619263 
	C239.551956,636.714600 238.941498,636.539612 238.206375,636.055359 
	C238.669449,635.947021 239.257172,636.147888 240.003662,636.619263 
z"/>
<path fill="#F5701A" opacity="1.000000" stroke="none" 
	d="
M242.005249,637.613403 
	C241.559402,637.721008 240.947723,637.561584 240.192749,637.105469 
	C240.646103,636.988098 241.242767,637.167236 242.005249,637.613403 
z"/>
<path fill="#F5701A" opacity="1.000000" stroke="none" 
	d="
M481.595093,163.789764 
	C481.432404,164.123215 480.959747,164.514359 480.149902,164.885605 
	C480.303558,164.526291 480.794342,164.186859 481.595093,163.789764 
z"/>
<path fill="#F5701A" opacity="1.000000" stroke="none" 
	d="
M583.720459,183.014023 
	C583.419678,183.109543 582.867188,183.089340 582.384033,182.780518 
	C582.791870,182.627350 583.130249,182.762833 583.720459,183.014023 
z"/>
<path fill="#F5701A" opacity="1.000000" stroke="none" 
	d="
M483.610626,162.813766 
	C483.436157,163.140442 482.948242,163.519119 482.122192,163.863510 
	C482.288452,163.508072 482.792816,163.186920 483.610626,162.813766 
z"/>
<path fill="#F5701A" opacity="1.000000" stroke="none" 
	d="
M542.059204,162.541260 
	C541.597229,162.685715 540.972717,162.553848 540.193298,162.125992 
	C540.657837,161.974991 541.277222,162.119965 542.059204,162.541260 
z"/>
<path fill="#F5701A" opacity="1.000000" stroke="none" 
	d="
M572.053894,177.555054 
	C571.591858,177.674652 570.968140,177.521545 570.213196,177.056305 
	C570.685364,176.923553 571.288818,177.102936 572.053894,177.555054 
z"/>
<path fill="#F5701A" opacity="1.000000" stroke="none" 
	d="
M461.222229,703.579102 
	C460.880402,703.412964 460.476013,702.925293 460.077209,702.092529 
	C460.441742,702.250916 460.800720,702.754211 461.222229,703.579102 
z"/>
<path fill="#F5701A" opacity="1.000000" stroke="none" 
	d="
M540.001709,161.613327 
	C539.525391,161.661484 538.908203,161.412964 538.190063,160.825409 
	C538.679626,160.763138 539.270203,161.039886 540.001709,161.613327 
z"/>
<path fill="#F65F07" opacity="1.000000" stroke="none" 
	d="
M758.363525,851.096252 
	C758.571106,850.903870 759.100098,850.665771 759.793091,850.638000 
	C759.532959,850.915710 759.108948,850.983093 758.363525,851.096252 
z"/>
<path fill="#F5701A" opacity="1.000000" stroke="none" 
	d="
M530.077148,156.532440 
	C529.605042,156.640961 528.977417,156.475052 528.250122,155.976471 
	C528.740845,155.848511 529.331238,156.053253 530.077148,156.532440 
z"/>
<path fill="#F5701A" opacity="1.000000" stroke="none" 
	d="
M613.625244,391.833496 
	C613.456787,392.164490 612.976807,392.537933 612.165039,392.899139 
	C612.326721,392.549957 612.820190,392.212952 613.625244,391.833496 
z"/>
<path fill="#F5701A" opacity="1.000000" stroke="none" 
	d="
M580.403748,407.594910 
	C580.261597,407.957886 579.835388,408.386261 579.065552,408.708130 
	C579.187805,408.287842 579.653809,407.974091 580.403748,407.594910 
z"/>
<path fill="#F5701A" opacity="1.000000" stroke="none" 
	d="
M551.487427,421.638184 
	C551.320801,421.991150 550.862000,422.398376 550.068481,422.678345 
	C550.220886,422.264893 550.708130,421.978638 551.487427,421.638184 
z"/>
<path fill="#F5701A" opacity="1.000000" stroke="none" 
	d="
M629.598755,383.785034 
	C629.436951,384.126404 628.965515,384.516876 628.158081,384.890747 
	C628.311035,384.527496 628.800049,384.180847 629.598755,383.785034 
z"/>
<path fill="#F5701A" opacity="1.000000" stroke="none" 
	d="
M627.620239,384.834534 
	C627.448669,385.161285 626.962280,385.535461 626.140869,385.882385 
	C626.305664,385.530762 626.805481,385.206360 627.620239,384.834534 
z"/>
<path fill="#F5701A" opacity="1.000000" stroke="none" 
	d="
M631.645142,382.889679 
	C631.456360,383.191650 630.956360,383.543549 630.123535,383.864929 
	C630.305176,383.536163 630.819580,383.237885 631.645142,382.889679 
z"/>
<path fill="#F5701A" opacity="1.000000" stroke="none" 
	d="
M633.656006,381.907776 
	C633.479797,382.216339 632.993408,382.568237 632.183167,382.914795 
	C632.354797,382.590027 632.850342,382.270569 633.656006,381.907776 
z"/>
<path fill="#F5701A" opacity="1.000000" stroke="none" 
	d="
M566.029419,174.580124 
	C565.578674,174.695221 564.958313,174.544220 564.198792,174.089691 
	C564.659729,173.962112 565.259766,174.138077 566.029419,174.580124 
z"/>
<path fill="#F5701A" opacity="1.000000" stroke="none" 
	d="
M564.007202,173.611267 
	C563.563354,173.710373 562.947998,173.548080 562.198853,173.081421 
	C562.655334,172.967987 563.245483,173.158936 564.007202,173.611267 
z"/>
<path fill="#F5701A" opacity="1.000000" stroke="none" 
	d="
M462.098145,416.273499 
	C461.639435,416.395752 461.019501,416.298096 460.406464,415.838379 
	C460.921204,415.668793 461.429047,415.861176 462.098145,416.273499 
z"/>
<path fill="#F5701A" opacity="1.000000" stroke="none" 
	d="
M621.601562,387.797791 
	C621.426514,388.125488 620.939697,388.507080 620.112793,388.851135 
	C620.278442,388.492981 620.784180,388.172363 621.601562,387.797791 
z"/>
<path fill="#F5701A" opacity="1.000000" stroke="none" 
	d="
M639.857788,378.774292 
	C639.650818,379.086029 639.113647,379.494110 638.223022,379.912170 
	C638.422241,379.571686 638.974915,379.221191 639.857788,378.774292 
z"/>
<path fill="#F74D01" opacity="1.000000" stroke="none" 
	d="
M771.057495,446.556183 
	C770.595947,446.706024 769.966248,446.581268 769.175720,446.166992 
	C769.639709,446.012177 770.264587,446.146881 771.057495,446.556183 
z"/>
<path fill="#F74D01" opacity="1.000000" stroke="none" 
	d="
M777.031738,449.606262 
	C776.565674,449.703064 775.947144,449.518982 775.209595,449.015472 
	C775.686768,448.905823 776.283020,449.115631 777.031738,449.606262 
z"/>
<path fill="#F5701A" opacity="1.000000" stroke="none" 
	d="
M619.584351,388.769897 
	C619.420654,389.107574 618.948181,389.501953 618.136108,389.870667 
	C618.289551,389.505524 618.782593,389.166077 619.584351,388.769897 
z"/>
<path fill="#F74D01" opacity="1.000000" stroke="none" 
	d="
M778.986328,450.644409 
	C778.534424,450.742554 777.927856,450.563782 777.179077,450.087280 
	C777.635132,449.982208 778.233398,450.174835 778.986328,450.644409 
z"/>
<path fill="#F74D01" opacity="1.000000" stroke="none" 
	d="
M783.074707,453.565063 
	C782.602539,453.650513 781.978821,453.458954 781.295532,452.923096 
	C781.798279,452.815216 782.360718,453.051605 783.074707,453.565063 
z"/>
<path fill="#F5701A" opacity="1.000000" stroke="none" 
	d="
M611.639709,392.862457 
	C611.472473,393.177155 611.002319,393.548157 610.207336,393.924957 
	C610.367249,393.593414 610.852051,393.256104 611.639709,392.862457 
z"/>
<path fill="#F5701A" opacity="1.000000" stroke="none" 
	d="
M609.655518,393.909393 
	C609.471985,394.218811 608.975220,394.565247 608.150269,394.892303 
	C608.328796,394.564087 608.835449,394.255249 609.655518,393.909393 
z"/>
<path fill="#F5701A" opacity="1.000000" stroke="none" 
	d="
M607.622559,394.834473 
	C607.450745,395.159760 606.966309,395.533783 606.147522,395.886566 
	C606.312073,395.537964 606.810913,395.210602 607.622559,394.834473 
z"/>
<path fill="#F5701A" opacity="1.000000" stroke="none" 
	d="
M617.608276,389.805603 
	C617.445129,390.136292 616.975220,390.521790 616.171936,390.899231 
	C616.326172,390.547577 616.813782,390.204010 617.608276,389.805603 
z"/>
<path fill="#F5701A" opacity="1.000000" stroke="none" 
	d="
M615.635986,390.863007 
	C615.458252,391.177521 614.972290,391.540710 614.155151,391.890564 
	C614.325256,391.555359 614.826538,391.233521 615.635986,390.863007 
z"/>
<path fill="#F5701A" opacity="1.000000" stroke="none" 
	d="
M595.583740,400.773743 
	C595.417786,401.109253 594.942505,401.502258 594.126709,401.863586 
	C594.282349,401.498352 594.778442,401.164795 595.583740,400.773743 
z"/>
<path fill="#F5701A" opacity="1.000000" stroke="none" 
	d="
M597.623413,399.832764 
	C597.441833,400.157959 596.946045,400.526489 596.113037,400.854187 
	C596.286987,400.500916 596.798035,400.188507 597.623413,399.832764 
z"/>
<path fill="#F5701A" opacity="1.000000" stroke="none" 
	d="
M605.620361,395.831848 
	C605.442932,396.149780 604.955261,396.523560 604.131165,396.869934 
	C604.299866,396.524261 604.804993,396.205963 605.620361,395.831848 
z"/>
<path fill="#F74D01" opacity="1.000000" stroke="none" 
	d="
M794.333191,464.521637 
	C793.932007,464.392792 793.498535,463.942963 793.057739,463.150085 
	C793.467346,463.271576 793.884094,463.736115 794.333191,464.521637 
z"/>
<path fill="#F74D01" opacity="1.000000" stroke="none" 
	d="
M785.925049,455.701324 
	C785.500000,455.730835 784.914673,455.499268 784.269165,454.940216 
	C784.727600,454.888580 785.246155,455.164398 785.925049,455.701324 
z"/>
<path fill="#F5701A" opacity="1.000000" stroke="none" 
	d="
M603.605896,396.801636 
	C603.450195,397.137726 602.987549,397.528046 602.194214,397.916595 
	C602.341980,397.561829 602.820496,397.208832 603.605896,396.801636 
z"/>
<path fill="#F5701A" opacity="1.000000" stroke="none" 
	d="
M562.023315,172.594788 
	C561.568665,172.697464 560.951843,172.530350 560.209473,172.051880 
	C560.676331,171.935364 561.268738,172.130173 562.023315,172.594788 
z"/>
<path fill="#F5701A" opacity="1.000000" stroke="none" 
	d="
M560.040039,171.569672 
	C559.585938,171.681610 558.963196,171.527283 558.208252,171.062897 
	C558.674438,170.936371 559.272949,171.119888 560.040039,171.569672 
z"/>
<path fill="#F5701A" opacity="1.000000" stroke="none" 
	d="
M558.037537,170.575516 
	C557.580627,170.689362 556.959167,170.532639 556.205566,170.066589 
	C556.673279,169.939835 557.273071,170.122375 558.037537,170.575516 
z"/>
<path fill="#F5701A" opacity="1.000000" stroke="none" 
	d="
M459.103577,699.686707 
	C458.877808,699.726013 458.599396,699.494690 458.352234,698.980957 
	C458.605957,698.937683 458.828461,699.176880 459.103577,699.686707 
z"/>
<path fill="#F5701A" opacity="1.000000" stroke="none" 
	d="
M621.221436,308.014191 
	C621.287903,307.877991 621.561951,307.850586 621.862183,308.019348 
	C621.888428,308.215546 621.429016,308.122986 621.221436,308.014191 
z"/>
<path fill="#F5701A" opacity="1.000000" stroke="none" 
	d="
M601.679749,397.905121 
	C601.713623,398.130615 601.479004,398.409515 600.958496,398.659302 
	C600.918823,398.406342 601.165100,398.182434 601.679749,397.905121 
z"/>
<path fill="#F5701A" opacity="1.000000" stroke="none" 
	d="
M462.112915,704.673218 
	C461.910217,704.728821 461.593109,704.522583 461.191925,704.035278 
	C461.404724,703.973267 461.701569,704.192261 462.112915,704.673218 
z"/>
<path fill="#F5701A" opacity="1.000000" stroke="none" 
	d="
M786.686829,635.934998 
	C786.721680,636.159729 786.481812,636.436340 785.953979,636.715820 
	C785.914734,636.474792 786.163452,636.230835 786.686829,635.934998 
z"/>
<path fill="#F5701A" opacity="1.000000" stroke="none" 
	d="
M468.129242,710.631165 
	C467.907593,710.697510 467.582977,710.492981 467.166870,710.006714 
	C467.392334,709.936768 467.709320,710.148499 468.129242,710.631165 
z"/>
<path fill="#F74D01" opacity="1.000000" stroke="none" 
	d="
M789.098694,458.676758 
	C788.881897,458.737305 788.569519,458.524567 788.154175,458.041016 
	C788.368469,457.981323 788.685852,458.192383 789.098694,458.676758 
z"/>
<path fill="#F74D01" opacity="1.000000" stroke="none" 
	d="
M560.929749,604.300781 
	C561.132446,604.238586 561.441772,604.437378 561.858521,604.897217 
	C561.656128,604.959473 561.346252,604.760559 560.929749,604.300781 
z"/>
<path fill="#F74D01" opacity="1.000000" stroke="none" 
	d="
M561.938721,605.304932 
	C562.143433,605.242615 562.448059,605.444458 562.856689,605.907593 
	C562.653381,605.968872 562.346008,605.768982 561.938721,605.304932 
z"/>
<path fill="#F74D01" opacity="1.000000" stroke="none" 
	d="
M562.917603,606.318115 
	C563.131836,606.255737 563.436646,606.469971 563.831665,606.957153 
	C563.617371,607.018250 563.312805,606.806458 562.917603,606.318115 
z"/>
<path fill="#F5701A" opacity="1.000000" stroke="none" 
	d="
M483.034393,593.864685 
	C483.027405,593.625183 483.231689,593.472046 483.802612,593.208618 
	C483.861359,593.382629 483.553528,593.666870 483.034393,593.864685 
z"/>
<path fill="#F74D01" opacity="1.000000" stroke="none" 
	d="
M563.813721,607.388794 
	C564.066772,607.298645 564.392395,607.505493 564.770874,608.008301 
	C564.511230,608.098022 564.198792,607.891907 563.813721,607.388794 
z"/>
<path fill="#F74D01" opacity="1.000000" stroke="none" 
	d="
M795.199158,465.638153 
	C794.985901,465.725189 794.644531,465.527679 794.204773,465.042938 
	C794.427979,464.955017 794.749451,465.154297 795.199158,465.638153 
z"/>
<path fill="#F74D01" opacity="1.000000" stroke="none" 
	d="
M792.103271,461.684174 
	C791.901733,461.746948 791.581970,461.546631 791.155029,461.076538 
	C791.360229,461.011566 791.672668,461.216309 792.103271,461.684174 
z"/>
<path fill="#F74D01" opacity="1.000000" stroke="none" 
	d="
M791.107300,460.666656 
	C790.887329,460.739441 790.571106,460.540039 790.155151,460.070251 
	C790.373962,459.998047 790.692566,460.196259 791.107300,460.666656 
z"/>
<path fill="#F74D01" opacity="1.000000" stroke="none" 
	d="
M790.106812,459.667480 
	C789.886414,459.740112 789.570740,459.540009 789.155396,459.069672 
	C789.374268,458.997864 789.692993,459.196289 790.106812,459.667480 
z"/>
<path fill="#F5701A" opacity="1.000000" stroke="none" 
	d="
M481.217834,425.348877 
	C480.985352,425.515869 480.635101,425.439880 480.169342,425.101074 
	C480.402588,424.927460 480.751312,425.016663 481.217834,425.348877 
z"/>
<path fill="#F74D01" opacity="1.000000" stroke="none" 
	d="
M787.152222,456.682129 
	C786.955566,456.762054 786.619446,456.592285 786.149841,456.169067 
	C786.348511,456.087891 786.680542,456.260162 787.152222,456.682129 
z"/>
<path fill="#F5701A" opacity="1.000000" stroke="none" 
	d="
M233.221146,632.504517 
	C232.981445,632.627502 232.632355,632.487366 232.179123,632.072266 
	C232.420578,631.945312 232.766174,632.093323 233.221146,632.504517 
z"/>
<path fill="#F74D01" opacity="1.000000" stroke="none" 
	d="
M784.254272,454.502869 
	C783.960510,454.639771 783.617371,454.475281 783.181519,454.025787 
	C783.460876,453.894379 783.832886,454.047943 784.254272,454.502869 
z"/>
<path fill="#F5701A" opacity="1.000000" stroke="none" 
	d="
M479.658264,164.833405 
	C479.672119,164.992981 479.458282,165.201248 479.130737,165.253052 
	C479.017059,165.096588 479.430511,164.882095 479.658264,164.833405 
z"/>
<path fill="#F5701A" opacity="1.000000" stroke="none" 
	d="
M791.664917,632.895142 
	C791.703918,633.110840 791.476379,633.404114 790.956360,633.694580 
	C790.908752,633.452026 791.153564,633.212341 791.664917,632.895142 
z"/>
<path fill="#F5701A" opacity="1.000000" stroke="none" 
	d="
M262.015594,444.807526 
	C261.747742,445.000214 261.505402,444.930725 261.157623,444.655518 
	C261.178101,444.383820 261.321594,444.256744 261.750244,444.166870 
	C262.035400,444.204132 262.023621,444.606445 262.015594,444.807526 
z"/>
<path fill="#F74D01" opacity="1.000000" stroke="none" 
	d="
M557.967529,601.283752 
	C558.161194,601.226807 558.457458,601.426208 558.866028,601.873169 
	C558.675598,601.927124 558.372803,601.733643 557.967529,601.283752 
z"/>
<path fill="#F5701A" opacity="1.000000" stroke="none" 
	d="
M637.678040,379.902588 
	C637.713562,380.138062 637.475464,380.415802 636.949585,380.668823 
	C636.909302,380.411041 637.156860,380.177948 637.678040,379.902588 
z"/>
<path fill="#F6701B" opacity="1.000000" stroke="none" 
	d="
M486.384277,687.191895 
	C486.001404,666.322205 486.001617,645.617493 486.002136,624.440552 
	C489.412659,623.972290 492.822906,623.979431 496.233124,623.979858 
	C507.726410,623.981201 519.220093,624.028931 530.712830,623.949585 
	C534.055359,623.926514 537.395386,623.537659 540.980957,623.300293 
	C540.980957,644.221375 541.029968,664.312073 540.858948,684.400879 
	C540.848694,685.603760 539.087402,687.825317 538.127075,687.832947 
	C521.314087,687.966919 504.498840,687.831238 487.684204,687.734192 
	C487.377899,687.732422 487.072937,687.488098 486.384277,687.191895 
z"/>
</svg>