<svg version="1.1" id="Layer_1" xmlns="http://www.w3.org/2000/svg" xmlns:xlink="http://www.w3.org/1999/xlink" x="0px" y="0px" width="100%" viewBox="0 0 1024 1024" enable-background="new 0 0 1024 1024">
  <path fill="#000000" opacity="1.000000" stroke="none" d="
M315.468994,660.530884 
	C288.178680,633.116272 260.786774,606.289917 234.211929,578.677246 
	C213.669815,557.332886 192.334442,536.622314 174.745270,512.605347 
	C151.147247,480.383698 133.398773,445.475830 126.897240,405.630524 
	C115.785110,337.528625 130.732620,275.767456 174.483475,222.220154 
	C205.181274,184.648666 245.781464,162.318176 293.244598,152.733353 
	C315.203186,148.298965 337.305603,147.916824 359.691803,150.411118 
	C393.220245,154.146896 424.269592,164.175430 452.485962,182.762390 
	C474.598114,197.328278 492.793823,215.954544 508.763184,236.901947 
	C509.973297,238.489334 511.233582,240.039474 512.507751,241.576080 
	C512.694275,241.801025 513.089233,241.853119 513.668762,242.109512 
	C518.285950,236.366974 522.860596,230.492859 527.627136,224.778763 
	C559.772156,186.243317 600.545410,162.287354 649.750854,152.576477 
	C664.985718,149.569839 680.388123,147.974976 695.859192,148.801056 
	C775.946411,153.077347 837.312561,188.134842 876.050964,259.622986 
	C888.264343,282.161591 896.511780,306.236053 900.052917,331.652069 
	C902.903992,352.114899 902.880310,372.622650 900.641113,393.315216 
	C895.033630,445.134125 871.915771,488.658752 839.098328,527.854614 
	C824.106018,545.760864 806.808411,561.507935 791.010742,578.665222 
	C789.408386,580.405396 787.868164,582.106628 787.437195,584.526367 
	C786.386536,590.425903 787.383972,591.486755 793.359497,591.685181 
	C803.960571,592.037109 814.631165,590.537537 825.130188,593.571533 
	C846.171021,599.651733 860.260437,617.883362 860.275269,639.778015 
	C860.318604,703.773743 860.323547,767.769470 860.274658,831.765198 
	C860.256165,855.961304 839.180420,877.296265 814.929199,877.321838 
	C722.435486,877.419434 629.941589,877.385010 537.447754,877.315857 
	C519.971680,877.302795 501.309967,863.135315 496.064819,845.561279 
	C494.594543,840.635132 492.026093,837.080872 488.562683,833.634155 
	C448.049866,793.316589 407.574554,752.961121 367.143860,712.561157 
	C349.936462,695.366821 332.856873,678.044617 315.468994,660.530884 
M861.669434,426.265900 
	C870.051331,399.634460 873.684143,372.438293 870.530640,344.606262 
	C868.194824,323.990479 862.456543,304.264587 853.713135,285.390778 
	C835.608459,246.309570 808.090881,216.616089 768.527222,198.546677 
	C733.864441,182.715500 697.513977,175.700836 660.103943,182.892334 
	C602.483582,193.968964 558.705566,226.141663 529.345337,276.944672 
	C521.203918,291.032013 507.606476,294.628693 497.559265,277.474060 
	C485.910370,257.584747 471.265656,239.829346 453.747406,224.586899 
	C419.858643,195.100601 379.888916,181.740631 335.600830,180.549377 
	C316.738800,180.042023 298.182434,182.920685 280.208527,189.295944 
	C246.725510,201.172241 217.235214,218.705063 195.294479,247.393448 
	C166.635284,284.866516 152.570526,326.813873 155.126495,374.287445 
	C156.000290,390.517059 158.444641,406.296051 163.130264,421.766144 
	C174.938049,460.750732 197.111847,493.387482 224.856552,522.678345 
	C266.924896,567.091064 311.037933,609.469421 354.059814,652.932739 
	C399.307678,698.645020 444.684631,744.229492 490.023163,789.851990 
	C490.874390,790.708496 491.474457,792.219604 493.651123,791.491272 
	C493.651123,789.626099 493.651031,787.661621 493.651123,785.697205 
	C493.652832,736.531738 493.607025,687.366272 493.678711,638.200928 
	C493.709198,617.300293 508.227570,598.843079 528.429932,593.409424 
	C540.423279,590.183594 552.621704,592.155457 564.720459,591.692017 
	C571.617493,591.427856 571.815002,591.637207 571.618042,584.756775 
	C570.662476,551.376892 599.186340,523.067932 633.170288,523.540894 
	C663.830322,523.967651 694.501160,523.721497 725.166626,523.603699 
	C742.220825,523.538208 756.675415,529.467285 768.702820,541.479004 
	C770.887390,543.660767 773.082214,545.832336 775.272156,548.008545 
	C813.320679,513.938477 845.218323,476.050690 861.669434,426.265900 
M601.365845,585.912781 
	C601.357544,595.410339 601.367920,604.907898 601.334473,614.405396 
	C601.312195,620.727478 600.821655,621.205627 594.463379,621.212585 
	C576.635132,621.232056 558.806152,621.133240 540.979004,621.279541 
	C530.522461,621.365356 523.462708,628.428467 523.388062,638.894287 
	C523.252686,657.888306 523.429932,676.884583 523.276367,695.878235 
	C523.248840,699.288025 524.691650,700.635193 527.693298,701.268738 
	C533.701050,702.536804 539.689636,703.898315 545.674622,705.271179 
	C571.412903,711.174744 597.478882,715.131836 623.603271,718.864929 
	C635.159790,720.516296 635.760681,720.092651 635.693665,707.837646 
	C635.636475,697.384705 642.735291,689.803223 652.878479,689.696045 
	C669.538757,689.520020 686.203247,689.560181 702.864136,689.709900 
	C710.408203,689.777588 716.919678,694.178101 718.753967,700.496521 
	C719.759033,703.958618 720.067932,707.676636 720.281067,711.303406 
	C720.699402,718.422119 721.580383,719.385681 728.673706,718.875122 
	C741.434570,717.956787 753.984070,715.466370 766.614380,713.599121 
	C785.833069,710.757874 804.776306,706.456116 823.717651,702.202271 
	C830.630432,700.649841 830.552429,699.960632 830.631714,693.015747 
	C830.747742,682.861450 830.085876,672.728760 830.390076,662.560425 
	C830.691589,652.481262 831.950745,642.236450 828.379150,632.366272 
	C825.613220,624.722351 821.175659,621.361084 813.083130,621.304932 
	C796.588257,621.190491 780.092102,621.135681 763.597412,621.230164 
	C759.380188,621.254333 757.552368,619.801697 757.656982,615.406433 
	C757.863098,606.747070 757.306213,598.056458 757.792542,589.419678 
	C758.735535,572.671082 744.140686,553.320801 722.166504,553.875977 
	C693.525940,554.599609 664.853088,554.033325 636.194092,554.055054 
	C632.873108,554.057617 629.537659,554.014282 626.293884,555.026550 
	C611.505310,559.641785 603.606201,569.956360 601.365845,585.912781 
M768.499878,848.635559 
	C782.496216,848.640137 796.492615,848.677002 810.488892,848.639099 
	C821.585449,848.609070 826.925598,844.186462 829.758484,833.570496 
	C831.056458,828.706116 830.052979,823.966614 830.096619,819.173706 
	C830.283203,798.684998 830.598633,778.194763 830.483093,757.707275 
	C830.429810,748.268982 829.898621,738.827576 830.506836,728.989075 
	C828.518311,729.250000 827.038513,729.298523 825.634399,729.649780 
	C792.548035,737.925598 758.988403,743.355042 725.027771,746.332397 
	C722.256042,746.575378 721.245422,747.816650 721.132812,750.396179 
	C720.908020,755.542480 720.492737,760.681030 720.302795,765.828186 
	C719.881714,777.237976 713.827820,783.252258 702.378662,783.295105 
	C685.883240,783.356873 669.387146,783.355835 652.891724,783.295776 
	C641.536255,783.254456 635.261475,777.212708 634.727966,765.836731 
	C634.540771,761.845947 634.320679,757.803833 634.737488,753.850769 
	C635.268250,748.815979 633.047363,747.031860 628.384644,746.623596 
	C622.439941,746.102966 616.535217,745.133057 610.609924,744.382568 
	C589.044128,741.651062 567.473694,738.949341 546.313293,733.764404 
	C538.964844,731.963867 531.617859,730.157227 524.411621,728.388062 
	C522.790039,730.848267 523.371338,733.077759 523.368469,735.175232 
	C523.327148,765.667175 523.343384,796.159241 523.349121,826.651245 
	C523.351990,842.186401 529.716370,848.651611 545.058350,848.651733 
	C619.205505,848.652283 693.352722,848.642517 768.499878,848.635559 
M692.658875,735.500427 
	C692.657288,730.848511 692.568420,726.194458 692.686401,721.545532 
	C692.758789,718.692200 691.860474,717.211365 688.734497,717.259888 
	C681.260071,717.375854 673.782104,717.372192 666.306946,717.288574 
	C663.244690,717.254333 662.288147,718.658752 662.312561,721.554749 
	C662.396606,731.522217 662.403564,741.492126 662.265137,751.458679 
	C662.219421,754.747375 663.553040,755.818115 666.716980,755.753235 
	C673.857971,755.606812 681.006470,755.593506 688.146851,755.753723 
	C691.699951,755.833496 692.805420,754.282288 692.692139,750.952148 
	C692.528503,746.139771 692.655029,741.317566 692.658875,735.500427 
z"></path>
  <path fill="#000000" opacity="1.000000" stroke="none" d="
M728.312378,579.975830 
	C731.569885,581.702393 732.280457,584.303101 732.270569,587.313660 
	C732.239990,596.638000 732.189209,605.963074 732.278687,615.286621 
	C732.318726,619.454285 730.658630,621.247192 726.321228,621.233459 
	C695.684143,621.136414 665.046387,621.153870 634.409180,621.238647 
	C629.917603,621.251099 628.325256,619.580505 628.440918,614.962219 
	C628.665588,605.987000 628.150879,596.996094 628.146423,588.011597 
	C628.142822,580.615173 629.217773,579.630554 636.485962,579.642517 
	C666.953796,579.692749 697.421692,579.768982 728.312378,579.975830 
z"></path>
</svg>