<?xml version="1.0" encoding="utf-8"?>
<svg xmlns="http://www.w3.org/2000/svg" viewBox="-18.204 -174.12 1024.0042 1024.005" width="1024px" height="1024.01px">
  <g id="Layer_1" transform="matrix(1, 0, 0, 1, 0, 2.842170943040401e-14)">
    <path opacity="1.000000" stroke="none" d="M 652.796 849.885 C 428.796 849.885 205.296 849.885 -18.204 849.885 C -18.204 508.551 -18.204 167.218 -18.204 -174.12 C 323.13 -174.12 664.463 -174.12 1005.8 -174.12 C 1005.8 167.218 1005.8 508.551 1005.8 849.885 C 888.296 849.885 770.796 849.885 652.796 849.885 M 770.808 284.279 C 770.489 284.081 770.171 283.882 769.836 283.838 C 769.836 283.838 769.991 283.835 769.8 283.288 C 769.482 283.077 769.165 282.866 768.781 282.233 C 768.643 281.939 768.412 281.8 767.809 281.317 C 767.477 281.145 767.145 280.972 766.814 280.872 C 766.814 280.872 766.882 280.847 766.561 280.325 C 766.043 280.049 765.524 279.773 764.916 279.661 C 764.916 279.661 765.1 279.689 765.001 279.086 C 764.629 278.932 764.257 278.779 763.884 278.77 C 763.884 278.77 764.023 278.727 763.72 278.173 C 763.157 277.936 762.595 277.7 762.135 277.571 C 762.135 277.571 762.181 277.43 761.923 276.904 C 761.239 276.515 760.555 276.125 759.852 275.82 C 759.852 275.82 759.937 275.806 759.628 275.252 C 759.03 275.059 758.431 274.867 757.847 274.813 C 757.847 274.813 757.981 274.772 757.676 274.21 C 757.079 274 756.483 273.79 755.888 273.739 C 755.888 273.739 756.037 273.686 755.683 273.102 C 754.42 272.597 753.158 272.092 751.87 271.738 C 751.87 271.738 752.022 271.715 751.686 271.166 C 751.061 271.031 750.436 270.897 749.819 270.851 C 749.819 270.851 749.906 270.83 749.422 270.264 C 747.222 269.741 745.021 269.219 742.818 268.818 C 742.818 268.818 742.939 268.801 742.404 268.209 C 731.55 267.81 720.696 267.411 709.302 266.786 C 709.087 266.471 708.871 266.156 708.78 264.916 C 708.787 260.267 708.794 255.617 708.8 250.968 C 708.844 211.947 708.888 172.926 709.592 133.703 C 718.923 128.654 728.273 123.639 737.58 118.543 C 742.719 115.729 746.197 111.695 745.813 105.457 C 745.432 99.261 742.055 95.35 736.443 92.609 C 705.757 77.619 675.185 62.396 644.557 47.287 C 617.973 34.173 591.366 21.103 564.265 7.783 C 563.927 7.647 563.588 7.512 563.135 7.386 C 563.135 7.386 563.049 7.462 562.632 6.947 C 559.391 5.503 556.149 4.06 552.887 2.744 C 552.887 2.744 553.012 2.712 552.689 2.167 C 552.085 1.987 551.482 1.808 550.875 1.764 C 550.875 1.764 551.004 1.723 550.683 1.179 C 550.085 0.988 549.488 0.798 548.884 0.748 C 548.884 0.748 549.017 0.704 548.689 0.161 C 548.084 -0.013 547.479 -0.188 546.87 -0.231 C 546.87 -0.231 546.995 -0.269 546.656 -0.801 C 546.056 -0.977 545.456 -1.153 544.858 -1.207 C 544.858 -1.207 544.975 -1.243 544.632 -1.766 C 544.042 -1.957 543.452 -2.148 542.862 -2.213 C 542.862 -2.213 542.982 -2.251 542.658 -2.791 C 542.065 -2.985 541.473 -3.18 540.875 -3.239 C 540.875 -3.239 541.005 -3.28 540.668 -3.812 C 540.069 -3.996 539.471 -4.179 538.871 -4.229 C 538.871 -4.229 538.999 -4.269 538.669 -4.811 C 538.069 -4.993 537.47 -5.176 536.866 -5.227 C 536.866 -5.227 536.992 -5.263 536.637 -5.78 C 536.039 -5.953 535.441 -6.126 534.848 -6.188 C 534.848 -6.188 534.954 -6.221 534.629 -6.757 C 534.042 -6.955 533.454 -7.152 532.866 -7.22 C 532.866 -7.22 532.99 -7.259 532.659 -7.791 C 532.071 -7.992 531.483 -8.194 530.888 -8.255 C 530.888 -8.255 531.021 -8.301 530.693 -8.844 C 530.09 -9.024 529.487 -9.204 528.874 -9.249 C 528.874 -9.249 529.004 -9.287 528.654 -9.832 C 527.883 -10.119 527.111 -10.405 526.216 -10.767 C 526.216 -10.767 526.13 -10.884 525.737 -11.318 C 524.796 -11.676 523.855 -12.035 522.892 -12.265 C 522.892 -12.265 523.018 -12.298 522.693 -12.851 C 522.074 -12.996 521.454 -13.141 520.837 -13.18 C 520.837 -13.18 520.939 -13.205 520.657 -13.799 C 520.067 -14.076 519.476 -14.352 518.611 -14.956 C 518.35 -15.105 518.074 -15.144 517.265 -15.522 C 515.152 -16.484 513.039 -17.445 510.9 -18.275 C 510.9 -18.275 511.029 -18.309 510.718 -18.858 C 510.128 -19.062 509.537 -19.267 508.911 -19.329 C 508.911 -19.329 509.053 -19.367 508.643 -19.939 C 507.107 -20.487 505.572 -21.035 503.934 -21.501 C 503.934 -21.501 504.049 -21.439 503.583 -22.011 C 500.661 -22.513 497.751 -23.347 494.814 -23.459 C 483.238 -23.902 474.137 -17.454 464.725 -12.225 C 464.725 -12.225 464.72 -12.354 464.094 -12.25 C 463.589 -11.929 463.085 -11.607 462.711 -11.247 C 462.711 -11.247 462.701 -11.383 462.082 -11.268 C 461.591 -10.929 461.1 -10.589 460.71 -10.232 C 460.71 -10.232 460.682 -10.331 460.227 -10.233 C 460.227 -10.233 459.813 -10.019 459.112 -9.955 C 405.097 16.63 351.067 43.183 297.077 69.818 C 280.861 77.818 264.729 85.991 248.617 94.199 C 243.49 96.811 241.346 101.311 241.771 106.995 C 242.308 114.173 247.313 117.266 253.183 120.009 C 306.335 144.845 359.462 169.732 412.515 194.778 C 436.351 206.03 460.014 217.651 483.728 229.16 C 491.077 232.727 498.106 232.759 505.595 229.06 C 541.41 211.37 577.352 193.937 613.223 176.359 C 614.582 175.692 615.665 174.46 616.877 173.492 C 615.733 172.481 614.75 171.119 613.422 170.513 C 603.174 165.837 592.839 161.353 582.569 156.724 C 550.544 142.291 518.526 127.842 486.532 113.339 C 482.271 111.407 479.688 106.009 480.213 100.929 C 480.805 95.207 483.821 91.32 488.507 89.827 C 494.47 87.928 500.014 89.496 505.406 91.781 C 537.559 105.408 569.679 119.112 602.225 133.007 C 602.225 133.007 602.685 133.1 602.712 133.003 C 602.712 133.003 602.613 133.021 603 133.604 C 604.518 134.173 606.037 134.741 607.737 135.223 C 607.737 135.223 607.537 135.247 607.972 135.782 C 610.177 136.618 612.383 137.454 614.642 138.167 C 614.642 138.167 614.52 138.221 614.921 138.757 C 616.189 139.202 617.458 139.646 618.736 139.98 C 618.736 139.98 618.628 140.005 619.025 140.595 C 622.838 142.183 626.652 143.77 630.511 145.333 C 630.511 145.333 630.549 145.298 630.961 145.817 C 633.555 146.895 636.148 147.973 638.746 148.956 C 638.746 148.956 638.654 148.979 639.062 149.556 C 641.948 150.737 644.834 151.918 647.733 152.987 C 647.733 152.987 647.623 153.012 648.008 153.557 C 648.849 153.819 649.69 154.081 650.659 154.328 C 650.659 154.328 650.539 154.279 650.967 154.804 C 655.217 156.573 659.466 158.341 663.731 159.993 C 663.731 159.993 663.617 160.018 664.025 160.597 C 666.939 161.728 669.853 162.858 672.768 163.91 C 672.768 163.91 672.696 163.94 673.067 164.424 C 673.623 164.664 674.179 164.903 674.729 165.549 C 674.729 165.549 674.905 165.916 674.808 166.845 C 674.846 199.842 674.884 232.839 674.763 266.256 C 674.763 266.256 674.762 266.706 673.84 266.862 C 665.507 266.91 657.173 266.957 648.323 266.766 C 648.108 266.461 647.893 266.156 647.785 264.923 C 647.745 243.594 647.705 222.265 647.827 200.061 C 647.775 197.99 647.724 195.919 647.762 193.137 C 646.658 190.335 644.964 190.275 642.202 192.236 C 635.13 196.011 628.057 199.787 620.324 203.755 C 619.771 204.106 619.219 204.456 618.748 204.83 C 618.748 204.83 618.748 204.745 618.201 204.829 C 617.953 205.062 617.706 205.296 617.573 205.449 C 617.573 205.449 617.451 205.381 616.818 205.496 C 616.104 205.934 615.39 206.371 614.757 206.834 C 614.757 206.834 614.763 206.749 614.142 206.836 C 613.647 207.155 613.151 207.475 612.749 207.822 C 612.749 207.822 612.753 207.724 612.13 207.824 C 611.616 208.122 611.102 208.421 610.717 208.754 C 610.717 208.754 610.705 208.62 610.085 208.719 C 609.596 209.065 609.107 209.412 608.734 209.791 C 608.734 209.791 608.731 209.672 608.102 209.766 C 607.602 210.091 607.102 210.415 606.719 210.768 C 606.719 210.768 606.705 210.649 606.037 210.783 C 604.888 211.429 603.739 212.076 602.717 212.761 C 602.717 212.761 602.71 212.628 602.086 212.736 C 601.581 213.057 601.075 213.377 600.704 213.738 C 600.704 213.738 600.689 213.598 600.072 213.711 C 599.579 214.051 599.086 214.39 598.719 214.766 C 598.719 214.766 598.711 214.635 598.098 214.745 C 597.61 215.089 597.123 215.432 596.739 215.807 C 596.739 215.807 596.741 215.699 596.124 215.796 C 595.623 216.118 595.122 216.44 594.735 216.794 C 594.735 216.794 594.733 216.676 594.11 216.76 C 593.617 217.097 593.123 217.434 592.738 217.804 C 592.738 217.804 592.739 217.691 592.133 217.803 C 591.648 218.141 591.164 218.478 590.758 218.84 C 590.758 218.84 590.765 218.757 590.139 218.831 C 589.632 219.14 589.125 219.449 588.734 219.79 C 588.734 219.79 588.732 219.67 588.106 219.768 C 587.607 220.095 587.108 220.422 586.729 220.785 C 586.729 220.785 586.727 220.661 586.106 220.772 C 585.601 221.09 585.096 221.409 584.718 221.763 C 584.718 221.763 584.709 221.632 584.095 221.74 C 583.617 222.093 583.138 222.446 582.744 222.824 C 582.744 222.824 582.745 222.736 582.208 222.843 C 581.961 223.067 581.715 223.291 581.543 223.39 C 581.543 223.39 581.407 223.338 580.772 223.431 C 580.056 223.874 579.34 224.316 578.737 224.791 C 578.737 224.791 578.734 224.674 578.105 224.761 C 577.594 225.073 577.083 225.385 576.704 225.737 C 576.704 225.737 576.689 225.601 576.071 225.716 C 575.575 226.049 575.079 226.383 574.707 226.744 C 574.707 226.744 574.683 226.619 573.983 226.744 C 572.168 227.658 570.354 228.572 568.536 229.413 C 568.536 229.413 568.467 229.391 567.763 229.508 C 565.689 230.508 563.615 231.508 561.556 232.436 C 561.556 232.436 561.484 232.414 560.916 232.545 C 560.45 232.859 559.984 233.172 559.511 233.416 C 559.511 233.416 559.443 233.397 558.783 233.545 C 557.404 234.29 556.024 235.036 554.741 235.806 C 554.741 235.806 554.736 235.707 554.066 235.83 C 552.917 236.472 551.767 237.113 550.727 237.78 C 550.727 237.78 550.714 237.668 549.988 237.78 C 547.497 239.026 545.005 240.272 542.681 241.562 C 542.681 241.562 542.554 241.445 541.906 241.552 C 541.171 241.978 540.435 242.403 539.771 242.863 C 539.771 242.863 539.765 242.785 539.134 242.878 C 538.259 243.409 537.385 243.94 536.459 244.481 C 536.459 244.481 536.452 244.428 535.826 244.6 C 534.724 245.254 533.621 245.909 532.649 246.577 C 532.649 246.577 532.576 246.468 531.992 246.577 C 531.504 246.863 531.017 247.149 530.455 247.428 C 530.455 247.428 530.384 247.404 529.776 247.592 C 528.69 248.234 527.603 248.876 526.601 249.457 C 526.601 249.457 526.498 249.44 525.859 249.592 C 524.744 250.243 523.63 250.893 522.662 251.527 C 522.662 251.527 522.529 251.464 521.855 251.627 C 520.073 252.603 518.29 253.579 516.502 254.469 C 516.502 254.469 516.417 254.455 515.7 254.634 C 505.823 258.645 495.781 261.689 485.002 258.847 C 480.273 257.601 475.647 255.962 470.937 254.638 C 470.937 254.638 471.07 254.588 470.658 254.034 C 467.83 252.826 465.002 251.617 462.105 250.413 C 462.105 250.413 462.132 250.476 461.896 249.99 C 461.548 249.901 461.199 249.812 460.85 249.816 C 460.85 249.816 460.939 249.789 460.524 249.236 C 459.054 248.635 457.585 248.033 456.074 247.452 C 456.074 247.452 456.059 247.497 455.64 246.972 C 451.494 245.11 447.348 243.248 443.127 241.416 C 443.127 241.416 443.056 241.378 442.733 240.938 C 442.225 240.746 441.718 240.553 441.114 240.38 C 441.114 240.38 441.038 240.442 440.655 239.901 C 436.073 237.763 431.491 235.625 426.435 232.999 C 399.547 220.331 372.66 207.663 345.201 194.699 C 344.424 194.364 343.648 194.029 342.86 193.793 C 342.86 193.793 342.956 193.769 342.538 193.163 C 337.394 191.028 335.923 191.919 335.896 197.409 C 335.783 220.562 335.716 243.715 335.772 266.896 C 335.772 266.896 335.799 266.755 334.864 266.871 C 310.41 266.875 285.954 266.732 261.503 266.982 C 255.272 267.045 249.055 268.353 242.261 269.014 C 242.118 269.141 241.974 269.268 241.22 269.611 C 240.528 269.99 239.836 270.368 238.444 270.611 C 217.404 277.389 201.428 299.713 200.825 323.863 C 200.867 347.851 200.908 371.838 200.821 396.663 C 202.323 410.885 208.742 422.464 219.696 431.557 C 231.652 441.482 246.414 442.056 261.635 443.966 C 319.87 451.408 377.679 462.307 435.813 465.749 C 436.9 455.91 437.948 446.419 438.876 436.93 C 438.876 436.93 438.906 437.047 439.472 436.757 C 439.665 436.16 439.858 435.563 439.915 434.964 C 439.915 434.964 439.957 435.093 440.511 434.773 C 440.992 433.827 441.473 432.881 442.551 431.639 C 447.723 424.465 454.691 420.164 463.498 418.649 C 463.498 418.649 463.619 418.663 464.042 418.836 C 464.35 418.551 464.658 418.267 465.881 417.938 C 475.15 417.926 484.42 417.847 493.688 417.917 C 507.142 418.018 520.759 416.702 533.503 422.15 C 533.503 422.15 533.466 422.294 533.78 422.838 C 535.431 423.898 537.082 424.958 538.76 425.923 C 538.76 425.923 538.661 425.912 538.866 426.425 C 539.169 426.618 539.472 426.812 539.964 427.525 C 540.516 427.991 541.068 428.458 541.833 429.446 C 542.143 429.645 542.452 429.844 542.764 429.913 C 542.764 429.913 542.635 429.925 542.835 430.454 C 543.142 430.653 543.45 430.853 543.761 430.915 C 543.761 430.915 543.623 430.926 543.805 431.479 C 544.109 431.691 544.414 431.903 544.71 431.938 C 544.71 431.938 544.538 431.976 544.683 432.57 C 544.995 432.776 545.308 432.983 545.581 432.982 C 545.581 432.982 545.393 433.076 545.441 433.707 C 545.805 434.187 546.168 434.666 546.546 434.996 C 546.546 434.996 546.408 435.055 546.468 435.691 C 546.844 436.174 547.22 436.656 547.648 436.982 C 547.648 436.982 547.484 436.985 547.573 437.678 C 547.992 438.745 548.41 439.812 548.769 441.48 C 549.053 441.961 549.338 442.442 549.718 443.565 C 549.788 443.992 549.857 444.419 549.79 445.442 C 550.057 445.937 550.324 446.431 550.678 447.853 C 550.678 453.865 550.678 459.877 550.678 466.233 C 556.257 465.681 560.999 465.212 566.586 464.846 C 581.556 463.278 596.548 461.886 611.492 460.094 C 628.559 458.048 645.606 455.806 662.62 453.358 C 688.011 449.705 713.281 445.053 738.757 442.205 C 764.346 439.345 781.766 424.451 786.759 397.997 C 786.922 396.016 787.221 394.035 787.225 392.053 C 787.272 368.934 787.349 345.815 787.215 322.697 C 787.192 318.772 786.211 314.852 785.738 310.17 C 782.533 303.716 779.329 297.261 775.867 290.238 C 775.546 290.039 775.224 289.84 774.981 289.835 C 774.981 289.835 775.162 289.727 775.097 289.085 C 774.68 288.621 774.264 288.156 773.761 287.253 C 773.599 286.963 773.351 286.822 772.782 286.306 C 772.469 286.101 772.157 285.896 771.847 285.846 C 771.847 285.846 772 285.823 771.808 285.279 C 771.489 285.081 771.17 284.883 770.845 284.839 C 770.845 284.839 770.998 284.825 770.808 284.279 M 441.903 528.821 C 441.903 528.821 442.081 528.785 441.956 528.142 C 441.597 527.639 441.238 527.135 440.854 526.086 C 440.553 525.671 440.253 525.257 439.847 524.301 C 439.625 524.061 439.402 523.822 439.227 523.532 C 439.227 523.532 439.242 523.464 439.065 522.717 C 437.961 512.625 436.858 502.533 435.71 492.028 C 422.787 491.369 409.307 490.681 395.404 489.85 C 395.404 489.85 394.957 489.835 394.491 489.16 C 388.596 488.697 382.701 488.234 376.819 487.851 C 376.819 487.851 376.897 487.826 376.421 487.171 C 361.881 485.114 347.341 483.056 332.143 480.861 C 331.695 480.876 331.248 480.891 330.097 480.568 C 310.006 477.681 289.928 474.707 269.822 471.936 C 253.985 469.754 237.818 469.332 222.86 462.793 C 222.86 462.793 222.967 462.765 222.636 462.231 C 222.039 462.052 221.442 461.873 220.85 461.807 C 220.85 461.807 220.959 461.774 220.641 461.233 C 220.054 461.032 219.466 460.832 218.877 460.765 C 218.877 460.765 219.004 460.722 218.684 460.171 C 217.738 459.71 216.791 459.249 215.822 458.869 C 215.822 458.869 215.895 458.829 215.573 458.32 C 215.048 458.048 214.522 457.775 213.945 457.678 C 213.945 457.678 214.127 457.652 213.908 457.126 C 213.563 456.978 213.217 456.83 212.872 456.791 C 212.872 456.791 212.975 456.754 212.62 456.163 C 211.458 455.484 210.297 454.805 208.742 453.895 C 208.834 455.633 208.894 456.766 208.819 458.822 C 208.855 463.827 208.89 468.831 208.764 474.6 C 208.818 475.376 208.872 476.152 208.817 477.741 C 208.854 479.105 208.89 480.47 208.763 482.673 C 208.817 484.09 208.87 485.508 208.816 487.65 C 208.852 488.379 208.888 489.108 208.763 490.601 C 208.817 491.377 208.871 492.152 208.816 493.854 C 208.853 506.846 208.89 519.839 208.765 533.691 C 208.818 535.437 208.871 537.183 208.815 539.787 C 208.852 541.802 208.889 543.818 208.763 546.722 C 208.817 549.124 208.871 551.526 208.816 554.854 C 208.86 578.512 208.904 602.169 208.789 626.516 C 208.931 627.658 209.074 628.799 209.421 630.711 C 209.83 632.163 210.239 633.616 210.615 634.92 C 210.615 634.92 210.478 634.985 210.547 635.705 C 210.695 636.409 210.842 637.113 211.04 638.547 C 216.338 654.83 226.027 667.367 242.517 675.021 C 250.362 676.647 258.205 679.677 266.054 679.691 C 417.471 679.97 568.889 679.942 720.306 679.727 C 726.511 679.718 732.713 677.271 738.834 675.943 C 738.834 675.943 738.838 676.026 739.481 675.935 C 739.905 675.868 740.329 675.8 741.46 675.677 C 759.657 667.636 771.635 654.245 776.81 634.005 C 777.14 631.061 777.754 628.118 777.757 625.174 C 777.814 569.592 777.801 514.009 777.79 458.427 C 777.79 457.04 777.646 455.654 777.494 452.897 C 775.972 454.805 775.25 455.709 774.669 456.601 C 774.669 456.601 774.588 456.487 773.976 456.607 C 773.529 456.996 773.081 457.386 772.731 457.804 C 772.731 457.804 772.728 457.702 772.195 457.857 C 771.95 458.097 771.705 458.337 771.587 458.503 C 771.587 458.503 771.464 458.424 770.896 458.584 C 770.478 458.984 770.06 459.385 769.744 459.815 C 769.744 459.815 769.747 459.708 769.14 459.817 C 768.655 460.151 768.169 460.485 767.759 460.848 C 767.759 460.848 767.758 460.768 767.209 460.871 C 766.96 461.115 766.711 461.359 766.607 461.552 C 766.607 461.552 766.491 461.452 765.793 461.651 C 759.75 463.749 753.856 466.728 747.636 467.777 C 730.773 470.622 713.773 472.648 695.983 474.95 C 682.328 477.126 668.696 479.456 655.013 481.438 C 639.389 483.702 623.75 485.922 608.064 487.672 C 591.994 489.465 575.859 490.667 558.894 492.067 C 556.196 492.35 553.497 492.632 550.108 492.987 C 550.108 500.943 550.108 508.395 549.76 516.426 C 547.792 524.076 544.037 530.622 537.266 535.889 C 536.459 536.561 535.652 537.232 534.812 537.875 C 534.812 537.875 534.809 537.918 534.08 538.054 C 527.562 539.506 521.095 541.834 514.514 542.217 C 502.791 542.899 490.989 542.711 479.241 542.296 C 471.412 542.02 463.619 540.721 455.386 539.386 C 454.213 538.842 453.039 538.299 451.837 537.844 C 451.837 537.844 451.922 537.806 451.597 537.272 C 450.717 536.731 449.836 536.19 448.896 535.769 C 448.896 535.769 449.029 535.787 448.823 535.245 C 448.506 535.033 448.189 534.821 447.661 534.11 C 447.092 533.685 446.523 533.26 445.685 532.285 C 445.075 531.757 444.464 531.229 443.749 530.27 C 443.592 529.983 443.35 529.833 442.795 529.296 C 442.498 529.077 442.201 528.858 441.903 528.821 M 464.854 513.746 C 466.145 514.11 467.432 514.769 468.728 514.789 C 475.545 514.894 482.363 514.837 489.181 514.837 C 500.27 514.836 511.358 514.837 522.537 514.837 C 522.537 491.683 522.537 469.01 522.537 445.997 C 503.811 445.997 485.384 445.977 466.958 446.077 C 466.284 446.08 465.615 447.255 464.816 448.813 C 464.857 470.171 464.899 491.528 464.854 513.746 Z" style="stroke-width: 1; fill: rgba(255, 255, 255, 0);"/>
    <path fill="#F5701A" opacity="1.000000" stroke="none" d="M 541.62 428.924 C 541.068 428.458 540.516 427.991 539.757 427.018 C 539.254 426.311 538.958 426.111 538.661 425.912 C 538.661 425.912 538.76 425.923 538.727 425.615 C 536.952 424.303 535.209 423.299 533.466 422.294 C 533.466 422.294 533.503 422.15 533.461 421.836 C 528.269 419.978 523.159 417.285 517.96 417.104 C 501.378 416.526 484.763 416.834 468.161 416.952 C 466.563 416.963 464.974 418.036 463.38 418.615 C 454.691 420.164 447.723 424.465 441.88 431.817 C 440.792 433.027 440.374 434.06 439.957 435.093 C 439.957 435.093 439.915 434.964 439.674 435.091 C 439.258 435.827 439.082 436.437 438.906 437.047 C 438.906 437.047 438.876 436.93 438.603 437.1 C 433.438 445.737 435.239 455.252 434.621 465.021 C 429.378 463.917 424.813 462.59 420.158 462.065 C 413.838 461.353 407.415 461.552 401.096 460.835 C 382.323 458.706 363.557 456.487 344.833 453.966 C 335.22 452.671 325.739 450.403 316.133 449.034 C 302.58 447.102 288.982 445.455 275.37 443.985 C 270.57 443.466 265.674 443.824 260.822 443.781 C 246.414 442.056 231.652 441.482 219.696 431.557 C 208.742 422.464 202.323 410.885 201.157 395.937 C 201.593 394.562 201.78 393.913 201.78 393.263 C 201.796 371.075 201.808 348.886 201.762 326.698 C 201.759 325.447 201.258 324.197 200.989 322.947 C 201.428 299.713 217.404 277.389 239.199 270.716 C 240.9 270.506 241.846 270.19 243.214 269.875 C 253.365 269.217 263.086 268.142 272.821 267.988 C 291.947 267.686 311.081 267.929 330.211 267.846 C 332.075 267.838 333.936 267.135 335.799 266.755 C 335.799 266.755 335.772 266.896 336.039 266.624 C 336.804 258.358 337.603 250.369 337.735 242.369 C 337.97 228.118 337.794 213.86 337.813 199.605 C 337.815 197.841 337.958 196.078 338.041 194.198 C 340.016 194.026 341.486 193.897 342.956 193.769 C 342.956 193.769 342.86 193.793 342.945 194.043 C 343.945 194.528 344.859 194.761 345.773 194.995 C 372.66 207.663 399.547 220.331 426.673 233.619 C 431.303 237.031 435.222 240.897 441.038 240.442 C 441.038 240.442 441.114 240.38 441.155 240.732 C 441.816 241.183 442.436 241.28 443.056 241.378 C 443.056 241.378 443.127 241.416 443.159 241.77 C 447.481 243.914 451.77 245.705 456.059 247.497 C 456.059 247.497 456.074 247.452 456.109 247.838 C 457.742 248.746 459.341 249.268 460.939 249.789 C 460.939 249.789 460.85 249.816 460.966 250.032 C 461.431 250.324 461.782 250.4 462.132 250.476 C 462.132 250.476 462.105 250.413 462.149 250.78 C 465.152 252.294 468.111 253.441 471.07 254.588 C 471.07 254.588 470.937 254.638 471.05 254.927 C 485.611 263.543 500.413 262.222 515.321 256.734 C 515.889 256.525 516.061 255.239 516.417 254.455 C 516.417 254.455 516.502 254.469 516.885 254.596 C 519.022 253.637 520.775 252.55 522.529 251.463 C 522.529 251.464 522.662 251.527 522.969 251.647 C 524.35 250.991 525.424 250.215 526.498 249.44 C 526.498 249.44 526.601 249.457 526.938 249.608 C 528.312 248.974 529.348 248.189 530.384 247.404 C 530.384 247.404 530.455 247.428 530.827 247.559 C 531.658 247.283 532.117 246.876 532.576 246.468 C 532.576 246.468 532.649 246.577 532.965 246.676 C 534.339 245.992 535.395 245.21 536.452 244.428 C 536.452 244.428 536.459 244.481 536.825 244.595 C 538.049 244.068 538.907 243.426 539.765 242.785 C 539.765 242.785 539.771 242.863 540.103 242.858 C 541.142 242.383 541.848 241.914 542.554 241.445 C 542.554 241.445 542.681 241.562 542.983 241.659 C 545.761 240.393 548.238 239.031 550.714 237.668 C 550.714 237.668 550.727 237.78 551.043 237.808 C 552.485 237.126 553.611 236.417 554.736 235.707 C 554.736 235.707 554.741 235.806 555.089 235.827 C 556.772 235.031 558.108 234.214 559.443 233.397 C 559.443 233.397 559.511 233.416 559.858 233.558 C 560.632 233.271 561.058 232.842 561.484 232.414 C 561.484 232.414 561.556 232.436 561.929 232.594 C 564.357 231.632 566.412 230.511 568.467 229.391 C 568.467 229.391 568.536 229.413 568.911 229.578 C 571.085 228.702 572.884 227.661 574.683 226.619 C 574.683 226.619 574.707 226.744 574.985 226.762 C 575.739 226.387 576.214 225.994 576.689 225.601 C 576.689 225.601 576.704 225.737 576.975 225.758 C 577.742 225.411 578.238 225.042 578.734 224.674 C 578.734 224.674 578.737 224.791 579.06 224.811 C 580.057 224.334 580.732 223.836 581.407 223.338 C 581.407 223.338 581.543 223.39 581.792 223.481 C 582.275 223.294 582.51 223.015 582.745 222.736 C 582.745 222.736 582.744 222.824 583.033 222.814 C 583.784 222.413 584.247 222.022 584.709 221.632 C 584.709 221.632 584.718 221.763 584.991 221.773 C 585.752 221.408 586.239 221.034 586.727 220.661 C 586.727 220.661 586.729 220.785 587.004 220.789 C 587.763 220.418 588.247 220.044 588.732 219.67 C 588.732 219.67 588.734 219.79 589.004 219.793 C 589.772 219.45 590.268 219.103 590.765 218.757 C 590.765 218.757 590.758 218.84 591.043 218.822 C 591.799 218.433 592.269 218.062 592.739 217.691 C 592.739 217.691 592.738 217.804 593.016 217.8 C 593.773 217.422 594.253 217.049 594.733 216.676 C 594.733 216.676 594.735 216.794 595.009 216.791 C 595.769 216.425 596.255 216.062 596.741 215.699 C 596.741 215.699 596.739 215.807 597.02 215.8 C 597.772 215.406 598.241 215.021 598.711 214.635 C 598.711 214.635 598.719 214.766 598.995 214.774 C 599.745 214.386 600.217 213.992 600.689 213.598 C 600.689 213.598 600.704 213.738 600.977 213.755 C 601.736 213.392 602.223 213.01 602.71 212.628 C 602.71 212.628 602.717 212.761 603.029 212.792 C 604.462 212.099 605.583 211.374 606.705 210.649 C 606.705 210.649 606.719 210.768 606.996 210.781 C 607.759 210.42 608.245 210.046 608.731 209.672 C 608.731 209.672 608.734 209.791 609.012 209.792 C 609.762 209.401 610.233 209.011 610.705 208.62 C 610.705 208.62 610.717 208.754 610.985 208.767 C 611.753 208.428 612.253 208.076 612.753 207.724 C 612.753 207.724 612.749 207.822 613.026 207.813 C 613.79 207.453 614.276 207.101 614.763 206.749 C 614.763 206.749 614.757 206.834 615.088 206.84 C 616.097 206.358 616.774 205.869 617.451 205.381 C 617.451 205.381 617.573 205.449 617.803 205.513 C 618.272 205.3 618.51 205.023 618.748 204.745 C 618.748 204.745 618.748 204.83 619.06 204.808 C 619.91 204.379 620.447 203.971 620.984 203.562 C 628.057 199.787 635.13 196.011 642.762 192.392 C 644.772 192.981 646.222 193.415 647.672 193.849 C 647.724 195.919 647.775 197.99 647.468 200.803 C 647.016 222.405 646.916 243.266 646.865 264.128 C 646.863 264.701 647.395 265.277 647.679 265.851 C 647.893 266.156 648.108 266.461 648.884 267.165 C 656.213 267.674 662.98 267.866 669.746 267.837 C 671.42 267.83 673.09 267.102 674.762 266.706 C 674.762 266.706 674.763 266.256 675.121 265.742 C 675.582 264.578 675.777 263.929 675.777 263.279 C 675.794 232.064 675.804 200.848 675.758 169.633 C 675.757 168.394 675.202 167.155 674.905 165.916 C 674.905 165.916 674.729 165.549 674.604 165.047 C 673.884 164.344 673.29 164.142 672.696 163.94 C 672.696 163.94 672.768 163.91 672.636 163.618 C 669.542 162.223 666.579 161.12 663.617 160.018 C 663.617 160.018 663.731 159.993 663.621 159.702 C 659.188 157.7 654.864 155.99 650.539 154.279 C 650.539 154.279 650.659 154.328 650.524 153.967 C 649.467 153.408 648.545 153.21 647.623 153.012 C 647.623 153.012 647.733 152.987 647.624 152.694 C 644.561 151.261 641.607 150.12 638.654 148.979 C 638.654 148.979 638.746 148.956 638.632 148.659 C 635.861 147.341 633.205 146.319 630.549 145.298 C 630.549 145.298 630.511 145.333 630.461 144.976 C 626.484 143.081 622.556 141.543 618.628 140.005 C 618.628 140.005 618.736 139.98 618.618 139.679 C 617.173 138.992 615.846 138.607 614.52 138.221 C 614.52 138.221 614.642 138.167 614.533 137.866 C 612.128 136.793 609.833 136.02 607.537 135.247 C 607.537 135.247 607.737 135.223 607.572 134.896 C 605.809 134.053 604.211 133.537 602.613 133.021 C 602.613 133.021 602.712 133.003 602.672 132.856 C 602.358 132.735 602.084 132.762 601.81 132.79 C 569.679 119.112 537.559 105.408 505.406 91.781 C 500.014 89.496 494.47 87.928 488.507 89.827 C 483.821 91.32 480.805 95.207 480.213 100.929 C 479.688 106.009 482.271 111.407 486.532 113.339 C 518.526 127.842 550.544 142.291 582.569 156.724 C 592.839 161.353 603.174 165.837 613.422 170.513 C 614.75 171.119 615.733 172.481 616.877 173.492 C 615.665 174.46 614.582 175.692 613.223 176.359 C 577.352 193.937 541.41 211.37 505.595 229.06 C 498.106 232.759 491.077 232.727 483.728 229.16 C 460.014 217.651 436.351 206.03 412.515 194.778 C 359.462 169.732 306.335 144.845 253.183 120.009 C 247.313 117.266 242.308 114.173 241.771 106.995 C 241.346 101.311 243.49 96.811 248.617 94.199 C 264.729 85.991 280.861 77.818 297.077 69.818 C 351.067 43.183 405.097 16.63 459.576 -9.83 C 460.255 -9.914 460.468 -10.123 460.682 -10.331 C 460.682 -10.331 460.71 -10.232 460.997 -10.221 C 461.756 -10.601 462.229 -10.992 462.701 -11.383 C 462.701 -11.383 462.711 -11.247 462.984 -11.233 C 463.745 -11.596 464.233 -11.975 464.72 -12.354 C 464.72 -12.354 464.725 -12.225 465.056 -12.199 C 469.766 -14.111 474.217 -15.906 478.507 -18.024 C 484.276 -20.872 490.194 -22.752 496.718 -22.104 C 499.159 -21.862 501.605 -21.66 504.049 -21.439 C 504.049 -21.439 503.934 -21.501 504.055 -21.164 C 505.802 -20.34 507.427 -19.854 509.053 -19.367 C 509.053 -19.367 508.911 -19.329 509.029 -19.068 C 509.774 -18.64 510.401 -18.475 511.029 -18.309 C 511.029 -18.309 510.9 -18.275 510.986 -17.993 C 513.309 -16.831 515.546 -15.952 517.782 -15.073 C 518.074 -15.144 518.35 -15.105 518.849 -14.453 C 519.705 -13.703 520.322 -13.454 520.939 -13.205 C 520.939 -13.205 520.837 -13.18 520.991 -12.937 C 521.769 -12.562 522.394 -12.43 523.018 -12.298 C 523.018 -12.298 522.892 -12.265 522.992 -11.968 C 524.104 -11.409 525.117 -11.146 526.13 -10.884 C 526.13 -10.884 526.216 -10.767 526.233 -10.347 C 527.168 -9.714 528.087 -9.5 529.004 -9.287 C 529.004 -9.287 528.874 -9.249 529.007 -9.001 C 529.767 -8.602 530.394 -8.452 531.021 -8.301 C 531.021 -8.301 530.888 -8.255 531.011 -8.01 C 531.753 -7.596 532.372 -7.427 532.99 -7.259 C 532.99 -7.259 532.866 -7.22 532.996 -6.98 C 533.736 -6.567 534.345 -6.394 534.954 -6.221 C 534.954 -6.221 534.848 -6.188 534.992 -5.947 C 535.755 -5.559 536.374 -5.411 536.992 -5.263 C 536.992 -5.263 536.866 -5.227 537 -4.983 C 537.756 -4.583 538.377 -4.426 538.999 -4.269 C 538.999 -4.269 538.871 -4.229 539.004 -3.986 C 539.76 -3.588 540.382 -3.434 541.005 -3.28 C 541.005 -3.28 540.875 -3.239 541.003 -2.996 C 541.748 -2.585 542.365 -2.418 542.982 -2.251 C 542.982 -2.251 542.862 -2.213 542.996 -1.972 C 543.744 -1.567 544.36 -1.405 544.975 -1.243 C 544.975 -1.243 544.858 -1.207 544.996 -0.965 C 545.755 -0.571 546.375 -0.42 546.995 -0.269 C 546.995 -0.269 546.87 -0.231 547.004 0.016 C 547.764 0.409 548.391 0.557 549.017 0.704 C 549.017 0.704 548.884 0.748 549.009 0.995 C 549.758 1.402 550.381 1.562 551.004 1.723 C 551.004 1.723 550.875 1.764 551.008 2.008 C 551.765 2.406 552.388 2.559 553.012 2.712 C 553.012 2.712 552.887 2.744 552.983 3.032 C 556.402 4.701 559.726 6.082 563.049 7.462 C 563.049 7.462 563.135 7.386 563.123 7.67 C 563.664 7.974 564.216 7.994 564.769 8.014 C 591.366 21.103 617.973 34.173 644.557 47.287 C 675.185 62.396 705.757 77.619 736.443 92.609 C 742.055 95.35 745.432 99.261 745.813 105.457 C 746.197 111.695 742.719 115.729 737.58 118.543 C 728.273 123.639 718.923 128.654 708.928 134.062 C 708.107 135.558 707.812 136.693 707.811 137.829 C 707.787 179.087 707.782 220.345 707.827 261.603 C 707.829 263.016 708.367 264.428 708.655 265.841 C 708.871 266.156 709.087 266.471 709.876 267.177 C 721.279 267.98 732.109 268.39 742.939 268.801 C 742.939 268.801 742.818 268.818 742.999 269.092 C 745.423 269.854 747.665 270.342 749.906 270.83 C 749.906 270.83 749.819 270.851 749.976 271.096 C 750.763 271.466 751.392 271.591 752.022 271.715 C 752.022 271.715 751.87 271.738 751.98 272.027 C 753.406 272.773 754.721 273.229 756.037 273.686 C 756.037 273.686 755.888 273.739 756.006 273.979 C 756.744 274.403 757.362 274.588 757.981 274.772 C 757.981 274.772 757.847 274.813 757.983 275.041 C 758.724 275.448 759.331 275.627 759.937 275.806 C 759.937 275.806 759.852 275.82 759.881 276.141 C 760.668 276.785 761.424 277.107 762.181 277.43 C 762.181 277.43 762.135 277.571 762.143 277.861 C 762.775 278.343 763.399 278.535 764.023 278.727 C 764.023 278.727 763.884 278.77 763.977 278.983 C 764.414 279.36 764.757 279.524 765.1 279.689 C 765.1 279.689 764.916 279.661 765.021 279.906 C 765.711 280.384 766.296 280.615 766.882 280.847 C 766.882 280.847 766.814 280.872 766.947 281.09 C 767.416 281.477 767.752 281.647 768.088 281.816 C 768.412 281.8 768.643 281.939 768.917 282.715 C 769.366 283.409 769.678 283.622 769.991 283.835 C 769.991 283.835 769.836 283.838 769.944 284.031 C 770.367 284.425 770.683 284.625 770.998 284.825 C 770.998 284.825 770.845 284.839 770.948 285.032 C 771.367 285.425 771.684 285.624 772 285.823 C 772 285.823 771.847 285.846 771.953 286.038 C 772.378 286.431 772.698 286.631 773.018 286.832 C 773.351 286.822 773.599 286.963 773.811 287.816 C 774.295 288.827 774.728 289.277 775.162 289.727 C 775.162 289.727 774.981 289.835 775.041 290.025 C 775.441 290.412 775.782 290.61 776.124 290.807 C 779.329 297.261 782.533 303.716 785.436 310.817 C 785.361 316.223 785.769 320.981 785.784 325.741 C 785.852 348.349 785.795 370.956 785.847 393.564 C 785.851 395.317 786.347 397.068 786.615 398.82 C 781.766 424.451 764.346 439.345 738.757 442.205 C 713.281 445.053 688.011 449.705 662.62 453.358 C 645.606 455.806 628.559 458.048 611.492 460.094 C 596.548 461.886 581.556 463.278 565.866 464.521 C 560.901 464.196 556.655 464.196 551.8 464.196 C 551.8 461.526 551.957 458.729 551.758 455.957 C 551.541 452.934 550.994 449.935 550.591 446.925 C 550.324 446.431 550.057 445.937 550.074 444.981 C 550.112 443.988 549.867 443.455 549.622 442.923 C 549.338 442.442 549.053 441.961 549.048 440.996 C 548.712 439.337 548.098 438.161 547.484 436.985 C 547.484 436.985 547.648 436.982 547.662 436.709 C 547.253 435.976 546.831 435.516 546.408 435.055 C 546.408 435.055 546.546 434.996 546.603 434.722 C 546.238 433.99 545.816 433.533 545.393 433.076 C 545.393 433.076 545.581 432.982 545.548 432.79 C 545.189 432.39 544.863 432.183 544.538 431.976 C 544.538 431.976 544.71 431.938 544.624 431.754 C 544.233 431.354 543.928 431.14 543.623 430.926 C 543.623 430.926 543.761 430.915 543.655 430.723 C 543.244 430.329 542.94 430.127 542.635 429.925 C 542.635 429.925 542.764 429.913 542.656 429.717 C 542.238 429.322 541.929 429.123 541.62 428.924 Z" style="stroke-width: 1;"/>
    <path fill="#F5701A" opacity="1.000000" stroke="none" d="M 394.957 489.835 C 394.957 489.835 395.404 489.85 395.907 490.195 C 409.048 491.655 421.686 492.769 434.8 493.925 C 434.8 499.73 434.223 504.942 434.969 509.958 C 435.654 514.57 437.761 518.97 439.242 523.464 C 439.242 523.464 439.227 523.532 439.172 523.84 C 439.396 524.379 439.674 524.611 439.953 524.842 C 440.253 525.257 440.553 525.671 440.861 526.704 C 441.272 527.81 441.677 528.297 442.081 528.785 C 442.081 528.785 441.903 528.821 441.988 529.011 C 442.389 529.407 442.707 529.613 443.024 529.82 C 443.35 529.833 443.592 529.983 443.82 530.837 C 444.578 531.881 445.266 532.359 445.954 532.836 C 446.523 533.26 447.092 533.685 447.858 534.641 C 448.379 535.377 448.704 535.582 449.029 535.787 C 449.029 535.787 448.896 535.769 448.914 536.084 C 449.929 536.868 450.926 537.337 451.922 537.806 C 451.922 537.806 451.837 537.844 451.874 538.165 C 452.916 538.967 453.922 539.448 455.117 540.224 C 459.242 541.638 463.161 543.642 467.119 543.722 C 484.514 544.076 501.929 544.178 519.317 543.694 C 524.775 543.542 530.815 542.941 534.809 537.918 C 534.809 537.918 534.812 537.875 535.191 537.852 C 536.337 537.113 537.104 536.396 537.871 535.68 C 544.037 530.622 547.792 524.076 550.344 515.956 C 551.376 508.491 551.824 501.495 552.243 494.945 C 554.932 493.936 557.342 493.032 559.753 492.128 C 575.859 490.667 591.994 489.465 608.064 487.672 C 623.75 485.922 639.389 483.702 655.013 481.438 C 668.696 479.456 682.328 477.126 696.688 475.249 C 699.509 475.499 701.642 475.613 703.736 475.375 C 712.202 474.41 720.717 473.687 729.098 472.218 C 739.927 470.319 750.678 467.932 761.38 465.407 C 763.289 464.957 764.798 462.813 766.491 461.452 C 766.491 461.452 766.607 461.552 766.822 461.575 C 767.278 461.321 767.518 461.044 767.758 460.768 C 767.758 460.768 767.759 460.848 768.045 460.828 C 768.803 460.441 769.275 460.075 769.747 459.708 C 769.747 459.708 769.744 459.815 770.034 459.801 C 770.704 459.333 771.084 458.878 771.464 458.424 C 771.464 458.424 771.587 458.503 771.816 458.543 C 772.273 458.289 772.5 457.995 772.728 457.702 C 772.728 457.702 772.731 457.804 773.024 457.803 C 773.74 457.364 774.164 456.925 774.588 456.487 C 774.588 456.487 774.669 456.601 775.012 456.762 C 775.833 458.715 776.716 460.504 776.725 462.298 C 776.825 481.785 776.787 501.272 776.787 520.759 C 776.787 554.903 776.793 589.048 776.779 623.192 C 776.777 627.068 776.66 630.945 776.597 634.821 C 771.635 654.245 759.657 667.636 740.943 675.495 C 739.896 675.55 739.367 675.788 738.838 676.026 C 738.838 676.026 738.834 675.943 738.465 675.926 C 733.188 676.568 728.281 677.799 723.373 677.802 C 569.945 677.904 416.517 677.889 263.089 677.855 C 260.791 677.855 258.477 677.501 256.199 677.139 C 251.406 676.378 246.632 675.502 241.851 674.673 C 226.027 667.367 216.338 654.83 211.242 637.97 C 211.122 636.591 210.8 635.788 210.478 634.985 C 210.478 634.985 210.615 634.92 210.681 634.565 C 210.237 632.787 209.726 631.364 209.216 629.941 C 209.074 628.799 208.931 627.658 209.14 625.864 C 209.594 624.563 209.785 623.914 209.785 623.266 C 209.803 601.392 209.817 579.519 209.768 557.645 C 209.765 556.406 209.219 555.167 208.926 553.928 C 208.871 551.526 208.817 549.124 209.106 546.016 C 209.274 543.183 209.099 541.056 208.925 538.929 C 208.871 537.183 208.818 535.437 209.122 532.957 C 209.586 519.862 209.707 507.503 209.759 495.143 C 209.762 494.406 209.216 493.666 208.925 492.928 C 208.871 492.152 208.817 491.377 209.077 490.04 C 209.235 488.627 209.08 487.777 208.924 486.926 C 208.87 485.508 208.817 484.09 209.095 482.022 C 209.26 479.891 209.093 478.409 208.926 476.928 C 208.872 476.152 208.818 475.376 209.121 473.914 C 209.577 468.118 209.674 463.007 209.997 457.624 C 211.139 457.153 212.057 456.953 212.975 456.754 C 212.975 456.754 212.872 456.791 212.976 457.012 C 213.429 457.372 213.778 457.512 214.127 457.652 C 214.127 457.652 213.945 457.678 214.04 457.917 C 214.721 458.38 215.308 458.604 215.895 458.829 C 215.895 458.829 215.822 458.869 215.867 459.197 C 216.943 459.923 217.974 460.322 219.004 460.722 C 219.004 460.722 218.877 460.765 219.002 461.007 C 219.738 461.424 220.348 461.599 220.959 461.774 C 220.959 461.774 220.85 461.807 220.991 462.047 C 221.744 462.446 222.356 462.606 222.967 462.765 C 222.967 462.765 222.86 462.793 222.972 463.086 C 224.635 464.255 226.092 465.564 227.757 465.933 C 236.105 467.783 244.466 469.647 252.901 471.024 C 269.636 473.756 286.418 476.207 303.192 478.702 C 311.587 479.951 320 481.082 328.421 482.135 C 329.151 482.227 330.004 481.339 330.8 480.906 C 331.248 480.891 331.695 480.876 332.556 481.299 C 335.108 482.237 337.224 482.929 339.392 483.206 C 351.887 484.8 364.394 486.296 376.897 487.826 C 376.897 487.826 376.819 487.851 377.062 488.13 C 383.189 488.885 389.073 489.36 394.957 489.835 Z" style="stroke-width: 1;"/>
    <path fill="#F65F07" opacity="1.000000" stroke="none" d="M 242.184 674.847 C 246.632 675.502 251.406 676.378 256.199 677.139 C 258.477 677.501 260.791 677.855 263.089 677.855 C 416.517 677.889 569.945 677.904 723.373 677.802 C 728.281 677.799 733.188 676.568 738.506 675.934 C 732.713 677.271 726.511 679.718 720.306 679.727 C 568.889 679.942 417.471 679.97 266.054 679.691 C 258.205 679.677 250.362 676.647 242.184 674.847 Z" style="stroke-width: 1;"/>
    <path fill="#F5701A" opacity="1.000000" stroke="none" d="M 261.229 443.874 C 265.674 443.824 270.57 443.466 275.37 443.985 C 288.982 445.455 302.58 447.102 316.133 449.034 C 325.739 450.403 335.22 452.671 344.833 453.966 C 363.557 456.487 382.323 458.706 401.096 460.835 C 407.415 461.552 413.838 461.353 420.158 462.065 C 424.813 462.59 429.378 463.917 434.621 465.021 C 435.239 455.252 433.438 445.737 438.663 437.099 C 437.948 446.419 436.9 455.91 435.813 465.749 C 377.679 462.307 319.87 451.408 261.229 443.874 Z" style="stroke-width: 1;"/>
    <path fill="#F5701A" opacity="1.000000" stroke="none" d="M 464.944 447.884 C 465.615 447.255 466.284 446.08 466.958 446.077 C 485.384 445.977 503.811 445.997 522.537 445.997 C 522.537 469.01 522.537 491.683 522.537 514.837 C 511.358 514.837 500.27 514.836 489.181 514.837 C 482.363 514.837 475.545 514.894 468.728 514.789 C 467.432 514.769 466.145 514.11 465.176 513.292 C 465.931 512.53 466.364 512.22 467.181 512.076 C 467.869 512.373 468.174 512.617 468.481 512.619 C 485.295 512.716 502.11 512.851 518.923 512.717 C 519.884 512.71 521.645 510.488 521.655 509.285 C 521.826 489.197 521.777 469.106 521.777 448.185 C 518.192 448.422 514.852 448.811 511.509 448.834 C 500.016 448.913 488.523 448.866 477.029 448.864 C 473.619 448.864 470.209 448.857 466.646 448.62 C 465.977 448.22 465.46 448.052 464.944 447.884 Z" style="stroke-width: 1;"/>
    <path fill="#F74D01" opacity="1.000000" stroke="none" d="M 776.703 634.413 C 776.66 630.945 776.777 627.068 776.779 623.192 C 776.793 589.048 776.787 554.903 776.787 520.759 C 776.787 501.272 776.825 481.785 776.725 462.298 C 776.716 460.504 775.833 458.715 774.942 456.768 C 775.25 455.709 775.972 454.805 777.494 452.897 C 777.646 455.654 777.79 457.04 777.79 458.427 C 777.801 514.009 777.814 569.592 777.757 625.174 C 777.754 628.118 777.14 631.061 776.703 634.413 Z" style="stroke-width: 1;"/>
    <path fill="#F5701A" opacity="1.000000" stroke="none" d="M 330.448 480.737 C 330.004 481.339 329.151 482.227 328.421 482.135 C 320 481.082 311.587 479.951 303.192 478.702 C 286.418 476.207 269.636 473.756 252.901 471.024 C 244.466 469.647 236.105 467.783 227.757 465.933 C 226.092 465.564 224.635 464.255 222.975 463.031 C 237.818 469.332 253.985 469.754 269.822 471.936 C 289.928 474.707 310.006 477.681 330.448 480.737 Z" style="stroke-width: 1;"/>
    <path fill="#F54500" opacity="1.000000" stroke="none" d="M 786.687 398.409 C 786.347 397.068 785.851 395.317 785.847 393.564 C 785.795 370.956 785.852 348.349 785.784 325.741 C 785.769 320.981 785.361 316.223 785.403 311.197 C 786.211 314.852 787.192 318.772 787.215 322.697 C 787.349 345.815 787.272 368.934 787.225 392.053 C 787.221 394.035 786.922 396.016 786.687 398.409 Z" style="stroke-width: 1;"/>
    <path fill="#F74D01" opacity="1.000000" stroke="none" d="M 534.445 537.986 C 530.815 542.941 524.775 543.542 519.317 543.694 C 501.929 544.178 484.514 544.076 467.119 543.722 C 463.161 543.642 459.242 541.638 455.336 540.221 C 455.368 539.923 455.809 539.879 455.809 539.879 C 463.619 540.721 471.412 542.02 479.241 542.296 C 490.989 542.711 502.791 542.899 514.514 542.217 C 521.095 541.834 527.562 539.506 534.445 537.986 Z" style="stroke-width: 1;"/>
    <path fill="#F5650F" opacity="1.000000" stroke="none" d="M 342.747 193.466 C 341.486 193.897 340.016 194.026 338.041 194.198 C 337.958 196.078 337.815 197.841 337.813 199.605 C 337.794 213.86 337.97 228.118 337.735 242.369 C 337.603 250.369 336.804 258.358 335.969 266.61 C 335.716 243.715 335.783 220.562 335.896 197.409 C 335.923 191.919 337.394 191.028 342.747 193.466 Z" style="stroke-width: 1;"/>
    <path fill="#F74D01" opacity="1.000000" stroke="none" d="M 708.718 265.378 C 708.367 264.428 707.829 263.016 707.827 261.603 C 707.782 220.345 707.787 179.087 707.811 137.829 C 707.812 136.693 708.107 135.558 708.598 134.164 C 708.888 172.926 708.844 211.947 708.8 250.968 C 708.794 255.617 708.787 260.267 708.718 265.378 Z" style="stroke-width: 1;"/>
    <path fill="#F5650F" opacity="1.000000" stroke="none" d="M 466.798 511.911 C 466.364 512.22 465.931 512.53 465.219 512.862 C 464.899 491.528 464.857 470.171 464.88 448.348 C 465.46 448.052 465.977 448.22 466.646 449.093 C 466.798 470.502 466.798 491.207 466.798 511.911 Z" style="stroke-width: 1;"/>
    <path fill="#F5701A" opacity="1.000000" stroke="none" d="M 766.142 461.551 C 764.798 462.813 763.289 464.957 761.38 465.407 C 750.678 467.932 739.927 470.319 729.098 472.218 C 720.717 473.687 712.202 474.41 703.736 475.375 C 701.642 475.613 699.509 475.499 697.11 475.273 C 713.773 472.648 730.773 470.622 747.636 467.777 C 753.856 466.728 759.75 463.749 766.142 461.551 Z" style="stroke-width: 1;"/>
    <path fill="#F5701A" opacity="1.000000" stroke="none" d="M 439.153 523.091 C 437.761 518.97 435.654 514.57 434.969 509.958 C 434.223 504.942 434.8 499.73 434.8 493.925 C 421.686 492.769 409.048 491.655 396.118 490.267 C 409.307 490.681 422.787 491.369 435.71 492.028 C 436.858 502.533 437.961 512.625 439.153 523.091 Z" style="stroke-width: 1;"/>
    <path fill="#F54500" opacity="1.000000" stroke="none" d="M 674.856 166.381 C 675.202 167.155 675.757 168.394 675.758 169.633 C 675.804 200.848 675.794 232.064 675.777 263.279 C 675.777 263.929 675.582 264.578 675.2 265.532 C 674.884 232.839 674.846 199.842 674.856 166.381 Z" style="stroke-width: 1;"/>
    <path fill="#F74D01" opacity="1.000000" stroke="none" d="M 335.331 266.813 C 333.936 267.135 332.075 267.838 330.211 267.846 C 311.081 267.929 291.947 267.686 272.821 267.988 C 263.086 268.142 253.365 269.217 243.218 269.88 C 242.797 269.885 242.804 269.893 242.812 269.692 C 242.82 269.491 242.832 269.089 242.832 269.089 C 249.055 268.353 255.272 267.045 261.503 266.982 C 285.954 266.732 310.41 266.875 335.331 266.813 Z" style="stroke-width: 1;"/>
    <path fill="#F74D01" opacity="1.000000" stroke="none" d="M 463.439 418.632 C 464.974 418.036 466.563 416.963 468.161 416.952 C 484.763 416.834 501.378 416.526 517.96 417.104 C 523.159 417.285 528.269 419.978 533.526 421.873 C 520.759 416.702 507.142 418.018 493.688 417.917 C 484.42 417.847 475.15 417.926 465.057 418.071 C 464.028 418.357 463.824 418.51 463.619 418.663 C 463.619 418.663 463.498 418.649 463.439 418.632 Z" style="stroke-width: 1;"/>
    <path fill="#F5701A" opacity="1.000000" stroke="none" d="M 376.659 487.498 C 364.394 486.296 351.887 484.8 339.392 483.206 C 337.224 482.929 335.108 482.237 332.885 481.368 C 347.341 483.056 361.881 485.114 376.659 487.498 Z" style="stroke-width: 1;"/>
    <path fill="#F5701A" opacity="1.000000" stroke="none" d="M 516.059 254.545 C 516.061 255.239 515.889 256.525 515.321 256.734 C 500.413 262.222 485.611 263.543 471.069 254.859 C 475.647 255.962 480.273 257.601 485.002 258.847 C 495.781 261.689 505.823 258.645 516.059 254.545 Z" style="stroke-width: 1;"/>
    <path fill="#F54500" opacity="1.000000" stroke="none" d="M 200.907 323.405 C 201.258 324.197 201.759 325.447 201.762 326.698 C 201.808 348.886 201.796 371.075 201.78 393.263 C 201.78 393.913 201.593 394.562 201.221 395.518 C 200.908 371.838 200.867 347.851 200.907 323.405 Z" style="stroke-width: 1;"/>
    <path fill="#F74D01" opacity="1.000000" stroke="none" d="M 208.871 554.391 C 209.219 555.167 209.765 556.406 209.768 557.645 C 209.817 579.519 209.803 601.392 209.785 623.266 C 209.785 623.914 209.594 624.563 209.22 625.519 C 208.904 602.169 208.86 578.512 208.871 554.391 Z" style="stroke-width: 1;"/>
    <path fill="#F5701A" opacity="1.000000" stroke="none" d="M 503.816 -21.725 C 501.605 -21.66 499.159 -21.862 496.718 -22.104 C 490.194 -22.752 484.276 -20.872 478.507 -18.024 C 474.217 -15.906 469.766 -14.111 464.994 -12.217 C 474.137 -17.454 483.238 -23.902 494.814 -23.459 C 497.751 -23.347 500.661 -22.513 503.816 -21.725 Z" style="stroke-width: 1;"/>
    <path fill="#F74D01" opacity="1.000000" stroke="none" d="M 647.732 265.387 C 647.395 265.277 646.863 264.701 646.865 264.128 C 646.916 243.266 647.016 222.405 647.387 201.24 C 647.705 222.265 647.745 243.594 647.732 265.387 Z" style="stroke-width: 1;"/>
    <path fill="#F74D01" opacity="1.000000" stroke="none" d="M 208.87 493.391 C 209.216 493.666 209.762 494.406 209.759 495.143 C 209.707 507.503 209.586 519.862 209.204 532.527 C 208.89 519.839 208.853 506.846 208.87 493.391 Z" style="stroke-width: 1;"/>
    <path fill="#F74D01" opacity="1.000000" stroke="none" d="M 550.634 447.389 C 550.994 449.935 551.541 452.934 551.758 455.957 C 551.957 458.729 551.8 461.526 551.8 464.196 C 556.655 464.196 560.901 464.196 565.443 464.469 C 560.999 465.212 556.257 465.681 550.678 466.233 C 550.678 459.877 550.678 453.865 550.634 447.389 Z" style="stroke-width: 1;"/>
    <path fill="#F74D01" opacity="1.000000" stroke="none" d="M 742.671 268.505 C 732.109 268.39 721.279 267.98 710.146 267.29 C 720.696 267.411 731.55 267.81 742.671 268.505 Z" style="stroke-width: 1;"/>
    <path fill="#F54500" opacity="1.000000" stroke="none" d="M 559.323 492.098 C 557.342 493.032 554.932 493.936 552.243 494.945 C 551.824 501.495 551.376 508.491 550.518 515.667 C 550.108 508.395 550.108 500.943 550.108 492.987 C 553.497 492.632 556.196 492.35 559.323 492.098 Z" style="stroke-width: 1;"/>
    <path fill="#F5701A" opacity="1.000000" stroke="none" d="M 440.847 240.171 C 435.222 240.897 431.303 237.031 426.91 233.863 C 431.491 235.625 436.073 237.763 440.847 240.171 Z" style="stroke-width: 1;"/>
    <path fill="#F5701A" opacity="1.000000" stroke="none" d="M 394.724 489.498 C 389.073 489.36 383.189 488.885 377.055 488.09 C 382.701 488.234 388.596 488.697 394.724 489.498 Z" style="stroke-width: 1;"/>
    <path fill="#F74D01" opacity="1.000000" stroke="none" d="M 674.301 266.784 C 673.09 267.102 671.42 267.83 669.746 267.837 C 662.98 267.866 656.213 267.674 649.142 267.284 C 657.173 266.957 665.507 266.91 674.301 266.784 Z" style="stroke-width: 1;"/>
    <path fill="#F5701A" opacity="1.000000" stroke="none" d="M 455.849 247.234 C 451.77 245.705 447.481 243.914 443.197 241.754 C 447.348 243.248 451.494 245.11 455.849 247.234 Z" style="stroke-width: 1;"/>
    <path fill="#F5701A" opacity="1.000000" stroke="none" d="M 650.753 154.542 C 654.864 155.99 659.188 157.7 663.614 159.759 C 659.466 158.341 655.217 156.573 650.753 154.542 Z" style="stroke-width: 1;"/>
    <path fill="#F5701A" opacity="1.000000" stroke="none" d="M 618.826 140.3 C 622.556 141.543 626.484 143.081 630.438 144.988 C 626.652 143.77 622.838 142.183 618.826 140.3 Z" style="stroke-width: 1;"/>
    <path fill="#F5701A" opacity="1.000000" stroke="none" d="M 562.841 7.205 C 559.726 6.082 556.402 4.701 552.993 2.968 C 556.149 4.06 559.391 5.503 562.841 7.205 Z" style="stroke-width: 1;"/>
    <path fill="#F74D01" opacity="1.000000" stroke="none" d="M 209.772 457.897 C 209.674 463.007 209.577 468.118 209.202 473.532 C 208.89 468.831 208.855 463.827 209.091 458.358 C 209.363 457.894 209.772 457.897 209.772 457.897 Z" style="stroke-width: 1;"/>
    <path fill="#F5701A" opacity="1.000000" stroke="none" d="M 630.755 145.557 C 633.205 146.319 635.861 147.341 638.63 148.706 C 636.148 147.973 633.555 146.895 630.755 145.557 Z" style="stroke-width: 1;"/>
    <path fill="#F5701A" opacity="1.000000" stroke="none" d="M 638.858 149.268 C 641.607 150.12 644.561 151.261 647.618 152.75 C 644.834 151.918 641.948 150.737 638.858 149.268 Z" style="stroke-width: 1;"/>
    <path fill="#F5701A" opacity="1.000000" stroke="none" d="M 663.821 160.308 C 666.579 161.12 669.542 162.223 672.635 163.657 C 669.853 162.858 666.939 161.728 663.821 160.308 Z" style="stroke-width: 1;"/>
    <path fill="#F5701A" opacity="1.000000" stroke="none" d="M 470.864 254.311 C 468.111 253.441 465.152 252.294 462.184 250.778 C 465.002 251.617 467.83 252.826 470.864 254.311 Z" style="stroke-width: 1;"/>
    <path fill="#F5701A" opacity="1.000000" stroke="none" d="M 550.351 237.724 C 548.238 239.031 545.761 240.393 542.9 241.637 C 545.005 240.272 547.497 239.026 550.351 237.724 Z" style="stroke-width: 1;"/>
    <path fill="#F5701A" opacity="1.000000" stroke="none" d="M 517.524 -15.298 C 515.546 -15.952 513.309 -16.831 510.999 -18.058 C 513.039 -17.445 515.152 -16.484 517.524 -15.298 Z" style="stroke-width: 1;"/>
    <path fill="#F5701A" opacity="1.000000" stroke="none" d="M 568.115 229.449 C 566.412 230.511 564.357 231.632 561.921 232.631 C 563.615 231.508 565.689 230.508 568.115 229.449 Z" style="stroke-width: 1;"/>
    <path fill="#F5701A" opacity="1.000000" stroke="none" d="M 574.333 226.681 C 572.884 227.661 571.085 228.702 568.912 229.615 C 570.354 228.572 572.168 227.658 574.333 226.681 Z" style="stroke-width: 1;"/>
    <path fill="#F74D01" opacity="1.000000" stroke="none" d="M 533.623 422.566 C 535.209 423.299 536.952 424.303 538.714 425.663 C 537.082 424.958 535.431 423.898 533.623 422.566 Z" style="stroke-width: 1;"/>
    <path fill="#F5701A" opacity="1.000000" stroke="none" d="M 607.754 135.515 C 609.833 136.02 612.128 136.793 614.507 137.928 C 612.383 137.454 610.177 136.618 607.754 135.515 Z" style="stroke-width: 1;"/>
    <path fill="#F74D01" opacity="1.000000" stroke="none" d="M 749.664 270.547 C 747.665 270.342 745.423 269.854 743.001 269.031 C 745.021 269.219 747.222 269.741 749.664 270.547 Z" style="stroke-width: 1;"/>
    <path fill="#F5701A" opacity="1.000000" stroke="none" d="M 522.192 251.545 C 520.775 252.55 519.022 253.637 516.888 254.639 C 518.29 253.579 520.073 252.603 522.192 251.545 Z" style="stroke-width: 1;"/>
    <path fill="#F5701A" opacity="1.000000" stroke="none" d="M 209.997 457.624 C 209.772 457.897 209.363 457.894 209.159 457.897 C 208.894 456.766 208.834 455.633 208.742 453.895 C 210.297 454.805 211.458 455.484 212.797 456.458 C 212.057 456.953 211.139 457.153 209.997 457.624 Z" style="stroke-width: 1;"/>
    <path fill="#F74D01" opacity="1.000000" stroke="none" d="M 647.717 193.493 C 646.222 193.415 644.772 192.981 643.095 192.316 C 644.964 190.275 646.658 190.335 647.717 193.493 Z" style="stroke-width: 1;"/>
    <path fill="#F5701A" opacity="1.000000" stroke="none" d="M 460.731 249.513 C 459.341 249.268 457.742 248.746 456.13 247.828 C 457.585 248.033 459.054 248.635 460.731 249.513 Z" style="stroke-width: 1;"/>
    <path fill="#F5701A" opacity="1.000000" stroke="none" d="M 559.113 233.471 C 558.108 234.214 556.772 235.031 555.041 235.815 C 556.024 235.036 557.404 234.29 559.113 233.471 Z" style="stroke-width: 1;"/>
    <path fill="#F74D01" opacity="1.000000" stroke="none" d="M 208.87 539.358 C 209.099 541.056 209.274 543.183 209.187 545.572 C 208.889 543.818 208.852 541.802 208.87 539.358 Z" style="stroke-width: 1;"/>
    <path fill="#F5701A" opacity="1.000000" stroke="none" d="M 508.848 -19.653 C 507.427 -19.854 505.802 -20.34 504.107 -21.204 C 505.572 -21.035 507.107 -20.487 508.848 -19.653 Z" style="stroke-width: 1;"/>
    <path fill="#F5701A" opacity="1.000000" stroke="none" d="M 602.807 133.312 C 604.211 133.537 605.809 134.053 607.481 134.94 C 606.037 134.741 604.518 134.173 602.807 133.312 Z" style="stroke-width: 1;"/>
    <path fill="#F5701A" opacity="1.000000" stroke="none" d="M 455.598 539.632 C 455.809 539.879 455.368 539.923 455.148 539.926 C 453.922 539.448 452.916 538.967 451.888 538.121 C 453.039 538.299 454.213 538.842 455.598 539.632 Z" style="stroke-width: 1;"/>
    <path fill="#F74D01" opacity="1.000000" stroke="none" d="M 547.529 437.332 C 548.098 438.161 548.712 439.337 549.078 440.695 C 548.41 439.812 547.992 438.745 547.529 437.332 Z" style="stroke-width: 1;"/>
    <path fill="#F5701A" opacity="1.000000" stroke="none" d="M 614.72 138.489 C 615.846 138.607 617.173 138.992 618.613 139.734 C 617.458 139.646 616.189 139.202 614.72 138.489 Z" style="stroke-width: 1;"/>
    <path fill="#F5701A" opacity="1.000000" stroke="none" d="M 606.371 210.716 C 605.583 211.374 604.462 212.099 602.965 212.773 C 603.739 212.076 604.888 211.429 606.371 210.716 Z" style="stroke-width: 1;"/>
    <path fill="#F5701A" opacity="1.000000" stroke="none" d="M 554.401 235.769 C 553.611 236.417 552.485 237.126 550.988 237.795 C 551.767 237.113 552.917 236.472 554.401 235.769 Z" style="stroke-width: 1;"/>
    <path fill="#F5701A" opacity="1.000000" stroke="none" d="M 536.139 244.514 C 535.395 245.21 534.339 245.992 532.9 246.669 C 533.621 245.909 534.724 245.254 536.139 244.514 Z" style="stroke-width: 1;"/>
    <path fill="#F5701A" opacity="1.000000" stroke="none" d="M 530.08 247.498 C 529.348 248.189 528.312 248.974 526.896 249.638 C 527.603 248.876 528.69 248.234 530.08 247.498 Z" style="stroke-width: 1;"/>
    <path fill="#F5701A" opacity="1.000000" stroke="none" d="M 526.178 249.516 C 525.424 250.215 524.35 250.991 522.896 251.655 C 523.63 250.893 524.744 250.243 526.178 249.516 Z" style="stroke-width: 1;"/>
    <path fill="#F74D01" opacity="1.000000" stroke="none" d="M 755.86 273.394 C 754.721 273.229 753.406 272.773 751.993 271.951 C 753.158 272.092 754.42 272.597 755.86 273.394 Z" style="stroke-width: 1;"/>
    <path fill="#F74D01" opacity="1.000000" stroke="none" d="M 208.872 477.334 C 209.093 478.409 209.26 479.891 209.177 481.603 C 208.89 480.47 208.854 479.105 208.872 477.334 Z" style="stroke-width: 1;"/>
    <path fill="#F5701A" opacity="1.000000" stroke="none" d="M 451.76 537.539 C 450.926 537.337 449.929 536.868 448.945 536.024 C 449.836 536.19 450.717 536.731 451.76 537.539 Z" style="stroke-width: 1;"/>
    <path fill="#F5701A" opacity="1.000000" stroke="none" d="M 525.934 -11.101 C 525.117 -11.146 524.104 -11.409 523.003 -12.032 C 523.855 -12.035 524.796 -11.676 525.934 -11.101 Z" style="stroke-width: 1;"/>
    <path fill="#F74D01" opacity="1.000000" stroke="none" d="M 209.319 630.326 C 209.726 631.364 210.237 632.787 210.697 634.639 C 210.239 633.616 209.83 632.163 209.319 630.326 Z" style="stroke-width: 1;"/>
    <path fill="#F5701A" opacity="1.000000" stroke="none" d="M 218.844 460.446 C 217.974 460.322 216.943 459.923 215.878 459.156 C 216.791 459.249 217.738 459.71 218.844 460.446 Z" style="stroke-width: 1;"/>
    <path fill="#F5701A" opacity="1.000000" stroke="none" d="M 440.234 434.933 C 440.374 434.06 440.792 433.027 441.582 431.964 C 441.473 432.881 440.992 433.827 440.234 434.933 Z" style="stroke-width: 1;"/>
    <path fill="#F5701A" opacity="1.000000" stroke="none" d="M 539.449 242.831 C 538.907 243.426 538.049 244.068 536.851 244.59 C 537.385 243.94 538.259 243.409 539.449 242.831 Z" style="stroke-width: 1;"/>
    <path fill="#F74D01" opacity="1.000000" stroke="none" d="M 242.794 269.88 C 241.846 270.19 240.9 270.506 239.55 270.783 C 239.836 270.368 240.528 269.99 241.648 269.648 C 242.302 269.815 242.544 269.885 242.804 269.893 C 242.804 269.893 242.797 269.885 242.794 269.88 Z" style="stroke-width: 1;"/>
    <path fill="#F74D01" opacity="1.000000" stroke="none" d="M 762.052 277.167 C 761.424 277.107 760.668 276.785 759.891 276.099 C 760.555 276.125 761.239 276.515 762.052 277.167 Z" style="stroke-width: 1;"/>
    <path fill="#F5650F" opacity="1.000000" stroke="none" d="M 345.487 194.847 C 344.859 194.761 343.945 194.528 342.951 193.994 C 343.648 194.029 344.424 194.364 345.487 194.847 Z" style="stroke-width: 1;"/>
    <path fill="#F74D01" opacity="1.000000" stroke="none" d="M 537.568 535.784 C 537.104 536.396 536.337 537.113 535.208 537.866 C 535.652 537.232 536.459 536.561 537.568 535.784 Z" style="stroke-width: 1;"/>
    <path fill="#F5701A" opacity="1.000000" stroke="none" d="M 647.816 153.284 C 648.545 153.21 649.467 153.408 650.459 153.974 C 649.69 154.081 648.849 153.819 647.816 153.284 Z" style="stroke-width: 1;"/>
    <path fill="#F74D01" opacity="1.000000" stroke="none" d="M 208.87 487.288 C 209.08 487.777 209.235 488.627 209.158 489.657 C 208.888 489.108 208.852 488.379 208.87 487.288 Z" style="stroke-width: 1;"/>
    <path fill="#F74D01" opacity="1.000000" stroke="none" d="M 210.513 635.345 C 210.8 635.788 211.122 636.591 211.217 637.605 C 210.842 637.113 210.695 636.409 210.513 635.345 Z" style="stroke-width: 1;"/>
    <path fill="#F5701A" opacity="1.000000" stroke="none" d="M 445.82 532.561 C 445.266 532.359 444.578 531.881 443.872 531.053 C 444.464 531.229 445.075 531.757 445.82 532.561 Z" style="stroke-width: 1;"/>
    <path fill="#F5701A" opacity="1.000000" stroke="none" d="M 528.829 -9.56 C 528.087 -9.5 527.168 -9.714 526.295 -10.309 C 527.111 -10.405 527.883 -10.119 528.829 -9.56 Z" style="stroke-width: 1;"/>
    <path fill="#F5701A" opacity="1.000000" stroke="none" d="M 542.23 241.499 C 541.848 241.914 541.142 242.383 540.068 242.841 C 540.435 242.403 541.171 241.978 542.23 241.499 Z" style="stroke-width: 1;"/>
    <path fill="#F5701A" opacity="1.000000" stroke="none" d="M 617.134 205.439 C 616.774 205.869 616.097 206.358 615.047 206.828 C 615.39 206.371 616.104 205.934 617.134 205.439 Z" style="stroke-width: 1;"/>
    <path fill="#F5701A" opacity="1.000000" stroke="none" d="M 581.09 223.385 C 580.732 223.836 580.057 224.334 579.003 224.795 C 579.34 224.316 580.056 223.874 581.09 223.385 Z" style="stroke-width: 1;"/>
    <path fill="#F5701A" opacity="1.000000" stroke="none" d="M 532.825 -7.525 C 532.372 -7.427 531.753 -7.596 531.015 -8.08 C 531.483 -8.194 532.071 -7.992 532.825 -7.525 Z" style="stroke-width: 1;"/>
    <path fill="#F5701A" opacity="1.000000" stroke="none" d="M 550.843 1.451 C 550.381 1.562 549.758 1.402 549.013 0.925 C 549.488 0.798 550.085 0.988 550.843 1.451 Z" style="stroke-width: 1;"/>
    <path fill="#F74D01" opacity="1.000000" stroke="none" d="M 545.417 433.391 C 545.816 433.533 546.238 433.99 546.596 434.796 C 546.168 434.666 545.805 434.187 545.417 433.391 Z" style="stroke-width: 1;"/>
    <path fill="#F5701A" opacity="1.000000" stroke="none" d="M 774.282 456.547 C 774.164 456.925 773.74 457.364 772.975 457.789 C 773.081 457.386 773.529 456.996 774.282 456.547 Z" style="stroke-width: 1;"/>
    <path fill="#F5701A" opacity="1.000000" stroke="none" d="M 548.853 0.433 C 548.391 0.557 547.764 0.409 547.006 -0.05 C 547.479 -0.188 548.084 -0.013 548.853 0.433 Z" style="stroke-width: 1;"/>
    <path fill="#F5701A" opacity="1.000000" stroke="none" d="M 530.857 -8.572 C 530.394 -8.452 529.767 -8.602 529.012 -9.069 C 529.487 -9.204 530.09 -9.024 530.857 -8.572 Z" style="stroke-width: 1;"/>
    <path fill="#F5701A" opacity="1.000000" stroke="none" d="M 439.189 436.902 C 439.082 436.437 439.258 435.827 439.742 435.092 C 439.858 435.563 439.665 436.16 439.189 436.902 Z" style="stroke-width: 1;"/>
    <path fill="#F5701A" opacity="1.000000" stroke="none" d="M 534.792 -6.489 C 534.345 -6.394 533.736 -6.567 532.997 -7.045 C 533.454 -7.152 534.042 -6.955 534.792 -6.489 Z" style="stroke-width: 1;"/>
    <path fill="#F74D01" opacity="1.000000" stroke="none" d="M 549.67 443.244 C 549.867 443.455 550.112 443.988 550.142 444.683 C 549.857 444.419 549.788 443.992 549.67 443.244 Z" style="stroke-width: 1;"/>
    <path fill="#F74D01" opacity="1.000000" stroke="none" d="M 546.438 435.373 C 546.831 435.516 547.253 435.976 547.636 436.787 C 547.22 436.656 546.844 436.174 546.438 435.373 Z" style="stroke-width: 1;"/>
    <path fill="#F5701A" opacity="1.000000" stroke="none" d="M 536.814 -5.522 C 536.374 -5.411 535.755 -5.559 534.99 -6.003 C 535.441 -6.126 536.039 -5.953 536.814 -5.522 Z" style="stroke-width: 1;"/>
    <path fill="#F5701A" opacity="1.000000" stroke="none" d="M 672.881 164.182 C 673.29 164.142 673.884 164.344 674.607 164.844 C 674.179 164.903 673.623 164.664 672.881 164.182 Z" style="stroke-width: 1;"/>
    <path fill="#F5701A" opacity="1.000000" stroke="none" d="M 215.734 458.575 C 215.308 458.604 214.721 458.38 214.065 457.829 C 214.522 457.775 215.048 458.048 215.734 458.575 Z" style="stroke-width: 1;"/>
    <path fill="#F5701A" opacity="1.000000" stroke="none" d="M 771.18 458.504 C 771.084 458.878 770.704 459.333 769.983 459.786 C 770.06 459.385 770.478 458.984 771.18 458.504 Z" style="stroke-width: 1;"/>
    <path fill="#F5701A" opacity="1.000000" stroke="none" d="M 769.444 459.763 C 769.275 460.075 768.803 460.441 768.007 460.813 C 768.169 460.485 768.655 460.151 769.444 459.763 Z" style="stroke-width: 1;"/>
    <path fill="#F5701A" opacity="1.000000" stroke="none" d="M 220.8 461.504 C 220.348 461.599 219.738 461.424 219.003 460.94 C 219.466 460.832 220.054 461.032 220.8 461.504 Z" style="stroke-width: 1;"/>
    <path fill="#F5701A" opacity="1.000000" stroke="none" d="M 222.802 462.498 C 222.356 462.606 221.744 462.446 220.989 461.99 C 221.442 461.873 222.039 462.052 222.802 462.498 Z" style="stroke-width: 1;"/>
    <path fill="#F5701A" opacity="1.000000" stroke="none" d="M 462.391 -11.326 C 462.229 -10.992 461.756 -10.601 460.946 -10.23 C 461.1 -10.589 461.591 -10.929 462.391 -11.326 Z" style="stroke-width: 1;"/>
    <path fill="#F5701A" opacity="1.000000" stroke="none" d="M 564.517 7.899 C 564.216 7.994 563.664 7.974 563.18 7.665 C 563.588 7.512 563.927 7.647 564.517 7.899 Z" style="stroke-width: 1;"/>
    <path fill="#F5701A" opacity="1.000000" stroke="none" d="M 464.407 -12.302 C 464.233 -11.975 463.745 -11.596 462.919 -11.252 C 463.085 -11.607 463.589 -11.929 464.407 -12.302 Z" style="stroke-width: 1;"/>
    <path fill="#F5701A" opacity="1.000000" stroke="none" d="M 522.856 -12.574 C 522.394 -12.43 521.769 -12.562 520.99 -12.99 C 521.454 -13.141 522.074 -12.996 522.856 -12.574 Z" style="stroke-width: 1;"/>
    <path fill="#F5701A" opacity="1.000000" stroke="none" d="M 552.85 2.44 C 552.388 2.559 551.765 2.406 551.01 1.941 C 551.482 1.808 552.085 1.987 552.85 2.44 Z" style="stroke-width: 1;"/>
    <path fill="#F5701A" opacity="1.000000" stroke="none" d="M 442.019 528.464 C 441.677 528.297 441.272 527.81 440.874 526.977 C 441.238 527.135 441.597 527.639 442.019 528.464 Z" style="stroke-width: 1;"/>
    <path fill="#F5701A" opacity="1.000000" stroke="none" d="M 520.798 -13.502 C 520.322 -13.454 519.705 -13.703 518.986 -14.29 C 519.476 -14.352 520.067 -14.076 520.798 -13.502 Z" style="stroke-width: 1;"/>
    <path fill="#F65F07" opacity="1.000000" stroke="none" d="M 739.16 675.981 C 739.367 675.788 739.896 675.55 740.589 675.523 C 740.329 675.8 739.905 675.868 739.16 675.981 Z" style="stroke-width: 1;"/>
    <path fill="#F5701A" opacity="1.000000" stroke="none" d="M 510.874 -18.583 C 510.401 -18.475 509.774 -18.64 509.046 -19.139 C 509.537 -19.267 510.128 -19.062 510.874 -18.583 Z" style="stroke-width: 1;"/>
    <path fill="#F5701A" opacity="1.000000" stroke="none" d="M 594.422 216.718 C 594.253 217.049 593.773 217.422 592.961 217.784 C 593.123 217.434 593.617 217.097 594.422 216.718 Z" style="stroke-width: 1;"/>
    <path fill="#F5701A" opacity="1.000000" stroke="none" d="M 561.2 232.479 C 561.058 232.842 560.632 233.271 559.862 233.593 C 559.984 233.172 560.45 232.859 561.2 232.479 Z" style="stroke-width: 1;"/>
    <path fill="#F5701A" opacity="1.000000" stroke="none" d="M 532.284 246.523 C 532.117 246.876 531.658 247.283 530.865 247.563 C 531.017 247.149 531.504 246.863 532.284 246.523 Z" style="stroke-width: 1;"/>
    <path fill="#F5701A" opacity="1.000000" stroke="none" d="M 610.395 208.67 C 610.233 209.011 609.762 209.401 608.954 209.775 C 609.107 209.412 609.596 209.065 610.395 208.67 Z" style="stroke-width: 1;"/>
    <path fill="#F5701A" opacity="1.000000" stroke="none" d="M 608.417 209.719 C 608.245 210.046 607.759 210.42 606.937 210.767 C 607.102 210.415 607.602 210.091 608.417 209.719 Z" style="stroke-width: 1;"/>
    <path fill="#F5701A" opacity="1.000000" stroke="none" d="M 612.442 207.774 C 612.253 208.076 611.753 208.428 610.92 208.749 C 611.102 208.421 611.616 208.122 612.442 207.774 Z" style="stroke-width: 1;"/>
    <path fill="#F5701A" opacity="1.000000" stroke="none" d="M 614.452 206.792 C 614.276 207.101 613.79 207.453 612.98 207.799 C 613.151 207.475 613.647 207.155 614.452 206.792 Z" style="stroke-width: 1;"/>
    <path fill="#F5701A" opacity="1.000000" stroke="none" d="M 546.826 -0.535 C 546.375 -0.42 545.755 -0.571 544.995 -1.026 C 545.456 -1.153 546.056 -0.977 546.826 -0.535 Z" style="stroke-width: 1;"/>
    <path fill="#F5701A" opacity="1.000000" stroke="none" d="M 544.804 -1.504 C 544.36 -1.405 543.744 -1.567 542.995 -2.034 C 543.452 -2.148 544.042 -1.957 544.804 -1.504 Z" style="stroke-width: 1;"/>
    <path fill="#F5701A" opacity="1.000000" stroke="none" d="M 442.895 241.158 C 442.436 241.28 441.816 241.183 441.203 240.723 C 441.718 240.553 442.225 240.746 442.895 241.158 Z" style="stroke-width: 1;"/>
    <path fill="#F5701A" opacity="1.000000" stroke="none" d="M 602.398 212.682 C 602.223 213.01 601.736 213.392 600.909 213.736 C 601.075 213.377 601.581 213.057 602.398 212.682 Z" style="stroke-width: 1;"/>
    <path fill="#F5701A" opacity="1.000000" stroke="none" d="M 620.654 203.659 C 620.447 203.971 619.91 204.379 619.019 204.797 C 619.219 204.456 619.771 204.106 620.654 203.659 Z" style="stroke-width: 1;"/>
    <path fill="#F74D01" opacity="1.000000" stroke="none" d="M 751.854 271.441 C 751.392 271.591 750.763 271.466 749.972 271.051 C 750.436 270.897 751.061 271.031 751.854 271.441 Z" style="stroke-width: 1;"/>
    <path fill="#F74D01" opacity="1.000000" stroke="none" d="M 757.828 274.491 C 757.362 274.588 756.744 274.403 756.006 273.9 C 756.483 273.79 757.079 274 757.828 274.491 Z" style="stroke-width: 1;"/>
    <path fill="#F5701A" opacity="1.000000" stroke="none" d="M 600.381 213.654 C 600.217 213.992 599.745 214.386 598.932 214.755 C 599.086 214.39 599.579 214.051 600.381 213.654 Z" style="stroke-width: 1;"/>
    <path fill="#F74D01" opacity="1.000000" stroke="none" d="M 759.783 275.529 C 759.331 275.627 758.724 275.448 757.975 274.972 C 758.431 274.867 759.03 275.059 759.783 275.529 Z" style="stroke-width: 1;"/>
    <path fill="#F74D01" opacity="1.000000" stroke="none" d="M 763.871 278.45 C 763.399 278.535 762.775 278.343 762.092 277.808 C 762.595 277.7 763.157 277.936 763.871 278.45 Z" style="stroke-width: 1;"/>
    <path fill="#F5701A" opacity="1.000000" stroke="none" d="M 592.436 217.747 C 592.269 218.062 591.799 218.433 591.004 218.809 C 591.164 218.478 591.648 218.141 592.436 217.747 Z" style="stroke-width: 1;"/>
    <path fill="#F5701A" opacity="1.000000" stroke="none" d="M 590.452 218.794 C 590.268 219.103 589.772 219.45 588.947 219.777 C 589.125 219.449 589.632 219.14 590.452 218.794 Z" style="stroke-width: 1;"/>
    <path fill="#F5701A" opacity="1.000000" stroke="none" d="M 588.419 219.719 C 588.247 220.044 587.763 220.418 586.944 220.771 C 587.108 220.422 587.607 220.095 588.419 219.719 Z" style="stroke-width: 1;"/>
    <path fill="#F5701A" opacity="1.000000" stroke="none" d="M 598.405 214.69 C 598.241 215.021 597.772 215.406 596.968 215.784 C 597.123 215.432 597.61 215.089 598.405 214.69 Z" style="stroke-width: 1;"/>
    <path fill="#F5701A" opacity="1.000000" stroke="none" d="M 596.432 215.748 C 596.255 216.062 595.769 216.425 594.952 216.775 C 595.122 216.44 595.623 216.118 596.432 215.748 Z" style="stroke-width: 1;"/>
    <path fill="#F5701A" opacity="1.000000" stroke="none" d="M 576.38 225.658 C 576.214 225.994 575.739 226.387 574.923 226.748 C 575.079 226.383 575.575 226.049 576.38 225.658 Z" style="stroke-width: 1;"/>
    <path fill="#F5701A" opacity="1.000000" stroke="none" d="M 578.42 224.717 C 578.238 225.042 577.742 225.411 576.909 225.739 C 577.083 225.385 577.594 225.073 578.42 224.717 Z" style="stroke-width: 1;"/>
    <path fill="#F5701A" opacity="1.000000" stroke="none" d="M 586.417 220.716 C 586.239 221.034 585.752 221.408 584.928 221.754 C 585.096 221.409 585.601 221.09 586.417 220.716 Z" style="stroke-width: 1;"/>
    <path fill="#F74D01" opacity="1.000000" stroke="none" d="M 775.13 289.406 C 774.728 289.277 774.295 288.827 773.854 288.035 C 774.264 288.156 774.68 288.621 775.13 289.406 Z" style="stroke-width: 1;"/>
    <path fill="#F74D01" opacity="1.000000" stroke="none" d="M 766.721 280.586 C 766.296 280.615 765.711 280.384 765.066 279.825 C 765.524 279.773 766.043 280.049 766.721 280.586 Z" style="stroke-width: 1;"/>
    <path fill="#F5701A" opacity="1.000000" stroke="none" d="M 584.402 221.686 C 584.247 222.022 583.784 222.413 582.991 222.801 C 583.138 222.446 583.617 222.093 584.402 221.686 Z" style="stroke-width: 1;"/>
    <path fill="#F5701A" opacity="1.000000" stroke="none" d="M 542.82 -2.521 C 542.365 -2.418 541.748 -2.585 541.006 -3.064 C 541.473 -3.18 542.065 -2.985 542.82 -2.521 Z" style="stroke-width: 1;"/>
    <path fill="#F5701A" opacity="1.000000" stroke="none" d="M 540.836 -3.546 C 540.382 -3.434 539.76 -3.588 539.005 -4.053 C 539.471 -4.179 540.069 -3.996 540.836 -3.546 Z" style="stroke-width: 1;"/>
    <path fill="#F5701A" opacity="1.000000" stroke="none" d="M 538.834 -4.54 C 538.377 -4.426 537.756 -4.583 537.002 -5.049 C 537.47 -5.176 538.069 -4.993 538.834 -4.54 Z" style="stroke-width: 1;"/>
    <path fill="#F5701A" opacity="1.000000" stroke="none" d="M 439.9 524.571 C 439.674 524.611 439.396 524.379 439.149 523.865 C 439.402 523.822 439.625 524.061 439.9 524.571 Z" style="stroke-width: 1;"/>
    <path fill="#F5701A" opacity="1.000000" stroke="none" d="M 602.018 132.899 C 602.084 132.762 602.358 132.735 602.659 132.904 C 602.685 133.1 602.225 133.007 602.018 132.899 Z" style="stroke-width: 1;"/>
    <path fill="#F5701A" opacity="1.000000" stroke="none" d="M 582.476 222.79 C 582.51 223.015 582.275 223.294 581.755 223.544 C 581.715 223.291 581.961 223.067 582.476 222.79 Z" style="stroke-width: 1;"/>
    <path fill="#F5701A" opacity="1.000000" stroke="none" d="M 442.909 529.558 C 442.707 529.613 442.389 529.407 441.988 528.92 C 442.201 528.858 442.498 529.077 442.909 529.558 Z" style="stroke-width: 1;"/>
    <path fill="#F5701A" opacity="1.000000" stroke="none" d="M 767.483 460.82 C 767.518 461.044 767.278 461.321 766.75 461.6 C 766.711 461.359 766.96 461.115 767.483 460.82 Z" style="stroke-width: 1;"/>
    <path fill="#F5701A" opacity="1.000000" stroke="none" d="M 448.926 535.516 C 448.704 535.582 448.379 535.377 447.963 534.891 C 448.189 534.821 448.506 535.033 448.926 535.516 Z" style="stroke-width: 1;"/>
    <path fill="#F74D01" opacity="1.000000" stroke="none" d="M 769.895 283.561 C 769.678 283.622 769.366 283.409 768.951 282.926 C 769.165 282.866 769.482 283.077 769.895 283.561 Z" style="stroke-width: 1;"/>
    <path fill="#F74D01" opacity="1.000000" stroke="none" d="M 541.726 429.185 C 541.929 429.123 542.238 429.322 542.655 429.782 C 542.452 429.844 542.143 429.645 541.726 429.185 Z" style="stroke-width: 1;"/>
    <path fill="#F74D01" opacity="1.000000" stroke="none" d="M 542.735 430.189 C 542.94 430.127 543.244 430.329 543.653 430.792 C 543.45 430.853 543.142 430.653 542.735 430.189 Z" style="stroke-width: 1;"/>
    <path fill="#F74D01" opacity="1.000000" stroke="none" d="M 543.714 431.203 C 543.928 431.14 544.233 431.354 544.628 431.842 C 544.414 431.903 544.109 431.691 543.714 431.203 Z" style="stroke-width: 1;"/>
    <path fill="#F5701A" opacity="1.000000" stroke="none" d="M 463.831 418.749 C 463.824 418.51 464.028 418.357 464.599 418.093 C 464.658 418.267 464.35 418.551 463.831 418.749 Z" style="stroke-width: 1;"/>
    <path fill="#F74D01" opacity="1.000000" stroke="none" d="M 544.61 432.273 C 544.863 432.183 545.189 432.39 545.567 432.893 C 545.308 432.983 544.995 432.776 544.61 432.273 Z" style="stroke-width: 1;"/>
    <path fill="#F74D01" opacity="1.000000" stroke="none" d="M 775.996 290.523 C 775.782 290.61 775.441 290.412 775.001 289.927 C 775.224 289.84 775.546 290.039 775.996 290.523 Z" style="stroke-width: 1;"/>
    <path fill="#F74D01" opacity="1.000000" stroke="none" d="M 772.9 286.569 C 772.698 286.631 772.378 286.431 771.951 285.961 C 772.157 285.896 772.469 286.101 772.9 286.569 Z" style="stroke-width: 1;"/>
    <path fill="#F74D01" opacity="1.000000" stroke="none" d="M 771.904 285.551 C 771.684 285.624 771.367 285.425 770.952 284.955 C 771.17 284.883 771.489 285.081 771.904 285.551 Z" style="stroke-width: 1;"/>
    <path fill="#F74D01" opacity="1.000000" stroke="none" d="M 770.903 284.552 C 770.683 284.625 770.367 284.425 769.952 283.954 C 770.171 283.882 770.489 284.081 770.903 284.552 Z" style="stroke-width: 1;"/>
    <path fill="#F5701A" opacity="1.000000" stroke="none" d="M 462.014 250.233 C 461.782 250.4 461.431 250.324 460.966 249.986 C 461.199 249.812 461.548 249.901 462.014 250.233 Z" style="stroke-width: 1;"/>
    <path fill="#F74D01" opacity="1.000000" stroke="none" d="M 767.949 281.567 C 767.752 281.647 767.416 281.477 766.946 281.054 C 767.145 280.972 767.477 281.145 767.949 281.567 Z" style="stroke-width: 1;"/>
    <path fill="#F5701A" opacity="1.000000" stroke="none" d="M 214.018 457.389 C 213.778 457.512 213.429 457.372 212.975 456.957 C 213.217 456.83 213.563 456.978 214.018 457.389 Z" style="stroke-width: 1;"/>
    <path fill="#F74D01" opacity="1.000000" stroke="none" d="M 765.051 279.387 C 764.757 279.524 764.414 279.36 763.978 278.91 C 764.257 278.779 764.629 278.932 765.051 279.387 Z" style="stroke-width: 1;"/>
    <path fill="#F5701A" opacity="1.000000" stroke="none" d="M 460.455 -10.282 C 460.468 -10.123 460.255 -9.914 459.927 -9.862 C 459.813 -10.019 460.227 -10.233 460.455 -10.282 Z" style="stroke-width: 1;"/>
    <path fill="#F5701A" opacity="1.000000" stroke="none" d="M 772.461 457.78 C 772.5 457.995 772.273 458.289 771.753 458.579 C 771.705 458.337 771.95 458.097 772.461 457.78 Z" style="stroke-width: 1;"/>
    <path fill="#F5701A" opacity="1.000000" stroke="none" d="M 242.812 269.692 C 242.544 269.885 242.302 269.815 241.954 269.54 C 241.974 269.268 242.118 269.141 242.547 269.051 C 242.832 269.089 242.82 269.491 242.812 269.692 Z" style="stroke-width: 1;"/>
    <path fill="#F74D01" opacity="1.000000" stroke="none" d="M 538.764 426.168 C 538.958 426.111 539.254 426.311 539.662 426.758 C 539.472 426.812 539.169 426.618 538.764 426.168 Z" style="stroke-width: 1;"/>
    <path fill="#F5701A" opacity="1.000000" stroke="none" d="M 618.474 204.787 C 618.51 205.023 618.272 205.3 617.746 205.553 C 617.706 205.296 617.953 205.062 618.474 204.787 Z" style="stroke-width: 1;"/>
    <path fill="#F6701B" opacity="1.000000" stroke="none" d="M 467.181 512.076 C 466.798 491.207 466.798 470.502 466.798 449.325 C 470.209 448.857 473.619 448.864 477.029 448.864 C 488.523 448.866 500.016 448.913 511.509 448.834 C 514.852 448.811 518.192 448.422 521.777 448.185 C 521.777 469.106 521.826 489.197 521.655 509.285 C 521.645 510.488 519.884 512.71 518.923 512.717 C 502.11 512.851 485.295 512.716 468.481 512.619 C 468.174 512.617 467.869 512.373 467.181 512.076 Z" style="stroke-width: 1;"/>
  </g>
</svg>