<svg version="1.1" id="Layer_1" xmlns="http://www.w3.org/2000/svg" xmlns:xlink="http://www.w3.org/1999/xlink" x="0px" y="0px" width="100%" viewBox="0 0 1024 1024" enable-background="new 0 0 1024 1024">
  <path fill="#000000" opacity="1.000000" stroke="none" d="
M590.000000,653.701538 
	C618.160400,653.706421 645.820862,653.722107 673.481262,653.705994 
	C678.022095,653.703308 682.453552,654.301941 686.652222,656.038879 
	C692.325012,658.385681 695.387512,662.812134 695.273132,668.869263 
	C695.024963,682.012451 694.771667,695.172607 693.864136,708.280396 
	C693.220520,717.577148 693.018494,726.891174 692.504333,736.185852 
	C691.006714,763.261353 690.298584,790.379700 689.173889,817.476807 
	C688.697937,828.943665 687.941406,840.398621 687.337585,851.860291 
	C686.938965,859.426819 682.417969,863.650513 673.828186,864.309631 
	C671.839294,864.462280 669.830933,864.374451 667.831543,864.374451 
	C563.855042,864.375793 459.878571,864.375000 355.902069,864.373535 
	C343.835907,864.373352 338.314026,859.451111 337.756195,847.464417 
	C336.882141,828.683228 336.437469,809.882324 335.622864,791.098022 
	C334.469604,764.504944 333.067932,737.922607 331.925751,711.329163 
	C331.332855,697.523987 330.921661,683.706848 330.712769,669.890808 
	C330.587036,661.579590 335.510529,656.077393 343.630585,654.681152 
	C347.739532,653.974548 351.869995,653.685730 356.053253,653.687561 
	C433.868835,653.721802 511.684418,653.706604 590.000000,653.701538 
z"></path>
  <path fill="#000000" opacity="1.000000" stroke="none" d="
M531.666443,502.111084 
	C507.141449,505.306244 483.664551,502.651978 461.249146,493.393677 
	C410.214600,472.314819 378.923523,434.568665 367.623505,380.468628 
	C362.912994,357.916565 364.626282,335.754364 370.677185,313.476929 
	C372.999023,304.928619 372.989685,295.530426 374.629974,286.593353 
	C376.426270,276.806305 378.055847,266.988434 379.890198,257.208801 
	C380.182343,255.651337 380.349304,253.893066 381.820526,252.463257 
	C385.921326,252.778961 389.616394,254.822464 393.456299,256.238434 
	C427.801880,268.903381 462.148407,281.568085 496.401917,294.478943 
	C507.068054,298.499237 517.394348,298.447784 528.014282,294.540894 
	C564.078308,281.273590 600.196106,268.152557 636.294434,254.978531 
	C637.544922,254.522202 638.836548,254.166214 640.057068,253.642532 
	C643.380310,252.216599 644.847107,253.302780 645.471680,256.859070 
	C647.966736,271.066986 651.720215,285.144135 652.997009,299.449219 
	C654.164917,312.533966 658.108948,324.973633 659.546753,337.938354 
	C661.724670,357.577271 660.208130,376.883911 654.206604,395.569397 
	C636.582214,450.442291 600.078674,485.665985 543.841797,499.796021 
	C539.985657,500.764893 536.019348,501.294739 531.666443,502.111084 
z"></path>
  <path fill="#000000" opacity="1.000000" stroke="none" d="
M470.036804,522.779419 
	C508.808807,533.470093 545.814941,528.695557 581.830505,512.927429 
	C587.166870,510.591095 592.521606,508.270966 597.714844,505.641174 
	C601.878906,503.532501 605.863220,504.821594 609.870728,505.666229 
	C656.163086,515.422852 695.883667,536.457703 725.520142,574.180908 
	C744.320312,598.110901 755.652893,625.370789 759.394836,655.635620 
	C761.548889,673.057007 760.275146,690.576599 760.124451,708.040527 
	C760.045044,717.231079 750.858704,725.507812 741.178467,726.254028 
	C734.046204,726.803711 726.861511,726.668518 719.727295,727.201172 
	C714.779968,727.570557 713.292419,725.641541 713.704956,720.874084 
	C715.067566,705.123352 714.913818,689.283508 715.945679,673.526733 
	C717.570374,648.719543 698.722717,632.547485 676.837341,632.501404 
	C566.852905,632.269958 456.867615,632.315613 346.882812,632.446899 
	C323.434570,632.474854 306.610504,653.687378 309.460571,678.296204 
	C311.222260,693.507568 311.012177,708.856445 311.774658,724.139221 
	C311.866364,725.976868 311.223846,727.149841 309.349396,727.133545 
	C300.031494,727.052429 290.639343,728.143738 281.413696,726.627808 
	C271.133820,724.938721 265.206879,718.839539 264.972961,707.074890 
	C264.468536,681.703125 262.618622,656.157288 270.242249,631.265442 
	C286.342285,578.697449 320.729279,542.671997 370.219025,520.257507 
	C385.886963,513.161316 402.232971,508.195496 419.207428,505.236786 
	C422.368317,504.685852 425.005066,505.020416 427.855377,506.303650 
	C441.510620,512.451355 455.106476,518.771667 470.036804,522.779419 
z"></path>
  <path fill="#000000" opacity="1.000000" stroke="none" d="
M687.203735,276.504852 
	C687.959534,275.347778 688.339539,274.234436 689.112793,273.753662 
	C695.814087,269.587463 695.919495,263.186523 695.739685,256.286957 
	C695.418579,243.965546 695.682129,231.629730 695.624573,219.300308 
	C695.597473,213.492004 694.323730,212.624023 689.124756,214.641785 
	C648.025574,230.592743 605.959534,243.843384 564.653870,259.218567 
	C551.715027,264.034760 538.613647,268.435303 525.799438,273.558319 
	C516.521545,277.267487 508.095367,277.391785 498.462433,273.601501 
	C454.660858,256.366974 410.158752,241.006119 365.798309,225.267883 
	C342.126831,216.869705 318.765656,207.596146 295.276428,198.686096 
	C293.257385,197.920212 291.267365,197.028870 289.372162,195.996872 
	C286.461548,194.411972 284.163635,192.150482 284.155273,188.617844 
	C284.146332,184.834427 286.550201,182.483307 289.821075,181.108994 
	C296.879272,178.143326 303.955811,175.213272 311.094360,172.448181 
	C375.334076,147.565216 439.604248,122.760605 503.816589,97.807343 
	C510.575378,95.180847 516.945435,95.131042 523.658875,97.754860 
	C592.779541,124.769264 661.931885,151.702408 731.066223,178.681702 
	C733.386658,179.587250 735.727844,180.544266 737.856445,181.816772 
	C743.921204,185.442398 743.967834,191.838516 737.677002,195.119949 
	C732.089172,198.034668 726.184082,200.409973 720.256104,202.577850 
	C716.767822,203.853531 715.237366,205.593231 715.273254,209.458450 
	C715.442078,227.618195 715.407043,245.780701 715.296326,263.941315 
	C715.277222,267.069366 716.450012,269.229889 718.597778,271.353058 
	C727.217834,279.874634 728.174255,291.633759 720.909973,301.100189 
	C719.401794,303.065552 719.778381,304.610992 720.248657,306.591919 
	C725.423096,328.390686 730.565857,350.197144 735.647400,372.017731 
	C737.649170,380.613800 735.459595,384.357086 726.715271,384.696838 
	C712.414246,385.252472 698.066101,385.169952 683.757446,384.726776 
	C676.003235,384.486603 673.419922,380.220032 675.138855,372.453552 
	C680.015442,350.420044 684.913879,328.391235 689.884644,306.378876 
	C690.304932,304.517639 690.707703,302.981232 689.338928,301.271210 
	C683.254089,293.669434 683.465210,285.398285 687.203735,276.504852 
z"></path>
  <path fill="#000000" opacity="1.000000" stroke="none" d="
M665.000122,873.647461 
	C678.993896,873.649109 692.488098,873.713928 705.981079,873.613403 
	C709.858826,873.584595 713.617920,874.237976 717.326477,875.080139 
	C722.860596,876.336914 725.328552,879.585510 724.718689,885.177063 
	C723.616394,895.282715 719.765625,904.112976 711.568298,910.603882 
	C707.525208,913.805237 702.975525,915.413086 697.725708,915.411377 
	C574.949097,915.370728 452.172546,915.367859 329.395996,915.420044 
	C323.577576,915.422546 318.623016,913.648865 314.391846,909.759521 
	C306.998444,902.963379 302.362274,894.671814 301.727264,884.564941 
	C301.329773,878.237976 303.661560,875.863770 309.756531,874.612976 
	C313.870087,873.768860 317.992279,873.632263 322.158386,873.632812 
	C436.272278,873.648499 550.386169,873.646606 665.000122,873.647461 
z"></path>
</svg>